  0
SECTION
  2
HEADER
  9
$ACADVER
  1
AC1009
  9
$INSBASE
 10
0.0
 20
0.0
 30
0.0
  9
$EXTMIN
 10
76.450000000000003
 20
66.348750067500006
 30
0.0
  9
$EXTMAX
 10
158.53435260813831
 20
152.55000000000001
 30
0.0
  9
$LIMMIN
 10
0.0
 20
0.0
  9
$LIMMAX
 10
0.0
 20
0.0
  9
$ORTHOMODE
 70
     0
  9
$REGENMODE
 70
     1
  9
$FILLMODE
 70
     1
  9
$QTEXTMODE
 70
     0
  9
$MIRRTEXT
 70
     1
  9
$DRAGMODE
 70
     2
  9
$LTSCALE
 40
1.0
  9
$OSMODE
 70
    37
  9
$ATTMODE
 70
     1
  9
$TEXTSIZE
 40
2.5
  9
$TRACEWID
 40
1.0
  9
$TEXTSTYLE
  7
STANDARD
  9
$CLAYER
  8
0
  9
$CELTYPE
  6
BYLAYER
  9
$CECOLOR
 62
   256
  9
$DIMSCALE
 40
1.0
  9
$DIMASZ
 40
6.0
  9
$DIMEXO
 40
1.0
  9
$DIMDLI
 40
3.75
  9
$DIMRND
 40
0.0
  9
$DIMDLE
 40
0.0
  9
$DIMEXE
 40
1.0
  9
$DIMTP
 40
0.0
  9
$DIMTM
 40
0.0
  9
$DIMTXT
 40
3.5
  9
$DIMCEN
 40
2.5
  9
$DIMTSZ
 40
0.0
  9
$DIMTOL
 70
     0
  9
$DIMLIM
 70
     0
  9
$DIMTIH
 70
     1
  9
$DIMTOH
 70
     1
  9
$DIMSE1
 70
     0
  9
$DIMSE2
 70
     0
  9
$DIMTAD
 70
     1
  9
$DIMZIN
 70
     0
  9
$DIMBLK
  1

  9
$DIMASO
 70
     1
  9
$DIMSHO
 70
     1
  9
$DIMPOST
  1

  9
$DIMAPOST
  1

  9
$DIMALT
 70
     0
  9
$DIMALTD
 70
     3
  9
$DIMALTF
 40
0.0393700787
  9
$DIMLFAC
 40
1.0
  9
$DIMTOFL
 70
     1
  9
$DIMTVP
 40
0.0
  9
$DIMTIX
 70
     0
  9
$DIMSOXD
 70
     0
  9
$DIMSAH
 70
     0
  9
$DIMBLK1
  1

  9
$DIMBLK2
  1

  9
$DIMSTYLE
  2
ISO-25
  9
$DIMCLRD
 70
     0
  9
$DIMCLRE
 70
     0
  9
$DIMCLRT
 70
     0
  9
$DIMTFAC
 40
1.0
  9
$DIMGAP
 40
1.524
  9
$LUNITS
 70
     2
  9
$LUPREC
 70
     2
  9
$SKETCHINC
 40
1.0
  9
$FILLETRAD
 40
10.0
  9
$AUNITS
 70
     0
  9
$AUPREC
 70
     0
  9
$MENU
  1
.
  9
$ELEVATION
 40
0.0
  9
$PELEVATION
 40
0.0
  9
$THICKNESS
 40
0.0
  9
$LIMCHECK
 70
     0
  9
$BLIPMODE
 70
     0
  9
$CHAMFERA
 40
10.0
  9
$CHAMFERB
 40
10.0
  9
$SKPOLY
 70
     0
  9
$TDCREATE
 40
2454349.4961534259
  9
$TDUPDATE
 40
2455917.6155806822
  9
$TDINDWG
 40
0.0006953588
  9
$TDUSRTIMER
 40
0.0006946412
  9
$USRTIMER
 70
     1
  9
$ANGBASE
 50
0.0
  9
$ANGDIR
 70
     0
  9
$PDMODE
 70
     0
  9
$PDSIZE
 40
-1.0
  9
$PLINEWID
 40
0.0
  9
$COORDS
 70
     1
  9
$SPLFRAME
 70
     0
  9
$SPLINETYPE
 70
     6
  9
$SPLINESEGS
 70
     8
  9
$ATTDIA
 70
     0
  9
$ATTREQ
 70
     1
  9
$HANDLING
 70
 22529
  9
$HANDSEED
  5
8C9
  9
$SURFTAB1
 70
     6
  9
$SURFTAB2
 70
     6
  9
$SURFTYPE
 70
     6
  9
$SURFU
 70
     6
  9
$SURFV
 70
     6
  9
$UCSNAME
  2

  9
$UCSORG
 10
0.0
 20
0.0
 30
0.0
  9
$UCSXDIR
 10
1.0
 20
0.0
 30
0.0
  9
$UCSYDIR
 10
0.0
 20
1.0
 30
0.0
  9
$PUCSNAME
  2

  9
$PUCSORG
 10
0.0
 20
0.0
 30
0.0
  9
$PUCSXDIR
 10
1.0
 20
0.0
 30
0.0
  9
$PUCSYDIR
 10
0.0
 20
1.0
 30
0.0
  9
$USERI1
 70
     0
  9
$USERI2
 70
     0
  9
$USERI3
 70
     0
  9
$USERI4
 70
     0
  9
$USERI5
 70
     0
  9
$USERR1
 40
0.0
  9
$USERR2
 40
0.0
  9
$USERR3
 40
0.0
  9
$USERR4
 40
0.0
  9
$USERR5
 40
0.0
  9
$WORLDVIEW
 70
     1
  9
$SHADEDGE
 70
     3
  9
$SHADEDIF
 70
    70
  9
$TILEMODE
 70
     1
  9
$MAXACTVP
 70
    64
  9
$PLIMCHECK
 70
     0
  9
$PEXTMIN
 10
1.0000000000000000E+020
 20
1.0000000000000000E+020
 30
1.0000000000000000E+020
  9
$PEXTMAX
 10
-1.0000000000000000E+020
 20
-1.0000000000000000E+020
 30
-1.0000000000000000E+020
  9
$PLIMMIN
 10
0.0
 20
0.0
  9
$PLIMMAX
 10
420.0
 20
297.0
  9
$UNITMODE
 70
     0
  9
$VISRETAIN
 70
     1
  9
$PLINEGEN
 70
     0
  9
$PSLTSCALE
 70
     1
  0
ENDSEC
  0
SECTION
  2
TABLES
  0
TABLE
  2
VPORT
 70
     2
  0
VPORT
  2
*ACTIVE
 70
     0
 10
0.0
 20
0.0
 11
1.0
 21
1.0
 12
114.03440026227911
 22
110.4518610620421
 13
0.0
 23
0.0
 14
10.0
 24
10.0
 15
10.0
 25
10.0
 16
0.0
 26
0.0
 36
1.0
 17
0.0
 27
0.0
 37
0.0
 40
111.4768697358456
 41
1.6678383128295251
 42
50.0
 43
0.0
 44
0.0
 50
0.0
 51
0.0
 71
     0
 72
  2000
 73
     1
 74
     3
 75
     0
 76
     0
 77
     0
 78
     0
  0
ENDTAB
  0
TABLE
  2
LTYPE
 70
     6
  0
LTYPE
  2
CONTINUOUS
 70
     0
  3
Solid line
 72
    65
 73
     0
 40
0.0
  0
LTYPE
  2
HIDDEN
 70
     0
  3
Hidden __ __ __ __ __ __ __ __ __ __ __ __ __ __
 72
    65
 73
     2
 40
1.905
 49
1.27
 49
-0.635
  0
LTYPE
  2
PHANTOM
 70
     0
  3
Phantom ______  __  __  ______  __  __  ______
 72
    65
 73
     6
 40
12.699999999999999
 49
6.3499999999999988
 49
-1.27
 49
1.27
 49
-1.27
 49
1.27
 49
-1.27
  0
LTYPE
  2
CENTER
 70
     0
  3
Center ____ _ ____ _ ____ _ ____ _ ____ _ ____
 72
    65
 73
     4
 40
10.16
 49
6.3499999999999988
 49
-1.27
 49
1.27
 49
-1.27
  0
LTYPE
  2
CENTERX2
 70
     0
  3
Center (2x) ________  __  ________  __  _____
 72
    65
 73
     4
 40
20.32
 49
12.699999999999999
 49
-2.54
 49
2.54
 49
-2.54
  0
LTYPE
  2
DOT2
 70
     0
  3
Dot (.5x) ........................................
 72
    65
 73
     2
 40
0.635
 49
0.0
 49
-0.635
  0
ENDTAB
  0
TABLE
  2
LAYER
 70
     1
  0
LAYER
  2
0
 70
     0
 62
     7
  6
CONTINUOUS
  0
ENDTAB
  0
TABLE
  2
STYLE
 70
     1
  0
STYLE
  2
STANDARD
 70
     0
 40
0.0
 41
1.0
 50
0.0
 71
     0
 42
2.5
  3
txt
  4
bigfont
  0
ENDTAB
  0
TABLE
  2
VIEW
 70
     0
  0
ENDTAB
  0
TABLE
  2
UCS
 70
     0
  0
ENDTAB
  0
TABLE
  2
APPID
 70
     1
  0
APPID
  2
ACAD
 70
     0
  0
ENDTAB
  0
TABLE
  2
DIMSTYLE
 70
     1
  0
DIMSTYLE
  2
ISO-25
 70
     0
  3

  4

  5

  6

  7

 40
1.0
 41
2.5
 42
0.625
 43
3.75
 44
1.25
 45
0.0
 46
0.0
 47
0.0
 48
0.0
140
2.5
141
2.5
142
0.0
143
0.0393700787
144
1.0
145
0.0
146
1.0
147
0.625
 71
     0
 72
     0
 73
     0
 74
     0
 75
     0
 76
     0
 77
     1
 78
     8
170
     0
171
     3
172
     1
173
     0
174
     0
175
     0
176
     0
177
     0
178
     0
  0
ENDTAB
  0
ENDSEC
  0
SECTION
  2
BLOCKS
  0
BLOCK
  8
0
  2
$MODEL_SPACE
 70
     0
 10
0.0
 20
0.0
 30
0.0
  3
$MODEL_SPACE
  1

  0
ENDBLK
  5
47F
  8
0
  0
BLOCK
 67
     1
  8
0
  2
$PAPER_SPACE
 70
     0
 10
0.0
 20
0.0
 30
0.0
  3
$PAPER_SPACE
  1

  0
ENDBLK
  5
47B
 67
     1
  8
0
  0
ENDSEC
  0
SECTION
  2
ENTITIES
  0
LINE
  5
490
  8
0
  6
CONTINUOUS
 62
     7
 10
79.724999999999994
 20
150.9295670489999
 30
0.0
 11
79.875
 21
150.9295670489999
 31
0.0
  0
LINE
  5
491
  8
0
  6
CONTINUOUS
 62
     7
 10
79.474999999999994
 20
149.07043295099999
 30
0.0
 11
79.325000000000003
 21
149.07043295099999
 31
0.0
  0
LINE
  5
492
  8
0
  6
CONTINUOUS
 62
     7
 10
79.075000000000003
 20
149.07043295099999
 30
0.0
 11
78.924999999999997
 21
149.07043295099999
 31
0.0
  0
LINE
  5
493
  8
0
  6
CONTINUOUS
 62
     7
 10
79.325000000000003
 20
150.9295670489999
 30
0.0
 11
79.474999999999994
 21
150.9295670489999
 31
0.0
  0
LINE
  5
494
  8
0
  6
CONTINUOUS
 62
     7
 10
78.275000000000006
 20
149.07043295099999
 30
0.0
 11
78.125
 21
149.07043295099999
 31
0.0
  0
LINE
  5
495
  8
0
  6
CONTINUOUS
 62
     7
 10
78.924999999999997
 20
150.9295670489999
 30
0.0
 11
79.075000000000003
 21
150.9295670489999
 31
0.0
  0
LINE
  5
496
  8
0
  6
CONTINUOUS
 62
     7
 10
80.674999999999997
 20
149.07043295099999
 30
0.0
 11
80.525000000000006
 21
149.07043295099999
 31
0.0
  0
LINE
  5
497
  8
0
  6
CONTINUOUS
 62
     7
 10
82.275000000000006
 20
149.07043295099999
 30
0.0
 11
82.125
 21
149.07043295099999
 31
0.0
  0
LINE
  5
498
  8
0
  6
CONTINUOUS
 62
     7
 10
82.125
 20
150.9295670489999
 30
0.0
 11
82.275000000000006
 21
150.9295670489999
 31
0.0
  0
LINE
  5
499
  8
0
  6
CONTINUOUS
 62
     7
 10
79.875
 20
149.07043295099999
 30
0.0
 11
79.724999999999994
 21
149.07043295099999
 31
0.0
  0
LINE
  5
49A
  8
0
  6
CONTINUOUS
 62
     7
 10
77.875
 20
149.07043295099999
 30
0.0
 11
77.724999999999994
 21
149.07043295099999
 31
0.0
  0
LINE
  5
49B
  8
0
  6
CONTINUOUS
 62
     7
 10
81.724999999999994
 20
150.9295670489999
 30
0.0
 11
81.875
 21
150.9295670489999
 31
0.0
  0
LINE
  5
49C
  8
0
  6
CONTINUOUS
 62
     7
 10
78.525000000000006
 20
150.9295670489999
 30
0.0
 11
78.674999999999983
 21
150.9295670489999
 31
0.0
  0
LINE
  5
49D
  8
0
  6
CONTINUOUS
 62
     7
 10
78.674999999999983
 20
149.07043295099999
 30
0.0
 11
78.525000000000006
 21
149.07043295099999
 31
0.0
  0
LINE
  5
49E
  8
0
  6
CONTINUOUS
 62
     7
 10
80.275000000000006
 20
149.07043295099999
 30
0.0
 11
80.125000000000014
 21
149.07043295099999
 31
0.0
  0
LINE
  5
49F
  8
0
  6
CONTINUOUS
 62
     7
 10
77.724999999999994
 20
150.9295670489999
 30
0.0
 11
77.875
 21
150.9295670489999
 31
0.0
  0
LINE
  5
4A0
  8
0
  6
CONTINUOUS
 62
     7
 10
80.125000000000014
 20
150.9295670489999
 30
0.0
 11
80.275000000000006
 21
150.9295670489999
 31
0.0
  0
LINE
  5
4A1
  8
0
  6
CONTINUOUS
 62
     7
 10
80.924999999999983
 20
150.9295670489999
 30
0.0
 11
81.074999999999989
 21
150.9295670489999
 31
0.0
  0
LINE
  5
4A2
  8
0
  6
CONTINUOUS
 62
     7
 10
80.525000000000006
 20
150.9295670489999
 30
0.0
 11
80.674999999999997
 21
150.9295670489999
 31
0.0
  0
LINE
  5
4A3
  8
0
  6
CONTINUOUS
 62
     7
 10
78.125
 20
150.9295670489999
 30
0.0
 11
78.275000000000006
 21
150.9295670489999
 31
0.0
  0
LINE
  5
4A4
  8
0
  6
CONTINUOUS
 62
     7
 10
81.875
 20
149.07043295099999
 30
0.0
 11
81.724999999999994
 21
149.07043295099999
 31
0.0
  0
LINE
  5
4A5
  8
0
  6
CONTINUOUS
 62
     7
 10
81.074999999999989
 20
149.07043295099999
 30
0.0
 11
80.924999999999983
 21
149.07043295099999
 31
0.0
  0
LINE
  5
4A6
  8
0
  6
CONTINUOUS
 62
     7
 10
81.325000000000003
 20
150.9295670489999
 30
0.0
 11
81.474999999999994
 21
150.9295670489999
 31
0.0
  0
LINE
  5
4A7
  8
0
  6
CONTINUOUS
 62
     7
 10
81.474999999999994
 20
149.07043295099999
 30
0.0
 11
81.325000000000003
 21
149.07043295099999
 31
0.0
  0
LINE
  5
4A8
  8
0
  6
CONTINUOUS
 62
     7
 10
76.549999999999997
 20
149.59999999999991
 30
0.0
 11
76.549999999999997
 21
150.40000000000001
 31
0.0
  0
LINE
  5
4A9
  8
0
  6
CONTINUOUS
 62
     7
 10
76.549999999999997
 20
150.40000000000001
 30
0.0
 11
76.450000000000003
 21
150.5
 31
0.0
  0
LINE
  5
4AA
  8
0
  6
CONTINUOUS
 62
     7
 10
76.450000000000003
 20
151.47499999999999
 30
0.0
 11
76.450000000000003
 21
150.5
 31
0.0
  0
LINE
  5
4AB
  8
0
  6
CONTINUOUS
 62
     7
 10
77.400000000000006
 20
151.47499999999999
 30
0.0
 11
77.400000000000006
 21
151.2649999999999
 31
0.0
  0
LINE
  5
4AC
  8
0
  6
CONTINUOUS
 62
     7
 10
76.75
 20
151.2649999999999
 30
0.0
 11
77.400000000000006
 21
151.2649999999999
 31
0.0
  0
LINE
  5
4AD
  8
0
  6
CONTINUOUS
 62
     7
 10
76.75
 20
151.2649999999999
 30
0.0
 11
76.75
 21
148.73500000000001
 31
0.0
  0
LINE
  5
4AE
  8
0
  6
CONTINUOUS
 62
     7
 10
76.75
 20
148.73500000000001
 30
0.0
 11
77.400000000000006
 21
148.73500000000001
 31
0.0
  0
LINE
  5
4AF
  8
0
  6
CONTINUOUS
 62
     7
 10
77.400000000000006
 20
148.52500000000001
 30
0.0
 11
77.400000000000006
 21
148.73500000000001
 31
0.0
  0
LINE
  5
4B0
  8
0
  6
CONTINUOUS
 62
     7
 10
76.450000000000003
 20
148.52500000000001
 30
0.0
 11
77.400000000000006
 21
148.52500000000001
 31
0.0
  0
LINE
  5
4B1
  8
0
  6
CONTINUOUS
 62
     7
 10
76.450000000000003
 20
149.5
 30
0.0
 11
76.450000000000003
 21
148.52500000000001
 31
0.0
  0
LINE
  5
4B2
  8
0
  6
CONTINUOUS
 62
     7
 10
76.450000000000003
 20
149.5
 30
0.0
 11
76.549999999999997
 21
149.59999999999991
 31
0.0
  0
LINE
  5
4B3
  8
0
  6
CONTINUOUS
 62
     7
 10
76.450000000000003
 20
151.47499999999999
 30
0.0
 11
77.400000000000006
 21
151.47499999999999
 31
0.0
  0
LINE
  5
4B4
  8
0
  6
CONTINUOUS
 62
     7
 10
82.599999999999994
 20
151.11500000000001
 30
0.0
 11
83.140243902400002
 21
151.11500000000001
 31
0.0
  0
LINE
  5
4B5
  8
0
  6
CONTINUOUS
 62
     7
 10
82.599999999999994
 20
151.2649999999999
 30
0.0
 11
82.599999999999994
 21
151.11500000000001
 31
0.0
  0
LINE
  5
4B6
  8
0
  6
CONTINUOUS
 62
     7
 10
83.250000000000014
 20
151.2649999999999
 30
0.0
 11
82.599999999999994
 21
151.2649999999999
 31
0.0
  0
LINE
  5
4B7
  8
0
  6
CONTINUOUS
 62
     7
 10
83.140243902400002
 20
151.11500000000001
 30
0.0
 11
83.250000000000014
 21
151.2649999999999
 31
0.0
  0
LINE
  5
4B8
  8
0
  6
CONTINUOUS
 62
     7
 10
77.400000000000006
 20
151.2649999999999
 30
0.0
 11
77.400000000000006
 21
151.11500000000001
 31
0.0
  0
LINE
  5
4B9
  8
0
  6
CONTINUOUS
 62
     7
 10
77.400000000000006
 20
151.11500000000001
 30
0.0
 11
76.859756097599984
 21
151.11500000000001
 31
0.0
  0
LINE
  5
4BA
  8
0
  6
CONTINUOUS
 62
     7
 10
76.859756097599984
 20
151.11500000000001
 30
0.0
 11
76.75
 21
151.2649999999999
 31
0.0
  0
LINE
  5
4BB
  8
0
  6
CONTINUOUS
 62
     7
 10
82.949999999999989
 20
148.88499999999999
 30
0.0
 11
82.949999999999989
 21
151.11500000000001
 31
0.0
  0
LINE
  5
4BC
  8
0
  6
CONTINUOUS
 62
     7
 10
83.250000000000014
 20
151.2649999999999
 30
0.0
 11
83.250000000000014
 21
148.73500000000001
 31
0.0
  0
LINE
  5
4BD
  8
0
  6
CONTINUOUS
 62
     7
 10
83.140243902400002
 20
148.88499999999999
 30
0.0
 11
83.250000000000014
 21
148.73500000000001
 31
0.0
  0
LINE
  5
4BE
  8
0
  6
CONTINUOUS
 62
     7
 10
83.250000000000014
 20
148.73500000000001
 30
0.0
 11
82.599999999999994
 21
148.73500000000001
 31
0.0
  0
LINE
  5
4BF
  8
0
  6
CONTINUOUS
 62
     7
 10
82.599999999999994
 20
148.73500000000001
 30
0.0
 11
82.599999999999994
 21
148.88499999999999
 31
0.0
  0
LINE
  5
4C0
  8
0
  6
CONTINUOUS
 62
     7
 10
82.599999999999994
 20
148.88499999999999
 30
0.0
 11
83.140243902400002
 21
148.88499999999999
 31
0.0
  0
LINE
  5
4C1
  8
0
  6
CONTINUOUS
 62
     7
 10
77.400000000000006
 20
148.88499999999999
 30
0.0
 11
76.859756097599984
 21
148.88499999999999
 31
0.0
  0
LINE
  5
4C2
  8
0
  6
CONTINUOUS
 62
     7
 10
77.400000000000006
 20
148.73500000000001
 30
0.0
 11
77.400000000000006
 21
148.88499999999999
 31
0.0
  0
LINE
  5
4C3
  8
0
  6
CONTINUOUS
 62
     7
 10
76.859756097599984
 20
148.88499999999999
 30
0.0
 11
76.75
 21
148.73500000000001
 31
0.0
  0
LINE
  5
4C4
  8
0
  6
CONTINUOUS
 62
     7
 10
82.599999999999994
 20
148.52500000000001
 30
0.0
 11
82.599999999999994
 21
148.73500000000001
 31
0.0
  0
LINE
  5
4C5
  8
0
  6
CONTINUOUS
 62
     7
 10
82.599999999999994
 20
151.47499999999999
 30
0.0
 11
82.599999999999994
 21
151.2649999999999
 31
0.0
  0
LINE
  5
4C6
  8
0
  6
CONTINUOUS
 62
     7
 10
83.549999999999997
 20
151.47499999999999
 30
0.0
 11
82.599999999999994
 21
151.47499999999999
 31
0.0
  0
LINE
  5
4C7
  8
0
  6
CONTINUOUS
 62
     7
 10
83.549999999999997
 20
151.47499999999999
 30
0.0
 11
83.549999999999997
 21
148.52500000000001
 31
0.0
  0
LINE
  5
4C8
  8
0
  6
CONTINUOUS
 62
     7
 10
83.549999999999997
 20
148.52500000000001
 30
0.0
 11
82.599999999999994
 21
148.52500000000001
 31
0.0
  0
LINE
  5
4C9
  8
0
  6
CONTINUOUS
 62
     7
 10
77.049999999999997
 20
148.88499999999999
 30
0.0
 11
77.049999999999997
 21
151.11500000000001
 31
0.0
  0
LINE
  5
4CA
  8
0
  6
CONTINUOUS
 62
     7
 10
79.099999999999994
 20
148.22499999999999
 30
0.0
 11
79.099999999999994
 21
148.27500000000001
 31
0.0
  0
LINE
  5
4CB
  8
0
  6
CONTINUOUS
 62
     7
 10
78.900000000000006
 20
148.22499999999999
 30
0.0
 11
79.099999999999994
 21
148.22499999999999
 31
0.0
  0
LINE
  5
4CC
  8
0
  6
CONTINUOUS
 62
     7
 10
78.900000000000006
 20
148.22499999999999
 30
0.0
 11
78.900000000000006
 21
148.27500000000001
 31
0.0
  0
LINE
  5
4CD
  8
0
  6
CONTINUOUS
 62
     7
 10
78.900000000000006
 20
148.27500000000001
 30
0.0
 11
78.900000000000006
 21
148.3249999999999
 31
0.0
  0
LINE
  5
4CE
  8
0
  6
CONTINUOUS
 62
     7
 10
78.900000000000006
 20
148.3249999999999
 30
0.0
 11
79.099999999999994
 21
148.3249999999999
 31
0.0
  0
LINE
  5
4CF
  8
0
  6
CONTINUOUS
 62
     7
 10
79.099999999999994
 20
148.3249999999999
 30
0.0
 11
79.099999999999994
 21
148.27500000000001
 31
0.0
  0
LINE
  5
4D0
  8
0
  6
CONTINUOUS
 62
     7
 10
80.099999999999994
 20
151.77500000000001
 30
0.0
 11
80.099999999999994
 21
151.72499999999991
 31
0.0
  0
LINE
  5
4D1
  8
0
  6
CONTINUOUS
 62
     7
 10
80.299999999999983
 20
151.77500000000001
 30
0.0
 11
80.099999999999994
 21
151.77500000000001
 31
0.0
  0
LINE
  5
4D2
  8
0
  6
CONTINUOUS
 62
     7
 10
80.299999999999983
 20
151.77500000000001
 30
0.0
 11
80.299999999999983
 21
151.72499999999991
 31
0.0
  0
LINE
  5
4D3
  8
0
  6
CONTINUOUS
 62
     7
 10
80.299999999999983
 20
151.72499999999991
 30
0.0
 11
80.299999999999983
 21
151.67500000000001
 31
0.0
  0
LINE
  5
4D4
  8
0
  6
CONTINUOUS
 62
     7
 10
80.299999999999983
 20
151.67500000000001
 30
0.0
 11
80.099999999999994
 21
151.67500000000001
 31
0.0
  0
LINE
  5
4D5
  8
0
  6
CONTINUOUS
 62
     7
 10
80.099999999999994
 20
151.67500000000001
 30
0.0
 11
80.099999999999994
 21
151.72499999999991
 31
0.0
  0
LINE
  5
4D6
  8
0
  6
CONTINUOUS
 62
     7
 10
78.5
 20
151.67500000000001
 30
0.0
 11
78.700000000000003
 21
151.67500000000001
 31
0.0
  0
LINE
  5
4D7
  8
0
  6
CONTINUOUS
 62
     7
 10
78.5
 20
151.72499999999991
 30
0.0
 11
78.5
 21
151.67500000000001
 31
0.0
  0
LINE
  5
4D8
  8
0
  6
CONTINUOUS
 62
     7
 10
78.5
 20
151.77500000000001
 30
0.0
 11
78.5
 21
151.72499999999991
 31
0.0
  0
LINE
  5
4D9
  8
0
  6
CONTINUOUS
 62
     7
 10
78.5
 20
151.77500000000001
 30
0.0
 11
78.700000000000003
 21
151.77500000000001
 31
0.0
  0
LINE
  5
4DA
  8
0
  6
CONTINUOUS
 62
     7
 10
78.700000000000003
 20
151.77500000000001
 30
0.0
 11
78.700000000000003
 21
151.72499999999991
 31
0.0
  0
LINE
  5
4DB
  8
0
  6
CONTINUOUS
 62
     7
 10
78.700000000000003
 20
151.67500000000001
 30
0.0
 11
78.700000000000003
 21
151.72499999999991
 31
0.0
  0
LINE
  5
4DC
  8
0
  6
CONTINUOUS
 62
     7
 10
78.900000000000006
 20
151.67500000000001
 30
0.0
 11
78.900000000000006
 21
151.58782202110001
 31
0.0
  0
LINE
  5
4DD
  8
0
  6
CONTINUOUS
 62
     7
 10
78.900000000000006
 20
151.67500000000001
 30
0.0
 11
79.099999999999994
 21
151.67500000000001
 31
0.0
  0
LINE
  5
4DE
  8
0
  6
CONTINUOUS
 62
     7
 10
79.099999999999994
 20
151.58782202110001
 30
0.0
 11
79.099999999999994
 21
151.67500000000001
 31
0.0
  0
LINE
  5
4DF
  8
0
  6
CONTINUOUS
 62
     7
 10
79.099999999999994
 20
151.58782202110001
 30
0.0
 11
78.900000000000006
 21
151.58782202110001
 31
0.0
  0
LINE
  5
4E0
  8
0
  6
CONTINUOUS
 62
     7
 10
81.699999999999989
 20
151.58782202110001
 30
0.0
 11
81.699999999999989
 21
151.67500000000001
 31
0.0
  0
LINE
  5
4E1
  8
0
  6
CONTINUOUS
 62
     7
 10
81.900000000000006
 20
151.67500000000001
 30
0.0
 11
81.699999999999989
 21
151.67500000000001
 31
0.0
  0
LINE
  5
4E2
  8
0
  6
CONTINUOUS
 62
     7
 10
81.900000000000006
 20
151.67500000000001
 30
0.0
 11
81.900000000000006
 21
151.58782202110001
 31
0.0
  0
LINE
  5
4E3
  8
0
  6
CONTINUOUS
 62
     7
 10
81.900000000000006
 20
151.58782202110001
 30
0.0
 11
81.699999999999989
 21
151.58782202110001
 31
0.0
  0
LINE
  5
4E4
  8
0
  6
CONTINUOUS
 62
     7
 10
80.900000000000006
 20
151.58782202110001
 30
0.0
 11
80.900000000000006
 21
151.67500000000001
 31
0.0
  0
LINE
  5
4E5
  8
0
  6
CONTINUOUS
 62
     7
 10
81.099999999999994
 20
151.67500000000001
 30
0.0
 11
80.900000000000006
 21
151.67500000000001
 31
0.0
  0
LINE
  5
4E6
  8
0
  6
CONTINUOUS
 62
     7
 10
81.099999999999994
 20
151.67500000000001
 30
0.0
 11
81.099999999999994
 21
151.58782202110001
 31
0.0
  0
LINE
  5
4E7
  8
0
  6
CONTINUOUS
 62
     7
 10
81.099999999999994
 20
151.58782202110001
 30
0.0
 11
80.900000000000006
 21
151.58782202110001
 31
0.0
  0
LINE
  5
4E8
  8
0
  6
CONTINUOUS
 62
     7
 10
80.299999999999983
 20
151.86217797890001
 30
0.0
 11
80.299999999999983
 21
151.77500000000001
 31
0.0
  0
LINE
  5
4E9
  8
0
  6
CONTINUOUS
 62
     7
 10
80.099999999999994
 20
151.77500000000001
 30
0.0
 11
80.099999999999994
 21
151.86217797890001
 31
0.0
  0
LINE
  5
4EA
  8
0
  6
CONTINUOUS
 62
     7
 10
80.099999999999994
 20
151.86217797890001
 30
0.0
 11
80.299999999999983
 21
151.86217797890001
 31
0.0
  0
LINE
  5
4EB
  8
0
  6
CONTINUOUS
 62
     7
 10
78.700000000000003
 20
148.22499999999999
 30
0.0
 11
78.700000000000003
 21
148.27500000000001
 31
0.0
  0
LINE
  5
4EC
  8
0
  6
CONTINUOUS
 62
     7
 10
78.5
 20
148.22499999999999
 30
0.0
 11
78.700000000000003
 21
148.22499999999999
 31
0.0
  0
LINE
  5
4ED
  8
0
  6
CONTINUOUS
 62
     7
 10
78.5
 20
148.22499999999999
 30
0.0
 11
78.5
 21
148.27500000000001
 31
0.0
  0
LINE
  5
4EE
  8
0
  6
CONTINUOUS
 62
     7
 10
78.5
 20
148.27500000000001
 30
0.0
 11
78.5
 21
148.3249999999999
 31
0.0
  0
LINE
  5
4EF
  8
0
  6
CONTINUOUS
 62
     7
 10
78.5
 20
148.3249999999999
 30
0.0
 11
78.700000000000003
 21
148.3249999999999
 31
0.0
  0
LINE
  5
4F0
  8
0
  6
CONTINUOUS
 62
     7
 10
78.700000000000003
 20
148.3249999999999
 30
0.0
 11
78.700000000000003
 21
148.27500000000001
 31
0.0
  0
LINE
  5
4F1
  8
0
  6
CONTINUOUS
 62
     7
 10
80.299999999999983
 20
148.3249999999999
 30
0.0
 11
80.099999999999994
 21
148.3249999999999
 31
0.0
  0
LINE
  5
4F2
  8
0
  6
CONTINUOUS
 62
     7
 10
80.299999999999983
 20
148.27500000000001
 30
0.0
 11
80.299999999999983
 21
148.3249999999999
 31
0.0
  0
LINE
  5
4F3
  8
0
  6
CONTINUOUS
 62
     7
 10
80.299999999999983
 20
148.22499999999999
 30
0.0
 11
80.299999999999983
 21
148.27500000000001
 31
0.0
  0
LINE
  5
4F4
  8
0
  6
CONTINUOUS
 62
     7
 10
80.299999999999983
 20
148.22499999999999
 30
0.0
 11
80.099999999999994
 21
148.22499999999999
 31
0.0
  0
LINE
  5
4F5
  8
0
  6
CONTINUOUS
 62
     7
 10
80.099999999999994
 20
148.22499999999999
 30
0.0
 11
80.099999999999994
 21
148.27500000000001
 31
0.0
  0
LINE
  5
4F6
  8
0
  6
CONTINUOUS
 62
     7
 10
80.099999999999994
 20
148.3249999999999
 30
0.0
 11
80.099999999999994
 21
148.27500000000001
 31
0.0
  0
LINE
  5
4F7
  8
0
  6
CONTINUOUS
 62
     7
 10
80.700000000000003
 20
148.3249999999999
 30
0.0
 11
80.5
 21
148.3249999999999
 31
0.0
  0
LINE
  5
4F8
  8
0
  6
CONTINUOUS
 62
     7
 10
80.700000000000003
 20
148.27500000000001
 30
0.0
 11
80.700000000000003
 21
148.3249999999999
 31
0.0
  0
LINE
  5
4F9
  8
0
  6
CONTINUOUS
 62
     7
 10
80.700000000000003
 20
148.22499999999999
 30
0.0
 11
80.700000000000003
 21
148.27500000000001
 31
0.0
  0
LINE
  5
4FA
  8
0
  6
CONTINUOUS
 62
     7
 10
80.700000000000003
 20
148.22499999999999
 30
0.0
 11
80.5
 21
148.22499999999999
 31
0.0
  0
LINE
  5
4FB
  8
0
  6
CONTINUOUS
 62
     7
 10
80.5
 20
148.22499999999999
 30
0.0
 11
80.5
 21
148.27500000000001
 31
0.0
  0
LINE
  5
4FC
  8
0
  6
CONTINUOUS
 62
     7
 10
80.5
 20
148.3249999999999
 30
0.0
 11
80.5
 21
148.27500000000001
 31
0.0
  0
LINE
  5
4FD
  8
0
  6
CONTINUOUS
 62
     7
 10
78.099999999999994
 20
151.67500000000001
 30
0.0
 11
78.099999999999994
 21
151.58782202110001
 31
0.0
  0
LINE
  5
4FE
  8
0
  6
CONTINUOUS
 62
     7
 10
78.099999999999994
 20
151.67500000000001
 30
0.0
 11
78.299999999999997
 21
151.67500000000001
 31
0.0
  0
LINE
  5
4FF
  8
0
  6
CONTINUOUS
 62
     7
 10
78.299999999999997
 20
151.58782202110001
 30
0.0
 11
78.299999999999997
 21
151.67500000000001
 31
0.0
  0
LINE
  5
500
  8
0
  6
CONTINUOUS
 62
     7
 10
78.299999999999997
 20
151.58782202110001
 30
0.0
 11
78.099999999999994
 21
151.58782202110001
 31
0.0
  0
LINE
  5
501
  8
0
  6
CONTINUOUS
 62
     7
 10
79.299999999999983
 20
151.67500000000001
 30
0.0
 11
79.299999999999983
 21
151.58782202110001
 31
0.0
  0
LINE
  5
502
  8
0
  6
CONTINUOUS
 62
     7
 10
79.299999999999983
 20
151.67500000000001
 30
0.0
 11
79.5
 21
151.67500000000001
 31
0.0
  0
LINE
  5
503
  8
0
  6
CONTINUOUS
 62
     7
 10
79.5
 20
151.58782202110001
 30
0.0
 11
79.5
 21
151.67500000000001
 31
0.0
  0
LINE
  5
504
  8
0
  6
CONTINUOUS
 62
     7
 10
79.5
 20
151.58782202110001
 30
0.0
 11
79.299999999999983
 21
151.58782202110001
 31
0.0
  0
LINE
  5
505
  8
0
  6
CONTINUOUS
 62
     7
 10
80.099999999999994
 20
151.58782202110001
 30
0.0
 11
80.099999999999994
 21
151.67500000000001
 31
0.0
  0
LINE
  5
506
  8
0
  6
CONTINUOUS
 62
     7
 10
80.299999999999983
 20
151.67500000000001
 30
0.0
 11
80.299999999999983
 21
151.58782202110001
 31
0.0
  0
LINE
  5
507
  8
0
  6
CONTINUOUS
 62
     7
 10
80.299999999999983
 20
151.58782202110001
 30
0.0
 11
80.099999999999994
 21
151.58782202110001
 31
0.0
  0
LINE
  5
508
  8
0
  6
CONTINUOUS
 62
     7
 10
80.099999999999994
 20
148.22499999999999
 30
0.0
 11
80.099999999999994
 21
148.13782202109991
 31
0.0
  0
LINE
  5
509
  8
0
  6
CONTINUOUS
 62
     7
 10
80.299999999999983
 20
148.13782202109991
 30
0.0
 11
80.299999999999983
 21
148.22499999999999
 31
0.0
  0
LINE
  5
50A
  8
0
  6
CONTINUOUS
 62
     7
 10
80.299999999999983
 20
148.13782202109991
 30
0.0
 11
80.099999999999994
 21
148.13782202109991
 31
0.0
  0
LINE
  5
50B
  8
0
  6
CONTINUOUS
 62
     7
 10
80.700000000000003
 20
151.77500000000001
 30
0.0
 11
80.5
 21
151.77500000000001
 31
0.0
  0
LINE
  5
50C
  8
0
  6
CONTINUOUS
 62
     7
 10
80.5
 20
151.77500000000001
 30
0.0
 11
80.5
 21
151.86217797890001
 31
0.0
  0
LINE
  5
50D
  8
0
  6
CONTINUOUS
 62
     7
 10
80.5
 20
151.86217797890001
 30
0.0
 11
80.700000000000003
 21
151.86217797890001
 31
0.0
  0
LINE
  5
50E
  8
0
  6
CONTINUOUS
 62
     7
 10
80.700000000000003
 20
151.86217797890001
 30
0.0
 11
80.700000000000003
 21
151.77500000000001
 31
0.0
  0
LINE
  5
50F
  8
0
  6
CONTINUOUS
 62
     7
 10
81.900000000000006
 20
148.3249999999999
 30
0.0
 11
81.900000000000006
 21
148.4121779788999
 31
0.0
  0
LINE
  5
510
  8
0
  6
CONTINUOUS
 62
     7
 10
81.900000000000006
 20
148.3249999999999
 30
0.0
 11
81.699999999999989
 21
148.3249999999999
 31
0.0
  0
LINE
  5
511
  8
0
  6
CONTINUOUS
 62
     7
 10
81.699999999999989
 20
148.4121779788999
 30
0.0
 11
81.699999999999989
 21
148.3249999999999
 31
0.0
  0
LINE
  5
512
  8
0
  6
CONTINUOUS
 62
     7
 10
81.699999999999989
 20
148.4121779788999
 30
0.0
 11
81.900000000000006
 21
148.4121779788999
 31
0.0
  0
LINE
  5
513
  8
0
  6
CONTINUOUS
 62
     7
 10
78.099999999999994
 20
151.72499999999991
 30
0.0
 11
78.099999999999994
 21
151.67500000000001
 31
0.0
  0
LINE
  5
514
  8
0
  6
CONTINUOUS
 62
     7
 10
78.099999999999994
 20
151.77500000000001
 30
0.0
 11
78.099999999999994
 21
151.72499999999991
 31
0.0
  0
LINE
  5
515
  8
0
  6
CONTINUOUS
 62
     7
 10
78.099999999999994
 20
151.77500000000001
 30
0.0
 11
78.299999999999997
 21
151.77500000000001
 31
0.0
  0
LINE
  5
516
  8
0
  6
CONTINUOUS
 62
     7
 10
78.299999999999997
 20
151.77500000000001
 30
0.0
 11
78.299999999999997
 21
151.72499999999991
 31
0.0
  0
LINE
  5
517
  8
0
  6
CONTINUOUS
 62
     7
 10
78.299999999999997
 20
151.67500000000001
 30
0.0
 11
78.299999999999997
 21
151.72499999999991
 31
0.0
  0
LINE
  5
518
  8
0
  6
CONTINUOUS
 62
     7
 10
80.900000000000006
 20
151.77500000000001
 30
0.0
 11
80.900000000000006
 21
151.72499999999991
 31
0.0
  0
LINE
  5
519
  8
0
  6
CONTINUOUS
 62
     7
 10
81.099999999999994
 20
151.77500000000001
 30
0.0
 11
80.900000000000006
 21
151.77500000000001
 31
0.0
  0
LINE
  5
51A
  8
0
  6
CONTINUOUS
 62
     7
 10
81.099999999999994
 20
151.77500000000001
 30
0.0
 11
81.099999999999994
 21
151.72499999999991
 31
0.0
  0
LINE
  5
51B
  8
0
  6
CONTINUOUS
 62
     7
 10
81.099999999999994
 20
151.72499999999991
 30
0.0
 11
81.099999999999994
 21
151.67500000000001
 31
0.0
  0
LINE
  5
51C
  8
0
  6
CONTINUOUS
 62
     7
 10
80.900000000000006
 20
151.67500000000001
 30
0.0
 11
80.900000000000006
 21
151.72499999999991
 31
0.0
  0
LINE
  5
51D
  8
0
  6
CONTINUOUS
 62
     7
 10
80.5
 20
151.58782202110001
 30
0.0
 11
80.5
 21
151.67500000000001
 31
0.0
  0
LINE
  5
51E
  8
0
  6
CONTINUOUS
 62
     7
 10
80.700000000000003
 20
151.67500000000001
 30
0.0
 11
80.5
 21
151.67500000000001
 31
0.0
  0
LINE
  5
51F
  8
0
  6
CONTINUOUS
 62
     7
 10
80.700000000000003
 20
151.67500000000001
 30
0.0
 11
80.700000000000003
 21
151.58782202110001
 31
0.0
  0
LINE
  5
520
  8
0
  6
CONTINUOUS
 62
     7
 10
80.700000000000003
 20
151.58782202110001
 30
0.0
 11
80.5
 21
151.58782202110001
 31
0.0
  0
LINE
  5
521
  8
0
  6
CONTINUOUS
 62
     7
 10
79.5
 20
148.4121779788999
 30
0.0
 11
79.5
 21
148.3249999999999
 31
0.0
  0
LINE
  5
522
  8
0
  6
CONTINUOUS
 62
     7
 10
79.299999999999983
 20
148.3249999999999
 30
0.0
 11
79.5
 21
148.3249999999999
 31
0.0
  0
LINE
  5
523
  8
0
  6
CONTINUOUS
 62
     7
 10
79.299999999999983
 20
148.3249999999999
 30
0.0
 11
79.299999999999983
 21
148.4121779788999
 31
0.0
  0
LINE
  5
524
  8
0
  6
CONTINUOUS
 62
     7
 10
79.299999999999983
 20
148.4121779788999
 30
0.0
 11
79.5
 21
148.4121779788999
 31
0.0
  0
LINE
  5
525
  8
0
  6
CONTINUOUS
 62
     7
 10
80.700000000000003
 20
148.13782202109991
 30
0.0
 11
80.700000000000003
 21
148.22499999999999
 31
0.0
  0
LINE
  5
526
  8
0
  6
CONTINUOUS
 62
     7
 10
80.700000000000003
 20
148.13782202109991
 30
0.0
 11
80.5
 21
148.13782202109991
 31
0.0
  0
LINE
  5
527
  8
0
  6
CONTINUOUS
 62
     7
 10
80.5
 20
148.22499999999999
 30
0.0
 11
80.5
 21
148.13782202109991
 31
0.0
  0
LINE
  5
528
  8
0
  6
CONTINUOUS
 62
     7
 10
81.099999999999994
 20
148.3249999999999
 30
0.0
 11
80.900000000000006
 21
148.3249999999999
 31
0.0
  0
LINE
  5
529
  8
0
  6
CONTINUOUS
 62
     7
 10
81.099999999999994
 20
148.27500000000001
 30
0.0
 11
81.099999999999994
 21
148.3249999999999
 31
0.0
  0
LINE
  5
52A
  8
0
  6
CONTINUOUS
 62
     7
 10
81.099999999999994
 20
148.22499999999999
 30
0.0
 11
81.099999999999994
 21
148.27500000000001
 31
0.0
  0
LINE
  5
52B
  8
0
  6
CONTINUOUS
 62
     7
 10
81.099999999999994
 20
148.22499999999999
 30
0.0
 11
80.900000000000006
 21
148.22499999999999
 31
0.0
  0
LINE
  5
52C
  8
0
  6
CONTINUOUS
 62
     7
 10
80.900000000000006
 20
148.22499999999999
 30
0.0
 11
80.900000000000006
 21
148.27500000000001
 31
0.0
  0
LINE
  5
52D
  8
0
  6
CONTINUOUS
 62
     7
 10
80.900000000000006
 20
148.3249999999999
 30
0.0
 11
80.900000000000006
 21
148.27500000000001
 31
0.0
  0
LINE
  5
52E
  8
0
  6
CONTINUOUS
 62
     7
 10
78.299999999999997
 20
148.22499999999999
 30
0.0
 11
78.299999999999997
 21
148.27500000000001
 31
0.0
  0
LINE
  5
52F
  8
0
  6
CONTINUOUS
 62
     7
 10
78.099999999999994
 20
148.22499999999999
 30
0.0
 11
78.299999999999997
 21
148.22499999999999
 31
0.0
  0
LINE
  5
530
  8
0
  6
CONTINUOUS
 62
     7
 10
78.099999999999994
 20
148.22499999999999
 30
0.0
 11
78.099999999999994
 21
148.27500000000001
 31
0.0
  0
LINE
  5
531
  8
0
  6
CONTINUOUS
 62
     7
 10
78.099999999999994
 20
148.27500000000001
 30
0.0
 11
78.099999999999994
 21
148.3249999999999
 31
0.0
  0
LINE
  5
532
  8
0
  6
CONTINUOUS
 62
     7
 10
78.099999999999994
 20
148.3249999999999
 30
0.0
 11
78.299999999999997
 21
148.3249999999999
 31
0.0
  0
LINE
  5
533
  8
0
  6
CONTINUOUS
 62
     7
 10
78.299999999999997
 20
148.3249999999999
 30
0.0
 11
78.299999999999997
 21
148.27500000000001
 31
0.0
  0
LINE
  5
534
  8
0
  6
CONTINUOUS
 62
     7
 10
80.900000000000006
 20
151.77500000000001
 30
0.0
 11
80.900000000000006
 21
151.86217797890001
 31
0.0
  0
LINE
  5
535
  8
0
  6
CONTINUOUS
 62
     7
 10
80.900000000000006
 20
151.86217797890001
 30
0.0
 11
81.099999999999994
 21
151.86217797890001
 31
0.0
  0
LINE
  5
536
  8
0
  6
CONTINUOUS
 62
     7
 10
81.099999999999994
 20
151.86217797890001
 30
0.0
 11
81.099999999999994
 21
151.77500000000001
 31
0.0
  0
LINE
  5
537
  8
0
  6
CONTINUOUS
 62
     7
 10
80.700000000000003
 20
148.3249999999999
 30
0.0
 11
80.700000000000003
 21
148.4121779788999
 31
0.0
  0
LINE
  5
538
  8
0
  6
CONTINUOUS
 62
     7
 10
80.5
 20
148.4121779788999
 30
0.0
 11
80.700000000000003
 21
148.4121779788999
 31
0.0
  0
LINE
  5
539
  8
0
  6
CONTINUOUS
 62
     7
 10
80.5
 20
148.4121779788999
 30
0.0
 11
80.5
 21
148.3249999999999
 31
0.0
  0
LINE
  5
53A
  8
0
  6
CONTINUOUS
 62
     7
 10
78.5
 20
151.67500000000001
 30
0.0
 11
78.5
 21
151.58782202110001
 31
0.0
  0
LINE
  5
53B
  8
0
  6
CONTINUOUS
 62
     7
 10
78.700000000000003
 20
151.58782202110001
 30
0.0
 11
78.700000000000003
 21
151.67500000000001
 31
0.0
  0
LINE
  5
53C
  8
0
  6
CONTINUOUS
 62
     7
 10
78.700000000000003
 20
151.58782202110001
 30
0.0
 11
78.5
 21
151.58782202110001
 31
0.0
  0
LINE
  5
53D
  8
0
  6
CONTINUOUS
 62
     7
 10
81.299999999999997
 20
151.77500000000001
 30
0.0
 11
81.299999999999997
 21
151.72499999999991
 31
0.0
  0
LINE
  5
53E
  8
0
  6
CONTINUOUS
 62
     7
 10
81.5
 20
151.77500000000001
 30
0.0
 11
81.299999999999997
 21
151.77500000000001
 31
0.0
  0
LINE
  5
53F
  8
0
  6
CONTINUOUS
 62
     7
 10
81.5
 20
151.77500000000001
 30
0.0
 11
81.5
 21
151.72499999999991
 31
0.0
  0
LINE
  5
540
  8
0
  6
CONTINUOUS
 62
     7
 10
81.5
 20
151.72499999999991
 30
0.0
 11
81.5
 21
151.67500000000001
 31
0.0
  0
LINE
  5
541
  8
0
  6
CONTINUOUS
 62
     7
 10
81.5
 20
151.67500000000001
 30
0.0
 11
81.299999999999997
 21
151.67500000000001
 31
0.0
  0
LINE
  5
542
  8
0
  6
CONTINUOUS
 62
     7
 10
81.299999999999997
 20
151.67500000000001
 30
0.0
 11
81.299999999999997
 21
151.72499999999991
 31
0.0
  0
LINE
  5
543
  8
0
  6
CONTINUOUS
 62
     7
 10
77.700000000000003
 20
151.67500000000001
 30
0.0
 11
77.900000000000006
 21
151.67500000000001
 31
0.0
  0
LINE
  5
544
  8
0
  6
CONTINUOUS
 62
     7
 10
77.700000000000003
 20
151.72499999999991
 30
0.0
 11
77.700000000000003
 21
151.67500000000001
 31
0.0
  0
LINE
  5
545
  8
0
  6
CONTINUOUS
 62
     7
 10
77.700000000000003
 20
151.77500000000001
 30
0.0
 11
77.700000000000003
 21
151.72499999999991
 31
0.0
  0
LINE
  5
546
  8
0
  6
CONTINUOUS
 62
     7
 10
77.700000000000003
 20
151.77500000000001
 30
0.0
 11
77.900000000000006
 21
151.77500000000001
 31
0.0
  0
LINE
  5
547
  8
0
  6
CONTINUOUS
 62
     7
 10
77.900000000000006
 20
151.77500000000001
 30
0.0
 11
77.900000000000006
 21
151.72499999999991
 31
0.0
  0
LINE
  5
548
  8
0
  6
CONTINUOUS
 62
     7
 10
77.900000000000006
 20
151.67500000000001
 30
0.0
 11
77.900000000000006
 21
151.72499999999991
 31
0.0
  0
LINE
  5
549
  8
0
  6
CONTINUOUS
 62
     7
 10
81.099999999999994
 20
148.13782202109991
 30
0.0
 11
81.099999999999994
 21
148.22499999999999
 31
0.0
  0
LINE
  5
54A
  8
0
  6
CONTINUOUS
 62
     7
 10
81.099999999999994
 20
148.13782202109991
 30
0.0
 11
80.900000000000006
 21
148.13782202109991
 31
0.0
  0
LINE
  5
54B
  8
0
  6
CONTINUOUS
 62
     7
 10
80.900000000000006
 20
148.22499999999999
 30
0.0
 11
80.900000000000006
 21
148.13782202109991
 31
0.0
  0
LINE
  5
54C
  8
0
  6
CONTINUOUS
 62
     7
 10
79.700000000000003
 20
151.67500000000001
 30
0.0
 11
79.700000000000003
 21
151.58782202110001
 31
0.0
  0
LINE
  5
54D
  8
0
  6
CONTINUOUS
 62
     7
 10
79.700000000000003
 20
151.67500000000001
 30
0.0
 11
79.900000000000006
 21
151.67500000000001
 31
0.0
  0
LINE
  5
54E
  8
0
  6
CONTINUOUS
 62
     7
 10
79.900000000000006
 20
151.58782202110001
 30
0.0
 11
79.900000000000006
 21
151.67500000000001
 31
0.0
  0
LINE
  5
54F
  8
0
  6
CONTINUOUS
 62
     7
 10
79.900000000000006
 20
151.58782202110001
 30
0.0
 11
79.700000000000003
 21
151.58782202110001
 31
0.0
  0
LINE
  5
550
  8
0
  6
CONTINUOUS
 62
     7
 10
79.099999999999994
 20
148.4121779788999
 30
0.0
 11
79.099999999999994
 21
148.3249999999999
 31
0.0
  0
LINE
  5
551
  8
0
  6
CONTINUOUS
 62
     7
 10
78.900000000000006
 20
148.3249999999999
 30
0.0
 11
78.900000000000006
 21
148.4121779788999
 31
0.0
  0
LINE
  5
552
  8
0
  6
CONTINUOUS
 62
     7
 10
78.900000000000006
 20
148.4121779788999
 30
0.0
 11
79.099999999999994
 21
148.4121779788999
 31
0.0
  0
LINE
  5
553
  8
0
  6
CONTINUOUS
 62
     7
 10
77.900000000000006
 20
148.22499999999999
 30
0.0
 11
77.900000000000006
 21
148.27500000000001
 31
0.0
  0
LINE
  5
554
  8
0
  6
CONTINUOUS
 62
     7
 10
77.700000000000003
 20
148.22499999999999
 30
0.0
 11
77.900000000000006
 21
148.22499999999999
 31
0.0
  0
LINE
  5
555
  8
0
  6
CONTINUOUS
 62
     7
 10
77.700000000000003
 20
148.22499999999999
 30
0.0
 11
77.700000000000003
 21
148.27500000000001
 31
0.0
  0
LINE
  5
556
  8
0
  6
CONTINUOUS
 62
     7
 10
77.700000000000003
 20
148.27500000000001
 30
0.0
 11
77.700000000000003
 21
148.3249999999999
 31
0.0
  0
LINE
  5
557
  8
0
  6
CONTINUOUS
 62
     7
 10
77.700000000000003
 20
148.3249999999999
 30
0.0
 11
77.900000000000006
 21
148.3249999999999
 31
0.0
  0
LINE
  5
558
  8
0
  6
CONTINUOUS
 62
     7
 10
77.900000000000006
 20
148.3249999999999
 30
0.0
 11
77.900000000000006
 21
148.27500000000001
 31
0.0
  0
LINE
  5
559
  8
0
  6
CONTINUOUS
 62
     7
 10
81.5
 20
148.3249999999999
 30
0.0
 11
81.299999999999997
 21
148.3249999999999
 31
0.0
  0
LINE
  5
55A
  8
0
  6
CONTINUOUS
 62
     7
 10
81.5
 20
148.27500000000001
 30
0.0
 11
81.5
 21
148.3249999999999
 31
0.0
  0
LINE
  5
55B
  8
0
  6
CONTINUOUS
 62
     7
 10
81.5
 20
148.22499999999999
 30
0.0
 11
81.5
 21
148.27500000000001
 31
0.0
  0
LINE
  5
55C
  8
0
  6
CONTINUOUS
 62
     7
 10
81.5
 20
148.22499999999999
 30
0.0
 11
81.299999999999997
 21
148.22499999999999
 31
0.0
  0
LINE
  5
55D
  8
0
  6
CONTINUOUS
 62
     7
 10
81.299999999999997
 20
148.22499999999999
 30
0.0
 11
81.299999999999997
 21
148.27500000000001
 31
0.0
  0
LINE
  5
55E
  8
0
  6
CONTINUOUS
 62
     7
 10
81.299999999999997
 20
148.3249999999999
 30
0.0
 11
81.299999999999997
 21
148.27500000000001
 31
0.0
  0
LINE
  5
55F
  8
0
  6
CONTINUOUS
 62
     7
 10
81.299999999999997
 20
151.77500000000001
 30
0.0
 11
81.299999999999997
 21
151.86217797890001
 31
0.0
  0
LINE
  5
560
  8
0
  6
CONTINUOUS
 62
     7
 10
81.299999999999997
 20
151.86217797890001
 30
0.0
 11
81.5
 21
151.86217797890001
 31
0.0
  0
LINE
  5
561
  8
0
  6
CONTINUOUS
 62
     7
 10
81.5
 20
151.86217797890001
 30
0.0
 11
81.5
 21
151.77500000000001
 31
0.0
  0
LINE
  5
562
  8
0
  6
CONTINUOUS
 62
     7
 10
81.099999999999994
 20
148.3249999999999
 30
0.0
 11
81.099999999999994
 21
148.4121779788999
 31
0.0
  0
LINE
  5
563
  8
0
  6
CONTINUOUS
 62
     7
 10
80.900000000000006
 20
148.4121779788999
 30
0.0
 11
81.099999999999994
 21
148.4121779788999
 31
0.0
  0
LINE
  5
564
  8
0
  6
CONTINUOUS
 62
     7
 10
80.900000000000006
 20
148.4121779788999
 30
0.0
 11
80.900000000000006
 21
148.3249999999999
 31
0.0
  0
LINE
  5
565
  8
0
  6
CONTINUOUS
 62
     7
 10
77.700000000000003
 20
151.67500000000001
 30
0.0
 11
77.700000000000003
 21
151.58782202110001
 31
0.0
  0
LINE
  5
566
  8
0
  6
CONTINUOUS
 62
     7
 10
77.900000000000006
 20
151.58782202110001
 30
0.0
 11
77.700000000000003
 21
151.58782202110001
 31
0.0
  0
LINE
  5
567
  8
0
  6
CONTINUOUS
 62
     7
 10
77.900000000000006
 20
151.58782202110001
 30
0.0
 11
77.900000000000006
 21
151.67500000000001
 31
0.0
  0
LINE
  5
568
  8
0
  6
CONTINUOUS
 62
     7
 10
78.700000000000003
 20
148.4121779788999
 30
0.0
 11
78.700000000000003
 21
148.3249999999999
 31
0.0
  0
LINE
  5
569
  8
0
  6
CONTINUOUS
 62
     7
 10
78.5
 20
148.4121779788999
 30
0.0
 11
78.700000000000003
 21
148.4121779788999
 31
0.0
  0
LINE
  5
56A
  8
0
  6
CONTINUOUS
 62
     7
 10
78.5
 20
148.3249999999999
 30
0.0
 11
78.5
 21
148.4121779788999
 31
0.0
  0
LINE
  5
56B
  8
0
  6
CONTINUOUS
 62
     7
 10
81.5
 20
148.13782202109991
 30
0.0
 11
81.5
 21
148.22499999999999
 31
0.0
  0
LINE
  5
56C
  8
0
  6
CONTINUOUS
 62
     7
 10
81.5
 20
148.13782202109991
 30
0.0
 11
81.299999999999997
 21
148.13782202109991
 31
0.0
  0
LINE
  5
56D
  8
0
  6
CONTINUOUS
 62
     7
 10
81.299999999999997
 20
148.22499999999999
 30
0.0
 11
81.299999999999997
 21
148.13782202109991
 31
0.0
  0
LINE
  5
56E
  8
0
  6
CONTINUOUS
 62
     7
 10
81.299999999999997
 20
151.58782202110001
 30
0.0
 11
81.299999999999997
 21
151.67500000000001
 31
0.0
  0
LINE
  5
56F
  8
0
  6
CONTINUOUS
 62
     7
 10
81.5
 20
151.58782202110001
 30
0.0
 11
81.299999999999997
 21
151.58782202110001
 31
0.0
  0
LINE
  5
570
  8
0
  6
CONTINUOUS
 62
     7
 10
81.5
 20
151.67500000000001
 30
0.0
 11
81.5
 21
151.58782202110001
 31
0.0
  0
LINE
  5
571
  8
0
  6
CONTINUOUS
 62
     7
 10
78.299999999999997
 20
148.4121779788999
 30
0.0
 11
78.299999999999997
 21
148.3249999999999
 31
0.0
  0
LINE
  5
572
  8
0
  6
CONTINUOUS
 62
     7
 10
78.099999999999994
 20
148.4121779788999
 30
0.0
 11
78.299999999999997
 21
148.4121779788999
 31
0.0
  0
LINE
  5
573
  8
0
  6
CONTINUOUS
 62
     7
 10
78.099999999999994
 20
148.3249999999999
 30
0.0
 11
78.099999999999994
 21
148.4121779788999
 31
0.0
  0
LINE
  5
574
  8
0
  6
CONTINUOUS
 62
     7
 10
81.900000000000006
 20
148.27500000000001
 30
0.0
 11
81.900000000000006
 21
148.3249999999999
 31
0.0
  0
LINE
  5
575
  8
0
  6
CONTINUOUS
 62
     7
 10
81.900000000000006
 20
148.22499999999999
 30
0.0
 11
81.900000000000006
 21
148.27500000000001
 31
0.0
  0
LINE
  5
576
  8
0
  6
CONTINUOUS
 62
     7
 10
81.900000000000006
 20
148.22499999999999
 30
0.0
 11
81.699999999999989
 21
148.22499999999999
 31
0.0
  0
LINE
  5
577
  8
0
  6
CONTINUOUS
 62
     7
 10
81.699999999999989
 20
148.22499999999999
 30
0.0
 11
81.699999999999989
 21
148.27500000000001
 31
0.0
  0
LINE
  5
578
  8
0
  6
CONTINUOUS
 62
     7
 10
81.699999999999989
 20
148.3249999999999
 30
0.0
 11
81.699999999999989
 21
148.27500000000001
 31
0.0
  0
LINE
  5
579
  8
0
  6
CONTINUOUS
 62
     7
 10
81.5
 20
148.3249999999999
 30
0.0
 11
81.5
 21
148.4121779788999
 31
0.0
  0
LINE
  5
57A
  8
0
  6
CONTINUOUS
 62
     7
 10
81.299999999999997
 20
148.4121779788999
 30
0.0
 11
81.5
 21
148.4121779788999
 31
0.0
  0
LINE
  5
57B
  8
0
  6
CONTINUOUS
 62
     7
 10
81.299999999999997
 20
148.4121779788999
 30
0.0
 11
81.299999999999997
 21
148.3249999999999
 31
0.0
  0
LINE
  5
57C
  8
0
  6
CONTINUOUS
 62
     7
 10
81.900000000000006
 20
151.77500000000001
 30
0.0
 11
81.699999999999989
 21
151.77500000000001
 31
0.0
  0
LINE
  5
57D
  8
0
  6
CONTINUOUS
 62
     7
 10
81.699999999999989
 20
151.77500000000001
 30
0.0
 11
81.699999999999989
 21
151.86217797890001
 31
0.0
  0
LINE
  5
57E
  8
0
  6
CONTINUOUS
 62
     7
 10
81.699999999999989
 20
151.86217797890001
 30
0.0
 11
81.900000000000006
 21
151.86217797890001
 31
0.0
  0
LINE
  5
57F
  8
0
  6
CONTINUOUS
 62
     7
 10
81.900000000000006
 20
151.86217797890001
 30
0.0
 11
81.900000000000006
 21
151.77500000000001
 31
0.0
  0
LINE
  5
580
  8
0
  6
CONTINUOUS
 62
     7
 10
79.099999999999994
 20
151.77500000000001
 30
0.0
 11
79.099999999999994
 21
151.86217797890001
 31
0.0
  0
LINE
  5
581
  8
0
  6
CONTINUOUS
 62
     7
 10
78.900000000000006
 20
151.77500000000001
 30
0.0
 11
79.099999999999994
 21
151.77500000000001
 31
0.0
  0
LINE
  5
582
  8
0
  6
CONTINUOUS
 62
     7
 10
78.900000000000006
 20
151.86217797890001
 30
0.0
 11
78.900000000000006
 21
151.77500000000001
 31
0.0
  0
LINE
  5
583
  8
0
  6
CONTINUOUS
 62
     7
 10
78.900000000000006
 20
151.86217797890001
 30
0.0
 11
79.099999999999994
 21
151.86217797890001
 31
0.0
  0
LINE
  5
584
  8
0
  6
CONTINUOUS
 62
     7
 10
77.900000000000006
 20
148.4121779788999
 30
0.0
 11
77.900000000000006
 21
148.3249999999999
 31
0.0
  0
LINE
  5
585
  8
0
  6
CONTINUOUS
 62
     7
 10
77.700000000000003
 20
148.4121779788999
 30
0.0
 11
77.900000000000006
 21
148.4121779788999
 31
0.0
  0
LINE
  5
586
  8
0
  6
CONTINUOUS
 62
     7
 10
77.700000000000003
 20
148.3249999999999
 30
0.0
 11
77.700000000000003
 21
148.4121779788999
 31
0.0
  0
LINE
  5
587
  8
0
  6
CONTINUOUS
 62
     7
 10
81.699999999999989
 20
148.22499999999999
 30
0.0
 11
81.699999999999989
 21
148.13782202109991
 31
0.0
  0
LINE
  5
588
  8
0
  6
CONTINUOUS
 62
     7
 10
81.900000000000006
 20
148.13782202109991
 30
0.0
 11
81.900000000000006
 21
148.22499999999999
 31
0.0
  0
LINE
  5
589
  8
0
  6
CONTINUOUS
 62
     7
 10
81.900000000000006
 20
148.13782202109991
 30
0.0
 11
81.699999999999989
 21
148.13782202109991
 31
0.0
  0
LINE
  5
58A
  8
0
  6
CONTINUOUS
 62
     7
 10
82.299999999999997
 20
148.3249999999999
 30
0.0
 11
82.099999999999994
 21
148.3249999999999
 31
0.0
  0
LINE
  5
58B
  8
0
  6
CONTINUOUS
 62
     7
 10
82.299999999999997
 20
148.27500000000001
 30
0.0
 11
82.299999999999997
 21
148.3249999999999
 31
0.0
  0
LINE
  5
58C
  8
0
  6
CONTINUOUS
 62
     7
 10
82.299999999999997
 20
148.22499999999999
 30
0.0
 11
82.299999999999997
 21
148.27500000000001
 31
0.0
  0
LINE
  5
58D
  8
0
  6
CONTINUOUS
 62
     7
 10
82.299999999999997
 20
148.22499999999999
 30
0.0
 11
82.099999999999994
 21
148.22499999999999
 31
0.0
  0
LINE
  5
58E
  8
0
  6
CONTINUOUS
 62
     7
 10
82.099999999999994
 20
148.22499999999999
 30
0.0
 11
82.099999999999994
 21
148.27500000000001
 31
0.0
  0
LINE
  5
58F
  8
0
  6
CONTINUOUS
 62
     7
 10
82.099999999999994
 20
148.3249999999999
 30
0.0
 11
82.099999999999994
 21
148.27500000000001
 31
0.0
  0
LINE
  5
590
  8
0
  6
CONTINUOUS
 62
     7
 10
82.299999999999997
 20
151.86217797890001
 30
0.0
 11
82.299999999999997
 21
151.77500000000001
 31
0.0
  0
LINE
  5
591
  8
0
  6
CONTINUOUS
 62
     7
 10
82.299999999999997
 20
151.77500000000001
 30
0.0
 11
82.099999999999994
 21
151.77500000000001
 31
0.0
  0
LINE
  5
592
  8
0
  6
CONTINUOUS
 62
     7
 10
82.099999999999994
 20
151.77500000000001
 30
0.0
 11
82.099999999999994
 21
151.86217797890001
 31
0.0
  0
LINE
  5
593
  8
0
  6
CONTINUOUS
 62
     7
 10
82.099999999999994
 20
151.86217797890001
 30
0.0
 11
82.299999999999997
 21
151.86217797890001
 31
0.0
  0
LINE
  5
594
  8
0
  6
CONTINUOUS
 62
     7
 10
80.299999999999983
 20
148.3249999999999
 30
0.0
 11
80.299999999999983
 21
148.4121779788999
 31
0.0
  0
LINE
  5
595
  8
0
  6
CONTINUOUS
 62
     7
 10
80.099999999999994
 20
148.4121779788999
 30
0.0
 11
80.299999999999983
 21
148.4121779788999
 31
0.0
  0
LINE
  5
596
  8
0
  6
CONTINUOUS
 62
     7
 10
80.099999999999994
 20
148.4121779788999
 30
0.0
 11
80.099999999999994
 21
148.3249999999999
 31
0.0
  0
LINE
  5
597
  8
0
  6
CONTINUOUS
 62
     7
 10
80.700000000000003
 20
151.72499999999991
 30
0.0
 11
80.700000000000003
 21
151.67500000000001
 31
0.0
  0
LINE
  5
598
  8
0
  6
CONTINUOUS
 62
     7
 10
80.5
 20
151.67500000000001
 30
0.0
 11
80.5
 21
151.72499999999991
 31
0.0
  0
LINE
  5
599
  8
0
  6
CONTINUOUS
 62
     7
 10
80.5
 20
151.77500000000001
 30
0.0
 11
80.5
 21
151.72499999999991
 31
0.0
  0
LINE
  5
59A
  8
0
  6
CONTINUOUS
 62
     7
 10
80.700000000000003
 20
151.77500000000001
 30
0.0
 11
80.700000000000003
 21
151.72499999999991
 31
0.0
  0
LINE
  5
59B
  8
0
  6
CONTINUOUS
 62
     7
 10
79.700000000000003
 20
151.72499999999991
 30
0.0
 11
79.700000000000003
 21
151.67500000000001
 31
0.0
  0
LINE
  5
59C
  8
0
  6
CONTINUOUS
 62
     7
 10
79.700000000000003
 20
151.77500000000001
 30
0.0
 11
79.700000000000003
 21
151.72499999999991
 31
0.0
  0
LINE
  5
59D
  8
0
  6
CONTINUOUS
 62
     7
 10
79.700000000000003
 20
151.77500000000001
 30
0.0
 11
79.900000000000006
 21
151.77500000000001
 31
0.0
  0
LINE
  5
59E
  8
0
  6
CONTINUOUS
 62
     7
 10
79.900000000000006
 20
151.77500000000001
 30
0.0
 11
79.900000000000006
 21
151.72499999999991
 31
0.0
  0
LINE
  5
59F
  8
0
  6
CONTINUOUS
 62
     7
 10
79.900000000000006
 20
151.67500000000001
 30
0.0
 11
79.900000000000006
 21
151.72499999999991
 31
0.0
  0
LINE
  5
5A0
  8
0
  6
CONTINUOUS
 62
     7
 10
82.099999999999994
 20
151.58782202110001
 30
0.0
 11
82.099999999999994
 21
151.67500000000001
 31
0.0
  0
LINE
  5
5A1
  8
0
  6
CONTINUOUS
 62
     7
 10
82.299999999999997
 20
151.67500000000001
 30
0.0
 11
82.099999999999994
 21
151.67500000000001
 31
0.0
  0
LINE
  5
5A2
  8
0
  6
CONTINUOUS
 62
     7
 10
82.299999999999997
 20
151.67500000000001
 30
0.0
 11
82.299999999999997
 21
151.58782202110001
 31
0.0
  0
LINE
  5
5A3
  8
0
  6
CONTINUOUS
 62
     7
 10
82.299999999999997
 20
151.58782202110001
 30
0.0
 11
82.099999999999994
 21
151.58782202110001
 31
0.0
  0
LINE
  5
5A4
  8
0
  6
CONTINUOUS
 62
     7
 10
82.299999999999997
 20
148.13782202109991
 30
0.0
 11
82.299999999999997
 21
148.22499999999999
 31
0.0
  0
LINE
  5
5A5
  8
0
  6
CONTINUOUS
 62
     7
 10
82.299999999999997
 20
148.13782202109991
 30
0.0
 11
82.099999999999994
 21
148.13782202109991
 31
0.0
  0
LINE
  5
5A6
  8
0
  6
CONTINUOUS
 62
     7
 10
82.099999999999994
 20
148.22499999999999
 30
0.0
 11
82.099999999999994
 21
148.13782202109991
 31
0.0
  0
LINE
  5
5A7
  8
0
  6
CONTINUOUS
 62
     7
 10
79.900000000000006
 20
148.22499999999999
 30
0.0
 11
79.900000000000006
 21
148.27500000000001
 31
0.0
  0
LINE
  5
5A8
  8
0
  6
CONTINUOUS
 62
     7
 10
79.700000000000003
 20
148.22499999999999
 30
0.0
 11
79.900000000000006
 21
148.22499999999999
 31
0.0
  0
LINE
  5
5A9
  8
0
  6
CONTINUOUS
 62
     7
 10
79.700000000000003
 20
148.22499999999999
 30
0.0
 11
79.700000000000003
 21
148.27500000000001
 31
0.0
  0
LINE
  5
5AA
  8
0
  6
CONTINUOUS
 62
     7
 10
79.700000000000003
 20
148.27500000000001
 30
0.0
 11
79.700000000000003
 21
148.3249999999999
 31
0.0
  0
LINE
  5
5AB
  8
0
  6
CONTINUOUS
 62
     7
 10
79.700000000000003
 20
148.3249999999999
 30
0.0
 11
79.900000000000006
 21
148.3249999999999
 31
0.0
  0
LINE
  5
5AC
  8
0
  6
CONTINUOUS
 62
     7
 10
79.900000000000006
 20
148.3249999999999
 30
0.0
 11
79.900000000000006
 21
148.27500000000001
 31
0.0
  0
LINE
  5
5AD
  8
0
  6
CONTINUOUS
 62
     7
 10
82.299999999999997
 20
148.3249999999999
 30
0.0
 11
82.299999999999997
 21
148.4121779788999
 31
0.0
  0
LINE
  5
5AE
  8
0
  6
CONTINUOUS
 62
     7
 10
82.099999999999994
 20
148.4121779788999
 30
0.0
 11
82.299999999999997
 21
148.4121779788999
 31
0.0
  0
LINE
  5
5AF
  8
0
  6
CONTINUOUS
 62
     7
 10
82.099999999999994
 20
148.4121779788999
 30
0.0
 11
82.099999999999994
 21
148.3249999999999
 31
0.0
  0
LINE
  5
5B0
  8
0
  6
CONTINUOUS
 62
     7
 10
79.700000000000003
 20
151.86217797890001
 30
0.0
 11
79.700000000000003
 21
151.77500000000001
 31
0.0
  0
LINE
  5
5B1
  8
0
  6
CONTINUOUS
 62
     7
 10
79.700000000000003
 20
151.86217797890001
 30
0.0
 11
79.900000000000006
 21
151.86217797890001
 31
0.0
  0
LINE
  5
5B2
  8
0
  6
CONTINUOUS
 62
     7
 10
79.900000000000006
 20
151.77500000000001
 30
0.0
 11
79.900000000000006
 21
151.86217797890001
 31
0.0
  0
LINE
  5
5B3
  8
0
  6
CONTINUOUS
 62
     7
 10
79.900000000000006
 20
148.22499999999999
 30
0.0
 11
79.900000000000006
 21
148.13782202109991
 31
0.0
  0
LINE
  5
5B4
  8
0
  6
CONTINUOUS
 62
     7
 10
79.900000000000006
 20
148.13782202109991
 30
0.0
 11
79.700000000000003
 21
148.13782202109991
 31
0.0
  0
LINE
  5
5B5
  8
0
  6
CONTINUOUS
 62
     7
 10
79.700000000000003
 20
148.13782202109991
 30
0.0
 11
79.700000000000003
 21
148.22499999999999
 31
0.0
  0
LINE
  5
5B6
  8
0
  6
CONTINUOUS
 62
     7
 10
78.299999999999997
 20
151.77500000000001
 30
0.0
 11
78.299999999999997
 21
151.86217797890001
 31
0.0
  0
LINE
  5
5B7
  8
0
  6
CONTINUOUS
 62
     7
 10
78.099999999999994
 20
151.86217797890001
 30
0.0
 11
78.099999999999994
 21
151.77500000000001
 31
0.0
  0
LINE
  5
5B8
  8
0
  6
CONTINUOUS
 62
     7
 10
78.099999999999994
 20
151.86217797890001
 30
0.0
 11
78.299999999999997
 21
151.86217797890001
 31
0.0
  0
LINE
  5
5B9
  8
0
  6
CONTINUOUS
 62
     7
 10
79.900000000000006
 20
148.4121779788999
 30
0.0
 11
79.900000000000006
 21
148.3249999999999
 31
0.0
  0
LINE
  5
5BA
  8
0
  6
CONTINUOUS
 62
     7
 10
79.700000000000003
 20
148.4121779788999
 30
0.0
 11
79.900000000000006
 21
148.4121779788999
 31
0.0
  0
LINE
  5
5BB
  8
0
  6
CONTINUOUS
 62
     7
 10
79.700000000000003
 20
148.3249999999999
 30
0.0
 11
79.700000000000003
 21
148.4121779788999
 31
0.0
  0
LINE
  5
5BC
  8
0
  6
CONTINUOUS
 62
     7
 10
79.299999999999983
 20
151.77500000000001
 30
0.0
 11
79.5
 21
151.77500000000001
 31
0.0
  0
LINE
  5
5BD
  8
0
  6
CONTINUOUS
 62
     7
 10
79.5
 20
151.77500000000001
 30
0.0
 11
79.5
 21
151.72499999999991
 31
0.0
  0
LINE
  5
5BE
  8
0
  6
CONTINUOUS
 62
     7
 10
79.299999999999983
 20
151.72499999999991
 30
0.0
 11
79.299999999999983
 21
151.67500000000001
 31
0.0
  0
LINE
  5
5BF
  8
0
  6
CONTINUOUS
 62
     7
 10
79.5
 20
151.67500000000001
 30
0.0
 11
79.5
 21
151.72499999999991
 31
0.0
  0
LINE
  5
5C0
  8
0
  6
CONTINUOUS
 62
     7
 10
79.299999999999983
 20
151.77500000000001
 30
0.0
 11
79.299999999999983
 21
151.72499999999991
 31
0.0
  0
LINE
  5
5C1
  8
0
  6
CONTINUOUS
 62
     7
 10
79.299999999999983
 20
151.86217797890001
 30
0.0
 11
79.5
 21
151.86217797890001
 31
0.0
  0
LINE
  5
5C2
  8
0
  6
CONTINUOUS
 62
     7
 10
79.5
 20
151.77500000000001
 30
0.0
 11
79.5
 21
151.86217797890001
 31
0.0
  0
LINE
  5
5C3
  8
0
  6
CONTINUOUS
 62
     7
 10
79.299999999999983
 20
151.86217797890001
 30
0.0
 11
79.299999999999983
 21
151.77500000000001
 31
0.0
  0
LINE
  5
5C4
  8
0
  6
CONTINUOUS
 62
     7
 10
79.299999999999983
 20
148.22499999999999
 30
0.0
 11
79.5
 21
148.22499999999999
 31
0.0
  0
LINE
  5
5C5
  8
0
  6
CONTINUOUS
 62
     7
 10
79.299999999999983
 20
148.22499999999999
 30
0.0
 11
79.299999999999983
 21
148.27500000000001
 31
0.0
  0
LINE
  5
5C6
  8
0
  6
CONTINUOUS
 62
     7
 10
79.5
 20
148.3249999999999
 30
0.0
 11
79.5
 21
148.27500000000001
 31
0.0
  0
LINE
  5
5C7
  8
0
  6
CONTINUOUS
 62
     7
 10
79.299999999999983
 20
148.27500000000001
 30
0.0
 11
79.299999999999983
 21
148.3249999999999
 31
0.0
  0
LINE
  5
5C8
  8
0
  6
CONTINUOUS
 62
     7
 10
79.5
 20
148.22499999999999
 30
0.0
 11
79.5
 21
148.27500000000001
 31
0.0
  0
LINE
  5
5C9
  8
0
  6
CONTINUOUS
 62
     7
 10
78.900000000000006
 20
151.72499999999991
 30
0.0
 11
78.900000000000006
 21
151.67500000000001
 31
0.0
  0
LINE
  5
5CA
  8
0
  6
CONTINUOUS
 62
     7
 10
78.900000000000006
 20
151.77500000000001
 30
0.0
 11
78.900000000000006
 21
151.72499999999991
 31
0.0
  0
LINE
  5
5CB
  8
0
  6
CONTINUOUS
 62
     7
 10
79.099999999999994
 20
151.77500000000001
 30
0.0
 11
79.099999999999994
 21
151.72499999999991
 31
0.0
  0
LINE
  5
5CC
  8
0
  6
CONTINUOUS
 62
     7
 10
79.099999999999994
 20
151.67500000000001
 30
0.0
 11
79.099999999999994
 21
151.72499999999991
 31
0.0
  0
LINE
  5
5CD
  8
0
  6
CONTINUOUS
 62
     7
 10
79.5
 20
148.13782202109991
 30
0.0
 11
79.299999999999983
 21
148.13782202109991
 31
0.0
  0
LINE
  5
5CE
  8
0
  6
CONTINUOUS
 62
     7
 10
79.299999999999983
 20
148.13782202109991
 30
0.0
 11
79.299999999999983
 21
148.22499999999999
 31
0.0
  0
LINE
  5
5CF
  8
0
  6
CONTINUOUS
 62
     7
 10
79.5
 20
148.22499999999999
 30
0.0
 11
79.5
 21
148.13782202109991
 31
0.0
  0
LINE
  5
5D0
  8
0
  6
CONTINUOUS
 62
     7
 10
78.700000000000003
 20
151.77500000000001
 30
0.0
 11
78.700000000000003
 21
151.86217797890001
 31
0.0
  0
LINE
  5
5D1
  8
0
  6
CONTINUOUS
 62
     7
 10
78.5
 20
151.86217797890001
 30
0.0
 11
78.5
 21
151.77500000000001
 31
0.0
  0
LINE
  5
5D2
  8
0
  6
CONTINUOUS
 62
     7
 10
78.5
 20
151.86217797890001
 30
0.0
 11
78.700000000000003
 21
151.86217797890001
 31
0.0
  0
LINE
  5
5D3
  8
0
  6
CONTINUOUS
 62
     7
 10
78.900000000000006
 20
148.13782202109991
 30
0.0
 11
78.900000000000006
 21
148.22499999999999
 31
0.0
  0
LINE
  5
5D4
  8
0
  6
CONTINUOUS
 62
     7
 10
79.099999999999994
 20
148.22499999999999
 30
0.0
 11
79.099999999999994
 21
148.13782202109991
 31
0.0
  0
LINE
  5
5D5
  8
0
  6
CONTINUOUS
 62
     7
 10
79.099999999999994
 20
148.13782202109991
 30
0.0
 11
78.900000000000006
 21
148.13782202109991
 31
0.0
  0
LINE
  5
5D6
  8
0
  6
CONTINUOUS
 62
     7
 10
82.299999999999997
 20
151.77500000000001
 30
0.0
 11
82.299999999999997
 21
151.72499999999991
 31
0.0
  0
LINE
  5
5D7
  8
0
  6
CONTINUOUS
 62
     7
 10
82.299999999999997
 20
151.72499999999991
 30
0.0
 11
82.299999999999997
 21
151.67500000000001
 31
0.0
  0
LINE
  5
5D8
  8
0
  6
CONTINUOUS
 62
     7
 10
82.099999999999994
 20
151.67500000000001
 30
0.0
 11
82.099999999999994
 21
151.72499999999991
 31
0.0
  0
LINE
  5
5D9
  8
0
  6
CONTINUOUS
 62
     7
 10
82.099999999999994
 20
151.77500000000001
 30
0.0
 11
82.099999999999994
 21
151.72499999999991
 31
0.0
  0
LINE
  5
5DA
  8
0
  6
CONTINUOUS
 62
     7
 10
77.900000000000006
 20
151.77500000000001
 30
0.0
 11
77.900000000000006
 21
151.86217797890001
 31
0.0
  0
LINE
  5
5DB
  8
0
  6
CONTINUOUS
 62
     7
 10
77.700000000000003
 20
151.86217797890001
 30
0.0
 11
77.700000000000003
 21
151.77500000000001
 31
0.0
  0
LINE
  5
5DC
  8
0
  6
CONTINUOUS
 62
     7
 10
77.700000000000003
 20
151.86217797890001
 30
0.0
 11
77.900000000000006
 21
151.86217797890001
 31
0.0
  0
LINE
  5
5DD
  8
0
  6
CONTINUOUS
 62
     7
 10
78.5
 20
148.13782202109991
 30
0.0
 11
78.5
 21
148.22499999999999
 31
0.0
  0
LINE
  5
5DE
  8
0
  6
CONTINUOUS
 62
     7
 10
78.700000000000003
 20
148.13782202109991
 30
0.0
 11
78.5
 21
148.13782202109991
 31
0.0
  0
LINE
  5
5DF
  8
0
  6
CONTINUOUS
 62
     7
 10
78.700000000000003
 20
148.22499999999999
 30
0.0
 11
78.700000000000003
 21
148.13782202109991
 31
0.0
  0
LINE
  5
5E0
  8
0
  6
CONTINUOUS
 62
     7
 10
78.099999999999994
 20
148.13782202109991
 30
0.0
 11
78.099999999999994
 21
148.22499999999999
 31
0.0
  0
LINE
  5
5E1
  8
0
  6
CONTINUOUS
 62
     7
 10
78.299999999999997
 20
148.13782202109991
 30
0.0
 11
78.099999999999994
 21
148.13782202109991
 31
0.0
  0
LINE
  5
5E2
  8
0
  6
CONTINUOUS
 62
     7
 10
78.299999999999997
 20
148.22499999999999
 30
0.0
 11
78.299999999999997
 21
148.13782202109991
 31
0.0
  0
LINE
  5
5E3
  8
0
  6
CONTINUOUS
 62
     7
 10
77.700000000000003
 20
148.13782202109991
 30
0.0
 11
77.700000000000003
 21
148.22499999999999
 31
0.0
  0
LINE
  5
5E4
  8
0
  6
CONTINUOUS
 62
     7
 10
77.900000000000006
 20
148.22499999999999
 30
0.0
 11
77.900000000000006
 21
148.13782202109991
 31
0.0
  0
LINE
  5
5E5
  8
0
  6
CONTINUOUS
 62
     7
 10
77.900000000000006
 20
148.13782202109991
 30
0.0
 11
77.700000000000003
 21
148.13782202109991
 31
0.0
  0
LINE
  5
5E6
  8
0
  6
CONTINUOUS
 62
     7
 10
81.900000000000006
 20
151.72499999999991
 30
0.0
 11
81.900000000000006
 21
151.67500000000001
 31
0.0
  0
LINE
  5
5E7
  8
0
  6
CONTINUOUS
 62
     7
 10
81.699999999999989
 20
151.67500000000001
 30
0.0
 11
81.699999999999989
 21
151.72499999999991
 31
0.0
  0
LINE
  5
5E8
  8
0
  6
CONTINUOUS
 62
     7
 10
81.699999999999989
 20
151.77500000000001
 30
0.0
 11
81.699999999999989
 21
151.72499999999991
 31
0.0
  0
LINE
  5
5E9
  8
0
  6
CONTINUOUS
 62
     7
 10
81.900000000000006
 20
151.77500000000001
 30
0.0
 11
81.900000000000006
 21
151.72499999999991
 31
0.0
  0
LINE
  5
5EA
  8
0
  6
CONTINUOUS
 62
     7
 10
82.599999999999994
 20
151.37499999999989
 30
0.0
 11
82.400000000000006
 21
151.37499999999989
 31
0.0
  0
LINE
  5
5EB
  8
0
  6
CONTINUOUS
 62
     7
 10
82.400000000000006
 20
151.28839745959991
 30
0.0
 11
82.599999999999994
 21
151.28839745959991
 31
0.0
  0
LINE
  5
5EC
  8
0
  6
CONTINUOUS
 62
     7
 10
82.400000000000006
 20
148.71160254040001
 30
0.0
 11
82.599999999999994
 21
148.71160254040001
 31
0.0
  0
LINE
  5
5ED
  8
0
  6
CONTINUOUS
 62
     7
 10
82.599999999999994
 20
148.625
 30
0.0
 11
82.400000000000006
 21
148.625
 31
0.0
  0
LINE
  5
5EE
  8
0
  6
CONTINUOUS
 62
     7
 10
77.599999999999994
 20
148.88499999999999
 30
0.0
 11
77.599999999999994
 21
149.0
 31
0.0
  0
LINE
  5
5EF
  8
0
  6
CONTINUOUS
 62
     7
 10
77.599999999999994
 20
149.0
 30
0.0
 11
82.400000000000006
 21
149.0
 31
0.0
  0
LINE
  5
5F0
  8
0
  6
CONTINUOUS
 62
     7
 10
82.400000000000006
 20
148.71160254040001
 30
0.0
 11
82.400000000000006
 21
147.9499999999999
 31
0.0
  0
LINE
  5
5F1
  8
0
  6
CONTINUOUS
 62
     7
 10
82.400000000000006
 20
147.9499999999999
 30
0.0
 11
77.599999999999994
 21
147.9499999999999
 31
0.0
  0
LINE
  5
5F2
  8
0
  6
CONTINUOUS
 62
     7
 10
77.599999999999994
 20
147.9499999999999
 30
0.0
 11
77.599999999999994
 21
148.71160254040001
 31
0.0
  0
LINE
  5
5F3
  8
0
  6
CONTINUOUS
 62
     7
 10
77.599999999999994
 20
148.71160254040001
 30
0.0
 11
77.400000000000006
 21
148.71160254040001
 31
0.0
  0
LINE
  5
5F4
  8
0
  6
CONTINUOUS
 62
     7
 10
82.400000000000006
 20
148.88499999999999
 30
0.0
 11
82.400000000000006
 21
149.0
 31
0.0
  0
LINE
  5
5F5
  8
0
  6
CONTINUOUS
 62
     7
 10
77.400000000000006
 20
148.88499999999999
 30
0.0
 11
77.599999999999994
 21
148.88499999999999
 31
0.0
  0
LINE
  5
5F6
  8
0
  6
CONTINUOUS
 62
     7
 10
82.599999999999994
 20
148.88499999999999
 30
0.0
 11
82.400000000000006
 21
148.88499999999999
 31
0.0
  0
LINE
  5
5F7
  8
0
  6
CONTINUOUS
 62
     7
 10
82.400000000000006
 20
151.28839745959991
 30
0.0
 11
82.400000000000006
 21
152.05000000000001
 31
0.0
  0
LINE
  5
5F8
  8
0
  6
CONTINUOUS
 62
     7
 10
77.599999999999994
 20
151.11500000000001
 30
0.0
 11
77.599999999999994
 21
151.0
 31
0.0
  0
LINE
  5
5F9
  8
0
  6
CONTINUOUS
 62
     7
 10
77.599999999999994
 20
151.28839745959991
 30
0.0
 11
77.400000000000006
 21
151.28839745959991
 31
0.0
  0
LINE
  5
5FA
  8
0
  6
CONTINUOUS
 62
     7
 10
82.400000000000006
 20
151.11500000000001
 30
0.0
 11
82.400000000000006
 21
151.0
 31
0.0
  0
LINE
  5
5FB
  8
0
  6
CONTINUOUS
 62
     7
 10
82.400000000000006
 20
152.05000000000001
 30
0.0
 11
77.599999999999994
 21
152.05000000000001
 31
0.0
  0
LINE
  5
5FC
  8
0
  6
CONTINUOUS
 62
     7
 10
77.599999999999994
 20
152.05000000000001
 30
0.0
 11
77.599999999999994
 21
151.28839745959991
 31
0.0
  0
LINE
  5
5FD
  8
0
  6
CONTINUOUS
 62
     7
 10
77.599999999999994
 20
151.0
 30
0.0
 11
82.400000000000006
 21
151.0
 31
0.0
  0
LINE
  5
5FE
  8
0
  6
CONTINUOUS
 62
     7
 10
82.599999999999994
 20
151.11500000000001
 30
0.0
 11
82.400000000000006
 21
151.11500000000001
 31
0.0
  0
LINE
  5
5FF
  8
0
  6
CONTINUOUS
 62
     7
 10
77.400000000000006
 20
151.11500000000001
 30
0.0
 11
77.599999999999994
 21
151.11500000000001
 31
0.0
  0
LINE
  5
600
  8
0
  6
CONTINUOUS
 62
     7
 10
77.400000000000006
 20
148.625
 30
0.0
 11
77.599999999999994
 21
148.625
 31
0.0
  0
LINE
  5
601
  8
0
  6
CONTINUOUS
 62
     7
 10
77.400000000000006
 20
151.37499999999989
 30
0.0
 11
77.599999999999994
 21
151.37499999999989
 31
0.0
  0
LINE
  5
602
  8
0
  6
CONTINUOUS
 62
     7
 10
77.599999999999994
 20
152.05000000000001
 30
0.0
 11
76.450000000000003
 21
152.05000000000001
 31
0.0
  0
LINE
  5
603
  8
0
  6
CONTINUOUS
 62
     7
 10
76.450000000000003
 20
152.05000000000001
 30
0.0
 11
76.450000000000003
 21
151.47499999999999
 31
0.0
  0
LINE
  5
604
  8
0
  6
CONTINUOUS
 62
     7
 10
82.400000000000006
 20
152.05000000000001
 30
0.0
 11
83.549999999999997
 21
152.05000000000001
 31
0.0
  0
LINE
  5
605
  8
0
  6
CONTINUOUS
 62
     7
 10
83.549999999999997
 20
152.05000000000001
 30
0.0
 11
83.549999999999997
 21
151.47499999999999
 31
0.0
  0
LINE
  5
606
  8
0
  6
CONTINUOUS
 62
     7
 10
77.599999999999994
 20
147.9499999999999
 30
0.0
 11
76.450000000000003
 21
147.9499999999999
 31
0.0
  0
LINE
  5
607
  8
0
  6
CONTINUOUS
 62
     7
 10
76.450000000000003
 20
147.9499999999999
 30
0.0
 11
76.450000000000003
 21
148.52500000000001
 31
0.0
  0
LINE
  5
608
  8
0
  6
CONTINUOUS
 62
     7
 10
82.400000000000006
 20
147.9499999999999
 30
0.0
 11
83.549999999999997
 21
147.9499999999999
 31
0.0
  0
LINE
  5
609
  8
0
  6
CONTINUOUS
 62
     7
 10
83.549999999999997
 20
147.9499999999999
 30
0.0
 11
83.549999999999997
 21
148.52500000000001
 31
0.0
  0
LINE
  5
60A
  8
0
  6
CONTINUOUS
 62
     7
 10
79.200000000000003
 20
149.38999999999999
 30
0.0
 11
79.200000000000003
 21
149.44499999999999
 31
0.0
  0
LINE
  5
60B
  8
0
  6
CONTINUOUS
 62
     7
 10
79.200000000000003
 20
149.44499999999999
 30
0.0
 11
80.799999999999997
 21
149.44499999999999
 31
0.0
  0
LINE
  5
60C
  8
0
  6
CONTINUOUS
 62
     7
 10
80.799999999999997
 20
149.44499999999999
 30
0.0
 11
80.799999999999997
 21
149.38999999999999
 31
0.0
  0
LINE
  5
60D
  8
0
  6
CONTINUOUS
 62
     7
 10
80.799999999999997
 20
149.38999999999999
 30
0.0
 11
79.200000000000003
 21
149.38999999999999
 31
0.0
  0
LINE
  5
60E
  8
0
  6
CONTINUOUS
 62
     7
 10
80.799999999999997
 20
150.55500000000001
 30
0.0
 11
79.200000000000003
 21
150.55500000000001
 31
0.0
  0
LINE
  5
60F
  8
0
  6
CONTINUOUS
 62
     7
 10
79.200000000000003
 20
150.61000000000001
 30
0.0
 11
80.799999999999997
 21
150.61000000000001
 31
0.0
  0
LINE
  5
610
  8
0
  6
CONTINUOUS
 62
     7
 10
79.200000000000003
 20
150.55500000000001
 30
0.0
 11
79.200000000000003
 21
150.61000000000001
 31
0.0
  0
LINE
  5
611
  8
0
  6
CONTINUOUS
 62
     7
 10
80.799999999999997
 20
150.61000000000001
 30
0.0
 11
80.799999999999997
 21
150.55500000000001
 31
0.0
  0
LINE
  5
612
  8
0
  6
CONTINUOUS
 62
     7
 10
80.799999999999997
 20
149.6999999999999
 30
0.0
 11
80.799999999999997
 21
149.44499999999999
 31
0.0
  0
LINE
  5
613
  8
0
  6
CONTINUOUS
 62
     7
 10
78.400000000000006
 20
150.50999999999991
 30
0.0
 11
78.400000000000006
 21
150.30000000000001
 31
0.0
  0
LINE
  5
614
  8
0
  6
CONTINUOUS
 62
     7
 10
77.599999999999994
 20
149.49000000000001
 30
0.0
 11
78.400000000000006
 21
149.49000000000001
 31
0.0
  0
LINE
  5
615
  8
0
  6
CONTINUOUS
 62
     7
 10
79.200000000000003
 20
149.44499999999999
 30
0.0
 11
79.200000000000003
 21
149.6999999999999
 31
0.0
  0
LINE
  5
616
  8
0
  6
CONTINUOUS
 62
     7
 10
81.599999999999994
 20
150.50999999999991
 30
0.0
 11
82.400000000000006
 21
150.50999999999991
 31
0.0
  0
LINE
  5
617
  8
0
  6
CONTINUOUS
 62
     7
 10
81.599999999999994
 20
150.30000000000001
 30
0.0
 11
80.799999999999997
 21
150.30000000000001
 31
0.0
  0
LINE
  5
618
  8
0
  6
CONTINUOUS
 62
     7
 10
78.400000000000006
 20
150.30000000000001
 30
0.0
 11
79.200000000000003
 21
150.30000000000001
 31
0.0
  0
LINE
  5
619
  8
0
  6
CONTINUOUS
 62
     7
 10
81.599999999999994
 20
149.6999999999999
 30
0.0
 11
80.799999999999997
 21
149.6999999999999
 31
0.0
  0
LINE
  5
61A
  8
0
  6
CONTINUOUS
 62
     7
 10
82.400000000000006
 20
149.49000000000001
 30
0.0
 11
81.599999999999994
 21
149.49000000000001
 31
0.0
  0
LINE
  5
61B
  8
0
  6
CONTINUOUS
 62
     7
 10
79.200000000000003
 20
150.30000000000001
 30
0.0
 11
79.200000000000003
 21
150.55500000000001
 31
0.0
  0
LINE
  5
61C
  8
0
  6
CONTINUOUS
 62
     7
 10
81.599999999999994
 20
150.50999999999991
 30
0.0
 11
81.599999999999994
 21
150.30000000000001
 31
0.0
  0
LINE
  5
61D
  8
0
  6
CONTINUOUS
 62
     7
 10
82.400000000000006
 20
150.50999999999991
 30
0.0
 11
82.400000000000006
 21
149.49000000000001
 31
0.0
  0
LINE
  5
61E
  8
0
  6
CONTINUOUS
 62
     7
 10
78.400000000000006
 20
150.50999999999991
 30
0.0
 11
77.599999999999994
 21
150.50999999999991
 31
0.0
  0
LINE
  5
61F
  8
0
  6
CONTINUOUS
 62
     7
 10
78.400000000000006
 20
149.6999999999999
 30
0.0
 11
79.200000000000003
 21
149.6999999999999
 31
0.0
  0
LINE
  5
620
  8
0
  6
CONTINUOUS
 62
     7
 10
77.599999999999994
 20
150.50999999999991
 30
0.0
 11
77.599999999999994
 21
149.49000000000001
 31
0.0
  0
LINE
  5
621
  8
0
  6
CONTINUOUS
 62
     7
 10
78.400000000000006
 20
149.49000000000001
 30
0.0
 11
78.400000000000006
 21
149.6999999999999
 31
0.0
  0
LINE
  5
622
  8
0
  6
CONTINUOUS
 62
     7
 10
80.799999999999997
 20
150.55500000000001
 30
0.0
 11
80.799999999999997
 21
150.30000000000001
 31
0.0
  0
LINE
  5
623
  8
0
  6
CONTINUOUS
 62
     7
 10
81.599999999999994
 20
149.49000000000001
 30
0.0
 11
81.599999999999994
 21
149.6999999999999
 31
0.0
  0
LINE
  5
624
  8
0
  6
CONTINUOUS
 62
     7
 10
80.674999999999997
 20
149.02803510169991
 30
0.0
 11
80.525000000000006
 21
149.02803510169991
 31
0.0
  0
LINE
  5
625
  8
0
  6
CONTINUOUS
 62
     7
 10
80.674999999999997
 20
149.0
 30
0.0
 11
80.674999999999997
 21
149.02803510169991
 31
0.0
  0
LINE
  5
626
  8
0
  6
CONTINUOUS
 62
     7
 10
80.525000000000006
 20
149.02803510169991
 30
0.0
 11
80.525000000000006
 21
149.0
 31
0.0
  0
LINE
  5
627
  8
0
  6
CONTINUOUS
 62
     7
 10
78.924999999999997
 20
149.02803510169991
 30
0.0
 11
79.075000000000003
 21
149.02803510169991
 31
0.0
  0
LINE
  5
628
  8
0
  6
CONTINUOUS
 62
     7
 10
79.075000000000003
 20
149.02803510169991
 30
0.0
 11
79.075000000000003
 21
149.0
 31
0.0
  0
LINE
  5
629
  8
0
  6
CONTINUOUS
 62
     7
 10
78.924999999999997
 20
149.0
 30
0.0
 11
78.924999999999997
 21
149.02803510169991
 31
0.0
  0
LINE
  5
62A
  8
0
  6
CONTINUOUS
 62
     7
 10
81.074999999999989
 20
150.9719648983
 30
0.0
 11
80.924999999999983
 21
150.9719648983
 31
0.0
  0
LINE
  5
62B
  8
0
  6
CONTINUOUS
 62
     7
 10
81.074999999999989
 20
151.0
 30
0.0
 11
81.074999999999989
 21
150.9719648983
 31
0.0
  0
LINE
  5
62C
  8
0
  6
CONTINUOUS
 62
     7
 10
80.924999999999983
 20
150.9719648983
 30
0.0
 11
80.924999999999983
 21
151.0
 31
0.0
  0
LINE
  5
62D
  8
0
  6
CONTINUOUS
 62
     7
 10
80.275000000000006
 20
149.02803510169991
 30
0.0
 11
80.125000000000014
 21
149.02803510169991
 31
0.0
  0
LINE
  5
62E
  8
0
  6
CONTINUOUS
 62
     7
 10
80.275000000000006
 20
149.0
 30
0.0
 11
80.275000000000006
 21
149.02803510169991
 31
0.0
  0
LINE
  5
62F
  8
0
  6
CONTINUOUS
 62
     7
 10
80.125000000000014
 20
149.02803510169991
 30
0.0
 11
80.125000000000014
 21
149.0
 31
0.0
  0
LINE
  5
630
  8
0
  6
CONTINUOUS
 62
     7
 10
81.474999999999994
 20
149.02803510169991
 30
0.0
 11
81.325000000000003
 21
149.02803510169991
 31
0.0
  0
LINE
  5
631
  8
0
  6
CONTINUOUS
 62
     7
 10
81.474999999999994
 20
149.0
 30
0.0
 11
81.474999999999994
 21
149.02803510169991
 31
0.0
  0
LINE
  5
632
  8
0
  6
CONTINUOUS
 62
     7
 10
81.325000000000003
 20
149.02803510169991
 30
0.0
 11
81.325000000000003
 21
149.0
 31
0.0
  0
LINE
  5
633
  8
0
  6
CONTINUOUS
 62
     7
 10
80.275000000000006
 20
150.9719648983
 30
0.0
 11
80.125000000000014
 21
150.9719648983
 31
0.0
  0
LINE
  5
634
  8
0
  6
CONTINUOUS
 62
     7
 10
80.125000000000014
 20
150.9719648983
 30
0.0
 11
80.125000000000014
 21
151.0
 31
0.0
  0
LINE
  5
635
  8
0
  6
CONTINUOUS
 62
     7
 10
80.275000000000006
 20
151.0
 30
0.0
 11
80.275000000000006
 21
150.9719648983
 31
0.0
  0
LINE
  5
636
  8
0
  6
CONTINUOUS
 62
     7
 10
81.074999999999989
 20
149.02803510169991
 30
0.0
 11
80.924999999999983
 21
149.02803510169991
 31
0.0
  0
LINE
  5
637
  8
0
  6
CONTINUOUS
 62
     7
 10
81.074999999999989
 20
149.0
 30
0.0
 11
81.074999999999989
 21
149.02803510169991
 31
0.0
  0
LINE
  5
638
  8
0
  6
CONTINUOUS
 62
     7
 10
80.924999999999983
 20
149.02803510169991
 30
0.0
 11
80.924999999999983
 21
149.0
 31
0.0
  0
LINE
  5
639
  8
0
  6
CONTINUOUS
 62
     7
 10
80.674999999999997
 20
150.9719648983
 30
0.0
 11
80.525000000000006
 21
150.9719648983
 31
0.0
  0
LINE
  5
63A
  8
0
  6
CONTINUOUS
 62
     7
 10
80.525000000000006
 20
150.9719648983
 30
0.0
 11
80.525000000000006
 21
151.0
 31
0.0
  0
LINE
  5
63B
  8
0
  6
CONTINUOUS
 62
     7
 10
80.674999999999997
 20
151.0
 30
0.0
 11
80.674999999999997
 21
150.9719648983
 31
0.0
  0
LINE
  5
63C
  8
0
  6
CONTINUOUS
 62
     7
 10
81.875
 20
149.02803510169991
 30
0.0
 11
81.724999999999994
 21
149.02803510169991
 31
0.0
  0
LINE
  5
63D
  8
0
  6
CONTINUOUS
 62
     7
 10
81.875
 20
149.0
 30
0.0
 11
81.875
 21
149.02803510169991
 31
0.0
  0
LINE
  5
63E
  8
0
  6
CONTINUOUS
 62
     7
 10
81.724999999999994
 20
149.02803510169991
 30
0.0
 11
81.724999999999994
 21
149.0
 31
0.0
  0
LINE
  5
63F
  8
0
  6
CONTINUOUS
 62
     7
 10
77.724999999999994
 20
150.9719648983
 30
0.0
 11
77.875
 21
150.9719648983
 31
0.0
  0
LINE
  5
640
  8
0
  6
CONTINUOUS
 62
     7
 10
77.724999999999994
 20
151.0
 30
0.0
 11
77.724999999999994
 21
150.9719648983
 31
0.0
  0
LINE
  5
641
  8
0
  6
CONTINUOUS
 62
     7
 10
77.875
 20
150.9719648983
 30
0.0
 11
77.875
 21
151.0
 31
0.0
  0
LINE
  5
642
  8
0
  6
CONTINUOUS
 62
     7
 10
82.275000000000006
 20
150.9719648983
 30
0.0
 11
82.125
 21
150.9719648983
 31
0.0
  0
LINE
  5
643
  8
0
  6
CONTINUOUS
 62
     7
 10
82.125
 20
150.9719648983
 30
0.0
 11
82.125
 21
151.0
 31
0.0
  0
LINE
  5
644
  8
0
  6
CONTINUOUS
 62
     7
 10
82.275000000000006
 20
151.0
 30
0.0
 11
82.275000000000006
 21
150.9719648983
 31
0.0
  0
LINE
  5
645
  8
0
  6
CONTINUOUS
 62
     7
 10
79.724999999999994
 20
150.9719648983
 30
0.0
 11
79.875
 21
150.9719648983
 31
0.0
  0
LINE
  5
646
  8
0
  6
CONTINUOUS
 62
     7
 10
79.724999999999994
 20
151.0
 30
0.0
 11
79.724999999999994
 21
150.9719648983
 31
0.0
  0
LINE
  5
647
  8
0
  6
CONTINUOUS
 62
     7
 10
79.875
 20
150.9719648983
 30
0.0
 11
79.875
 21
151.0
 31
0.0
  0
LINE
  5
648
  8
0
  6
CONTINUOUS
 62
     7
 10
82.275000000000006
 20
149.02803510169991
 30
0.0
 11
82.125
 21
149.02803510169991
 31
0.0
  0
LINE
  5
649
  8
0
  6
CONTINUOUS
 62
     7
 10
82.275000000000006
 20
149.0
 30
0.0
 11
82.275000000000006
 21
149.02803510169991
 31
0.0
  0
LINE
  5
64A
  8
0
  6
CONTINUOUS
 62
     7
 10
82.125
 20
149.02803510169991
 30
0.0
 11
82.125
 21
149.0
 31
0.0
  0
LINE
  5
64B
  8
0
  6
CONTINUOUS
 62
     7
 10
77.724999999999994
 20
149.02803510169991
 30
0.0
 11
77.875
 21
149.02803510169991
 31
0.0
  0
LINE
  5
64C
  8
0
  6
CONTINUOUS
 62
     7
 10
77.724999999999994
 20
149.0
 30
0.0
 11
77.724999999999994
 21
149.02803510169991
 31
0.0
  0
LINE
  5
64D
  8
0
  6
CONTINUOUS
 62
     7
 10
77.875
 20
149.02803510169991
 30
0.0
 11
77.875
 21
149.0
 31
0.0
  0
LINE
  5
64E
  8
0
  6
CONTINUOUS
 62
     7
 10
79.325000000000003
 20
150.9719648983
 30
0.0
 11
79.474999999999994
 21
150.9719648983
 31
0.0
  0
LINE
  5
64F
  8
0
  6
CONTINUOUS
 62
     7
 10
79.474999999999994
 20
150.9719648983
 30
0.0
 11
79.474999999999994
 21
151.0
 31
0.0
  0
LINE
  5
650
  8
0
  6
CONTINUOUS
 62
     7
 10
79.325000000000003
 20
151.0
 30
0.0
 11
79.325000000000003
 21
150.9719648983
 31
0.0
  0
LINE
  5
651
  8
0
  6
CONTINUOUS
 62
     7
 10
79.724999999999994
 20
149.02803510169991
 30
0.0
 11
79.875
 21
149.02803510169991
 31
0.0
  0
LINE
  5
652
  8
0
  6
CONTINUOUS
 62
     7
 10
79.875
 20
149.02803510169991
 30
0.0
 11
79.875
 21
149.0
 31
0.0
  0
LINE
  5
653
  8
0
  6
CONTINUOUS
 62
     7
 10
79.724999999999994
 20
149.0
 30
0.0
 11
79.724999999999994
 21
149.02803510169991
 31
0.0
  0
LINE
  5
654
  8
0
  6
CONTINUOUS
 62
     7
 10
81.474999999999994
 20
150.9719648983
 30
0.0
 11
81.325000000000003
 21
150.9719648983
 31
0.0
  0
LINE
  5
655
  8
0
  6
CONTINUOUS
 62
     7
 10
81.325000000000003
 20
150.9719648983
 30
0.0
 11
81.325000000000003
 21
151.0
 31
0.0
  0
LINE
  5
656
  8
0
  6
CONTINUOUS
 62
     7
 10
81.474999999999994
 20
151.0
 30
0.0
 11
81.474999999999994
 21
150.9719648983
 31
0.0
  0
LINE
  5
657
  8
0
  6
CONTINUOUS
 62
     7
 10
78.125
 20
150.9719648983
 30
0.0
 11
78.275000000000006
 21
150.9719648983
 31
0.0
  0
LINE
  5
658
  8
0
  6
CONTINUOUS
 62
     7
 10
78.125
 20
151.0
 30
0.0
 11
78.125
 21
150.9719648983
 31
0.0
  0
LINE
  5
659
  8
0
  6
CONTINUOUS
 62
     7
 10
78.275000000000006
 20
150.9719648983
 30
0.0
 11
78.275000000000006
 21
151.0
 31
0.0
  0
LINE
  5
65A
  8
0
  6
CONTINUOUS
 62
     7
 10
78.525000000000006
 20
150.9719648983
 30
0.0
 11
78.674999999999983
 21
150.9719648983
 31
0.0
  0
LINE
  5
65B
  8
0
  6
CONTINUOUS
 62
     7
 10
78.525000000000006
 20
151.0
 30
0.0
 11
78.525000000000006
 21
150.9719648983
 31
0.0
  0
LINE
  5
65C
  8
0
  6
CONTINUOUS
 62
     7
 10
78.674999999999983
 20
150.9719648983
 30
0.0
 11
78.674999999999983
 21
151.0
 31
0.0
  0
LINE
  5
65D
  8
0
  6
CONTINUOUS
 62
     7
 10
78.525000000000006
 20
149.02803510169991
 30
0.0
 11
78.674999999999983
 21
149.02803510169991
 31
0.0
  0
LINE
  5
65E
  8
0
  6
CONTINUOUS
 62
     7
 10
78.525000000000006
 20
149.0
 30
0.0
 11
78.525000000000006
 21
149.02803510169991
 31
0.0
  0
LINE
  5
65F
  8
0
  6
CONTINUOUS
 62
     7
 10
78.674999999999983
 20
149.02803510169991
 30
0.0
 11
78.674999999999983
 21
149.0
 31
0.0
  0
LINE
  5
660
  8
0
  6
CONTINUOUS
 62
     7
 10
79.325000000000003
 20
149.02803510169991
 30
0.0
 11
79.474999999999994
 21
149.02803510169991
 31
0.0
  0
LINE
  5
661
  8
0
  6
CONTINUOUS
 62
     7
 10
79.474999999999994
 20
149.02803510169991
 30
0.0
 11
79.474999999999994
 21
149.0
 31
0.0
  0
LINE
  5
662
  8
0
  6
CONTINUOUS
 62
     7
 10
79.325000000000003
 20
149.0
 30
0.0
 11
79.325000000000003
 21
149.02803510169991
 31
0.0
  0
LINE
  5
663
  8
0
  6
CONTINUOUS
 62
     7
 10
78.924999999999997
 20
150.9719648983
 30
0.0
 11
79.075000000000003
 21
150.9719648983
 31
0.0
  0
LINE
  5
664
  8
0
  6
CONTINUOUS
 62
     7
 10
79.075000000000003
 20
150.9719648983
 30
0.0
 11
79.075000000000003
 21
151.0
 31
0.0
  0
LINE
  5
665
  8
0
  6
CONTINUOUS
 62
     7
 10
78.924999999999997
 20
151.0
 30
0.0
 11
78.924999999999997
 21
150.9719648983
 31
0.0
  0
LINE
  5
666
  8
0
  6
CONTINUOUS
 62
     7
 10
78.125
 20
149.02803510169991
 30
0.0
 11
78.275000000000006
 21
149.02803510169991
 31
0.0
  0
LINE
  5
667
  8
0
  6
CONTINUOUS
 62
     7
 10
78.125
 20
149.0
 30
0.0
 11
78.125
 21
149.02803510169991
 31
0.0
  0
LINE
  5
668
  8
0
  6
CONTINUOUS
 62
     7
 10
78.275000000000006
 20
149.02803510169991
 30
0.0
 11
78.275000000000006
 21
149.0
 31
0.0
  0
LINE
  5
669
  8
0
  6
CONTINUOUS
 62
     7
 10
81.875
 20
150.9719648983
 30
0.0
 11
81.724999999999994
 21
150.9719648983
 31
0.0
  0
LINE
  5
66A
  8
0
  6
CONTINUOUS
 62
     7
 10
81.724999999999994
 20
150.9719648983
 30
0.0
 11
81.724999999999994
 21
151.0
 31
0.0
  0
LINE
  5
66B
  8
0
  6
CONTINUOUS
 62
     7
 10
81.875
 20
151.0
 30
0.0
 11
81.875
 21
150.9719648983
 31
0.0
  0
LINE
  5
66C
  8
0
  6
CONTINUOUS
 62
     7
 10
79.724999999999994
 20
150.9719648983
 30
0.0
 11
79.724999999999994
 21
150.9295670489999
 31
0.0
  0
LINE
  5
66D
  8
0
  6
CONTINUOUS
 62
     7
 10
79.875
 20
150.9295670489999
 30
0.0
 11
79.875
 21
150.9719648983
 31
0.0
  0
LINE
  5
66E
  8
0
  6
CONTINUOUS
 62
     7
 10
79.474999999999994
 20
149.07043295099999
 30
0.0
 11
79.474999999999994
 21
149.02803510169991
 31
0.0
  0
LINE
  5
66F
  8
0
  6
CONTINUOUS
 62
     7
 10
79.325000000000003
 20
149.02803510169991
 30
0.0
 11
79.325000000000003
 21
149.07043295099999
 31
0.0
  0
LINE
  5
670
  8
0
  6
CONTINUOUS
 62
     7
 10
79.075000000000003
 20
149.07043295099999
 30
0.0
 11
79.075000000000003
 21
149.02803510169991
 31
0.0
  0
LINE
  5
671
  8
0
  6
CONTINUOUS
 62
     7
 10
78.924999999999997
 20
149.02803510169991
 30
0.0
 11
78.924999999999997
 21
149.07043295099999
 31
0.0
  0
LINE
  5
672
  8
0
  6
CONTINUOUS
 62
     7
 10
79.474999999999994
 20
150.9295670489999
 30
0.0
 11
79.474999999999994
 21
150.9719648983
 31
0.0
  0
LINE
  5
673
  8
0
  6
CONTINUOUS
 62
     7
 10
79.325000000000003
 20
150.9719648983
 30
0.0
 11
79.325000000000003
 21
150.9295670489999
 31
0.0
  0
LINE
  5
674
  8
0
  6
CONTINUOUS
 62
     7
 10
78.125
 20
149.02803510169991
 30
0.0
 11
78.125
 21
149.07043295099999
 31
0.0
  0
LINE
  5
675
  8
0
  6
CONTINUOUS
 62
     7
 10
78.275000000000006
 20
149.07043295099999
 30
0.0
 11
78.275000000000006
 21
149.02803510169991
 31
0.0
  0
LINE
  5
676
  8
0
  6
CONTINUOUS
 62
     7
 10
79.075000000000003
 20
150.9295670489999
 30
0.0
 11
79.075000000000003
 21
150.9719648983
 31
0.0
  0
LINE
  5
677
  8
0
  6
CONTINUOUS
 62
     7
 10
78.924999999999997
 20
150.9719648983
 30
0.0
 11
78.924999999999997
 21
150.9295670489999
 31
0.0
  0
LINE
  5
678
  8
0
  6
CONTINUOUS
 62
     7
 10
80.674999999999997
 20
149.02803510169991
 30
0.0
 11
80.674999999999997
 21
149.07043295099999
 31
0.0
  0
LINE
  5
679
  8
0
  6
CONTINUOUS
 62
     7
 10
80.525000000000006
 20
149.07043295099999
 30
0.0
 11
80.525000000000006
 21
149.02803510169991
 31
0.0
  0
LINE
  5
67A
  8
0
  6
CONTINUOUS
 62
     7
 10
82.275000000000006
 20
149.02803510169991
 30
0.0
 11
82.275000000000006
 21
149.07043295099999
 31
0.0
  0
LINE
  5
67B
  8
0
  6
CONTINUOUS
 62
     7
 10
82.125
 20
149.07043295099999
 30
0.0
 11
82.125
 21
149.02803510169991
 31
0.0
  0
LINE
  5
67C
  8
0
  6
CONTINUOUS
 62
     7
 10
82.275000000000006
 20
150.9719648983
 30
0.0
 11
82.275000000000006
 21
150.9295670489999
 31
0.0
  0
LINE
  5
67D
  8
0
  6
CONTINUOUS
 62
     7
 10
82.125
 20
150.9295670489999
 30
0.0
 11
82.125
 21
150.9719648983
 31
0.0
  0
LINE
  5
67E
  8
0
  6
CONTINUOUS
 62
     7
 10
79.875
 20
149.07043295099999
 30
0.0
 11
79.875
 21
149.02803510169991
 31
0.0
  0
LINE
  5
67F
  8
0
  6
CONTINUOUS
 62
     7
 10
79.724999999999994
 20
149.02803510169991
 30
0.0
 11
79.724999999999994
 21
149.07043295099999
 31
0.0
  0
LINE
  5
680
  8
0
  6
CONTINUOUS
 62
     7
 10
77.724999999999994
 20
149.02803510169991
 30
0.0
 11
77.724999999999994
 21
149.07043295099999
 31
0.0
  0
LINE
  5
681
  8
0
  6
CONTINUOUS
 62
     7
 10
77.875
 20
149.07043295099999
 30
0.0
 11
77.875
 21
149.02803510169991
 31
0.0
  0
LINE
  5
682
  8
0
  6
CONTINUOUS
 62
     7
 10
81.724999999999994
 20
150.9295670489999
 30
0.0
 11
81.724999999999994
 21
150.9719648983
 31
0.0
  0
LINE
  5
683
  8
0
  6
CONTINUOUS
 62
     7
 10
81.875
 20
150.9719648983
 30
0.0
 11
81.875
 21
150.9295670489999
 31
0.0
  0
LINE
  5
684
  8
0
  6
CONTINUOUS
 62
     7
 10
78.525000000000006
 20
150.9719648983
 30
0.0
 11
78.525000000000006
 21
150.9295670489999
 31
0.0
  0
LINE
  5
685
  8
0
  6
CONTINUOUS
 62
     7
 10
78.674999999999983
 20
150.9295670489999
 30
0.0
 11
78.674999999999983
 21
150.9719648983
 31
0.0
  0
LINE
  5
686
  8
0
  6
CONTINUOUS
 62
     7
 10
78.525000000000006
 20
149.02803510169991
 30
0.0
 11
78.525000000000006
 21
149.07043295099999
 31
0.0
  0
LINE
  5
687
  8
0
  6
CONTINUOUS
 62
     7
 10
78.674999999999983
 20
149.07043295099999
 30
0.0
 11
78.674999999999983
 21
149.02803510169991
 31
0.0
  0
LINE
  5
688
  8
0
  6
CONTINUOUS
 62
     7
 10
80.275000000000006
 20
149.02803510169991
 30
0.0
 11
80.275000000000006
 21
149.07043295099999
 31
0.0
  0
LINE
  5
689
  8
0
  6
CONTINUOUS
 62
     7
 10
80.125000000000014
 20
149.07043295099999
 30
0.0
 11
80.125000000000014
 21
149.02803510169991
 31
0.0
  0
LINE
  5
68A
  8
0
  6
CONTINUOUS
 62
     7
 10
77.724999999999994
 20
150.9719648983
 30
0.0
 11
77.724999999999994
 21
150.9295670489999
 31
0.0
  0
LINE
  5
68B
  8
0
  6
CONTINUOUS
 62
     7
 10
77.875
 20
150.9295670489999
 30
0.0
 11
77.875
 21
150.9719648983
 31
0.0
  0
LINE
  5
68C
  8
0
  6
CONTINUOUS
 62
     7
 10
80.275000000000006
 20
150.9719648983
 30
0.0
 11
80.275000000000006
 21
150.9295670489999
 31
0.0
  0
LINE
  5
68D
  8
0
  6
CONTINUOUS
 62
     7
 10
80.125000000000014
 20
150.9295670489999
 30
0.0
 11
80.125000000000014
 21
150.9719648983
 31
0.0
  0
LINE
  5
68E
  8
0
  6
CONTINUOUS
 62
     7
 10
81.074999999999989
 20
150.9719648983
 30
0.0
 11
81.074999999999989
 21
150.9295670489999
 31
0.0
  0
LINE
  5
68F
  8
0
  6
CONTINUOUS
 62
     7
 10
80.924999999999983
 20
150.9295670489999
 30
0.0
 11
80.924999999999983
 21
150.9719648983
 31
0.0
  0
LINE
  5
690
  8
0
  6
CONTINUOUS
 62
     7
 10
80.674999999999997
 20
150.9719648983
 30
0.0
 11
80.674999999999997
 21
150.9295670489999
 31
0.0
  0
LINE
  5
691
  8
0
  6
CONTINUOUS
 62
     7
 10
80.525000000000006
 20
150.9295670489999
 30
0.0
 11
80.525000000000006
 21
150.9719648983
 31
0.0
  0
LINE
  5
692
  8
0
  6
CONTINUOUS
 62
     7
 10
78.125
 20
150.9719648983
 30
0.0
 11
78.125
 21
150.9295670489999
 31
0.0
  0
LINE
  5
693
  8
0
  6
CONTINUOUS
 62
     7
 10
78.275000000000006
 20
150.9295670489999
 30
0.0
 11
78.275000000000006
 21
150.9719648983
 31
0.0
  0
LINE
  5
694
  8
0
  6
CONTINUOUS
 62
     7
 10
81.875
 20
149.02803510169991
 30
0.0
 11
81.875
 21
149.07043295099999
 31
0.0
  0
LINE
  5
695
  8
0
  6
CONTINUOUS
 62
     7
 10
81.724999999999994
 20
149.07043295099999
 30
0.0
 11
81.724999999999994
 21
149.02803510169991
 31
0.0
  0
LINE
  5
696
  8
0
  6
CONTINUOUS
 62
     7
 10
81.074999999999989
 20
149.02803510169991
 30
0.0
 11
81.074999999999989
 21
149.07043295099999
 31
0.0
  0
LINE
  5
697
  8
0
  6
CONTINUOUS
 62
     7
 10
80.924999999999983
 20
149.07043295099999
 30
0.0
 11
80.924999999999983
 21
149.02803510169991
 31
0.0
  0
LINE
  5
698
  8
0
  6
CONTINUOUS
 62
     7
 10
81.325000000000003
 20
150.9295670489999
 30
0.0
 11
81.325000000000003
 21
150.9719648983
 31
0.0
  0
LINE
  5
699
  8
0
  6
CONTINUOUS
 62
     7
 10
81.474999999999994
 20
150.9719648983
 30
0.0
 11
81.474999999999994
 21
150.9295670489999
 31
0.0
  0
LINE
  5
69A
  8
0
  6
CONTINUOUS
 62
     7
 10
81.325000000000003
 20
149.07043295099999
 30
0.0
 11
81.325000000000003
 21
149.02803510169991
 31
0.0
  0
LINE
  5
69B
  8
0
  6
CONTINUOUS
 62
     7
 10
81.474999999999994
 20
149.02803510169991
 30
0.0
 11
81.474999999999994
 21
149.07043295099999
 31
0.0
  0
LINE
  5
69C
  8
0
  6
CONTINUOUS
 62
     7
 10
78.400000000000006
 20
150.40000000000001
 30
0.0
 11
79.200000000000003
 21
150.40000000000001
 31
0.0
  0
LINE
  5
69D
  8
0
  6
CONTINUOUS
 62
     7
 10
78.400000000000006
 20
149.59999999999991
 30
0.0
 11
79.200000000000003
 21
149.59999999999991
 31
0.0
  0
LINE
  5
69E
  8
0
  6
CONTINUOUS
 62
     7
 10
81.599999999999994
 20
149.59999999999991
 30
0.0
 11
80.799999999999997
 21
149.59999999999991
 31
0.0
  0
LINE
  5
69F
  8
0
  6
CONTINUOUS
 62
     7
 10
81.599999999999994
 20
150.40000000000001
 30
0.0
 11
80.799999999999997
 21
150.40000000000001
 31
0.0
  0
LINE
  5
6A0
  8
0
  6
CONTINUOUS
 62
     7
 10
79.200000000000003
 20
149.46999999999991
 30
0.0
 11
78.400000000000006
 21
149.46999999999991
 31
0.0
  0
LINE
  5
6A1
  8
0
  6
CONTINUOUS
 62
     7
 10
78.400000000000006
 20
149.46999999999991
 30
0.0
 11
78.400000000000006
 21
149.49000000000001
 31
0.0
  0
LINE
  5
6A2
  8
0
  6
CONTINUOUS
 62
     7
 10
81.599999999999994
 20
149.46999999999991
 30
0.0
 11
80.799999999999997
 21
149.46999999999991
 31
0.0
  0
LINE
  5
6A3
  8
0
  6
CONTINUOUS
 62
     7
 10
81.599999999999994
 20
149.46999999999991
 30
0.0
 11
81.599999999999994
 21
149.49000000000001
 31
0.0
  0
LINE
  5
6A4
  8
0
  6
CONTINUOUS
 62
     7
 10
80.799999999999997
 20
150.53
 30
0.0
 11
81.599999999999994
 21
150.53
 31
0.0
  0
LINE
  5
6A5
  8
0
  6
CONTINUOUS
 62
     7
 10
81.599999999999994
 20
150.53
 30
0.0
 11
81.599999999999994
 21
150.50999999999991
 31
0.0
  0
LINE
  5
6A6
  8
0
  6
CONTINUOUS
 62
     7
 10
78.400000000000006
 20
150.53
 30
0.0
 11
79.200000000000003
 21
150.53
 31
0.0
  0
LINE
  5
6A7
  8
0
  6
CONTINUOUS
 62
     7
 10
78.400000000000006
 20
150.53
 30
0.0
 11
78.400000000000006
 21
150.50999999999991
 31
0.0
  0
LINE
  5
6A8
  8
0
  6
CONTINUOUS
 62
     7
 10
77.269999999999996
 20
148.88499999999999
 30
0.0
 11
77.269999999999996
 21
151.11500000000001
 31
0.0
  0
LINE
  5
6A9
  8
0
  6
CONTINUOUS
 62
     7
 10
82.730000000000004
 20
148.88499999999999
 30
0.0
 11
82.730000000000004
 21
151.11500000000001
 31
0.0
  0
LINE
  5
6AA
  8
0
  6
CONTINUOUS
 62
     7
 10
82.294747706400017
 20
150.87
 30
0.0
 11
82.400000000000006
 21
150.87
 31
0.0
  0
ARC
  5
6AB
  8
0
  6
CONTINUOUS
 62
     7
 10
93.7090434383
 20
150.87506601690001
 30
0.0
 40
11.41429685614167
 50
179.37286256249999
 51
180.0254296347
  0
LINE
  5
6AC
  8
0
  6
CONTINUOUS
 62
     7
 10
82.400000000000006
 20
150.87
 30
0.0
 11
82.400000000000006
 21
151.0
 31
0.0
  0
LINE
  5
6AD
  8
0
  6
CONTINUOUS
 62
     7
 10
77.705252293599997
 20
149.13
 30
0.0
 11
77.599999999999994
 21
149.13
 31
0.0
  0
ARC
  5
6AE
  8
0
  6
CONTINUOUS
 62
     7
 10
66.290956561000002
 20
149.12493398309999
 30
0.0
 40
11.4142968568041
 50
359.37286256250002
 51
0.0254296347
  0
LINE
  5
6AF
  8
0
  6
CONTINUOUS
 62
     7
 10
77.599999999999994
 20
149.13
 30
0.0
 11
77.599999999999994
 21
149.0
 31
0.0
  0
LINE
  5
6B0
  8
0
  6
CONTINUOUS
 62
     7
 10
77.705252293599997
 20
150.87
 30
0.0
 11
77.599999999999994
 21
150.87
 31
0.0
  0
ARC
  5
6B1
  8
0
  6
CONTINUOUS
 62
     7
 10
66.290956561000002
 20
150.87506601690001
 30
0.0
 40
11.4142968568041
 50
359.97457036529988
 51
0.6271374375
  0
LINE
  5
6B2
  8
0
  6
CONTINUOUS
 62
     7
 10
77.599999999999994
 20
150.87
 30
0.0
 11
77.599999999999994
 21
151.0
 31
0.0
  0
LINE
  5
6B3
  8
0
  6
CONTINUOUS
 62
     7
 10
82.294747706400017
 20
149.13
 30
0.0
 11
82.400000000000006
 21
149.13
 31
0.0
  0
ARC
  5
6B4
  8
0
  6
CONTINUOUS
 62
     7
 10
93.7090434383
 20
149.12493398309999
 30
0.0
 40
11.41429685614167
 50
179.9745703653
 51
180.62713743750001
  0
LINE
  5
6B5
  8
0
  6
CONTINUOUS
 62
     7
 10
82.400000000000006
 20
149.13
 30
0.0
 11
82.400000000000006
 21
149.0
 31
0.0
  0
ARC
  5
6B6
  8
0
  6
CONTINUOUS
 62
     7
 10
89.309043439399986
 20
149.12493398309999
 30
0.0
 40
11.41429685716769
 50
179.9745703653
 51
180.62713743750001
  0
LINE
  5
6B7
  8
0
  6
CONTINUOUS
 62
     7
 10
77.894747706399997
 20
149.13
 30
0.0
 11
77.894747706399997
 21
149.0
 31
0.0
  0
LINE
  5
6B8
  8
0
  6
CONTINUOUS
 62
     7
 10
78.9052522936
 20
149.13
 30
0.0
 11
78.694747706400008
 21
149.13
 31
0.0
  0
ARC
  5
6B9
  8
0
  6
CONTINUOUS
 62
     7
 10
67.490956561000004
 20
149.12493398309999
 30
0.0
 40
11.4142968568041
 50
359.37286256250002
 51
0.0254296347
  0
ARC
  5
6BA
  8
0
  6
CONTINUOUS
 62
     7
 10
90.109043438300006
 20
149.12493398309999
 30
0.0
 40
11.41429685614167
 50
179.9745703653
 51
180.62713743750001
  0
LINE
  5
6BB
  8
0
  6
CONTINUOUS
 62
     7
 10
81.494747706400005
 20
149.13
 30
0.0
 11
81.705252293599997
 21
149.13
 31
0.0
  0
ARC
  5
6BC
  8
0
  6
CONTINUOUS
 62
     7
 10
70.290956561699986
 20
149.12493398309999
 30
0.0
 40
11.41429685614167
 50
359.37286256250002
 51
0.0254296347
  0
ARC
  5
6BD
  8
0
  6
CONTINUOUS
 62
     7
 10
92.909043439400008
 20
149.12493398309999
 30
0.0
 40
11.41429685716772
 50
179.9745703653
 51
180.62713743750001
  0
ARC
  5
6BE
  8
0
  6
CONTINUOUS
 62
     7
 10
69.490956560599983
 20
150.87506601690001
 30
0.0
 40
11.41429685716769
 50
359.97457036529988
 51
0.6271374375
  0
LINE
  5
6BF
  8
0
  6
CONTINUOUS
 62
     7
 10
80.9052522936
 20
150.87
 30
0.0
 11
80.9052522936
 21
151.0
 31
0.0
  0
LINE
  5
6C0
  8
0
  6
CONTINUOUS
 62
     7
 10
81.0947477064
 20
151.0
 30
0.0
 11
81.0947477064
 21
150.87
 31
0.0
  0
ARC
  5
6C1
  8
0
  6
CONTINUOUS
 62
     7
 10
92.509043439699994
 20
150.87506601690001
 30
0.0
 40
11.41429685746653
 50
179.37286256249999
 51
180.0254296347
  0
LINE
  5
6C2
  8
0
  6
CONTINUOUS
 62
     7
 10
77.705252293599997
 20
149.0
 30
0.0
 11
77.705252293599997
 21
149.13
 31
0.0
  0
LINE
  5
6C3
  8
0
  6
CONTINUOUS
 62
     7
 10
81.305252293599992
 20
149.13
 30
0.0
 11
81.305252293599992
 21
149.0
 31
0.0
  0
ARC
  5
6C4
  8
0
  6
CONTINUOUS
 62
     7
 10
69.89095656100001
 20
149.12493398309999
 30
0.0
 40
11.4142968568041
 50
359.37286256250002
 51
0.0254296347
  0
ARC
  5
6C5
  8
0
  6
CONTINUOUS
 62
     7
 10
91.709043438999998
 20
149.12493398309999
 30
0.0
 40
11.4142968568041
 50
179.9745703653
 51
180.62713743750001
  0
LINE
  5
6C6
  8
0
  6
CONTINUOUS
 62
     7
 10
80.294747706400003
 20
149.0
 30
0.0
 11
80.294747706400003
 21
149.13
 31
0.0
  0
ARC
  5
6C7
  8
0
  6
CONTINUOUS
 62
     7
 10
93.3090434394
 20
149.12493398309999
 30
0.0
 40
11.41429685716769
 50
179.9745703653
 51
180.62713743750001
  0
LINE
  5
6C8
  8
0
  6
CONTINUOUS
 62
     7
 10
81.894747706399997
 20
149.0
 30
0.0
 11
81.894747706399997
 21
149.13
 31
0.0
  0
LINE
  5
6C9
  8
0
  6
CONTINUOUS
 62
     7
 10
79.305252293599992
 20
150.87
 30
0.0
 11
79.0947477064
 21
150.87
 31
0.0
  0
ARC
  5
6CA
  8
0
  6
CONTINUOUS
 62
     7
 10
90.509043439400003
 20
150.87506601690001
 30
0.0
 40
11.41429685716769
 50
179.37286256249999
 51
180.0254296347
  0
ARC
  5
6CB
  8
0
  6
CONTINUOUS
 62
     7
 10
67.890956561699994
 20
150.87506601690001
 30
0.0
 40
11.414296856141689
 50
359.97457036529988
 51
0.6271374375
  0
LINE
  5
6CC
  8
0
  6
CONTINUOUS
 62
     7
 10
80.105252293600003
 20
149.13
 30
0.0
 11
80.105252293600003
 21
149.0
 31
0.0
  0
ARC
  5
6CD
  8
0
  6
CONTINUOUS
 62
     7
 10
68.6909565606
 20
149.12493398309999
 30
0.0
 40
11.41429685716769
 50
359.37286256250002
 51
0.0254296347
  0
LINE
  5
6CE
  8
0
  6
CONTINUOUS
 62
     7
 10
79.494747706400005
 20
150.87
 30
0.0
 11
79.494747706400005
 21
151.0
 31
0.0
  0
ARC
  5
6CF
  8
0
  6
CONTINUOUS
 62
     7
 10
90.909043439400008
 20
150.87506601690001
 30
0.0
 40
11.41429685716772
 50
179.37286256249999
 51
180.0254296347
  0
LINE
  5
6D0
  8
0
  6
CONTINUOUS
 62
     7
 10
79.0947477064
 20
150.87
 30
0.0
 11
79.0947477064
 21
151.0
 31
0.0
  0
LINE
  5
6D1
  8
0
  6
CONTINUOUS
 62
     7
 10
79.305252293599992
 20
151.0
 30
0.0
 11
79.305252293599992
 21
150.87
 31
0.0
  0
LINE
  5
6D2
  8
0
  6
CONTINUOUS
 62
     7
 10
81.0947477064
 20
150.87
 30
0.0
 11
81.305252293599992
 21
150.87
 31
0.0
  0
ARC
  5
6D3
  8
0
  6
CONTINUOUS
 62
     7
 10
69.89095656100001
 20
150.87506601690001
 30
0.0
 40
11.4142968568041
 50
359.97457036529988
 51
0.6271374375
  0
LINE
  5
6D4
  8
0
  6
CONTINUOUS
 62
     7
 10
79.305252293599992
 20
149.0
 30
0.0
 11
79.305252293599992
 21
149.13
 31
0.0
  0
ARC
  5
6D5
  8
0
  6
CONTINUOUS
 62
     7
 10
67.890956561699994
 20
149.12493398309999
 30
0.0
 40
11.414296856141689
 50
359.37286256250002
 51
0.0254296347
  0
LINE
  5
6D6
  8
0
  6
CONTINUOUS
 62
     7
 10
81.494747706400005
 20
151.0
 30
0.0
 11
81.494747706400005
 21
150.87
 31
0.0
  0
ARC
  5
6D7
  8
0
  6
CONTINUOUS
 62
     7
 10
92.909043439400008
 20
150.87506601690001
 30
0.0
 40
11.41429685716772
 50
179.37286256249999
 51
180.0254296347
  0
LINE
  5
6D8
  8
0
  6
CONTINUOUS
 62
     7
 10
80.294747706400003
 20
149.13
 30
0.0
 11
80.505252293599995
 21
149.13
 31
0.0
  0
ARC
  5
6D9
  8
0
  6
CONTINUOUS
 62
     7
 10
69.090956559999995
 20
149.12493398309999
 30
0.0
 40
11.41429685783014
 50
359.37286256250002
 51
0.0254296347
  0
LINE
  5
6DA
  8
0
  6
CONTINUOUS
 62
     7
 10
81.894747706399997
 20
149.13
 30
0.0
 11
82.105252293599989
 21
149.13
 31
0.0
  0
ARC
  5
6DB
  8
0
  6
CONTINUOUS
 62
     7
 10
70.6909565606
 20
149.12493398309999
 30
0.0
 40
11.414296857167731
 50
359.37286256250002
 51
0.0254296347
  0
ARC
  5
6DC
  8
0
  6
CONTINUOUS
 62
     7
 10
68.6909565606
 20
150.87506601690001
 30
0.0
 40
11.41429685716769
 50
359.97457036529988
 51
0.6271374375
  0
LINE
  5
6DD
  8
0
  6
CONTINUOUS
 62
     7
 10
80.105252293600003
 20
150.87
 30
0.0
 11
80.105252293600003
 21
151.0
 31
0.0
  0
LINE
  5
6DE
  8
0
  6
CONTINUOUS
 62
     7
 10
80.294747706400003
 20
151.0
 30
0.0
 11
80.294747706400003
 21
150.87
 31
0.0
  0
ARC
  5
6DF
  8
0
  6
CONTINUOUS
 62
     7
 10
91.709043438999998
 20
150.87506601690001
 30
0.0
 40
11.4142968568041
 50
179.37286256249999
 51
180.0254296347
  0
LINE
  5
6E0
  8
0
  6
CONTINUOUS
 62
     7
 10
81.305252293599992
 20
150.87
 30
0.0
 11
81.305252293599992
 21
151.0
 31
0.0
  0
LINE
  5
6E1
  8
0
  6
CONTINUOUS
 62
     7
 10
81.894747706399997
 20
150.87
 30
0.0
 11
82.105252293599989
 21
150.87
 31
0.0
  0
ARC
  5
6E2
  8
0
  6
CONTINUOUS
 62
     7
 10
93.3090434394
 20
150.87506601690001
 30
0.0
 40
11.41429685716769
 50
179.37286256249999
 51
180.0254296347
  0
ARC
  5
6E3
  8
0
  6
CONTINUOUS
 62
     7
 10
70.6909565606
 20
150.87506601690001
 30
0.0
 40
11.414296857167731
 50
359.97457036529988
 51
0.6271374375
  0
LINE
  5
6E4
  8
0
  6
CONTINUOUS
 62
     7
 10
78.9052522936
 20
150.87
 30
0.0
 11
78.694747706400008
 21
150.87
 31
0.0
  0
ARC
  5
6E5
  8
0
  6
CONTINUOUS
 62
     7
 10
90.109043438300006
 20
150.87506601690001
 30
0.0
 40
11.41429685614167
 50
179.37286256249999
 51
180.0254296347
  0
ARC
  5
6E6
  8
0
  6
CONTINUOUS
 62
     7
 10
67.490956561000004
 20
150.87506601690001
 30
0.0
 40
11.4142968568041
 50
359.97457036529988
 51
0.6271374375
  0
LINE
  5
6E7
  8
0
  6
CONTINUOUS
 62
     7
 10
81.705252293599997
 20
149.13
 30
0.0
 11
81.705252293599997
 21
149.0
 31
0.0
  0
LINE
  5
6E8
  8
0
  6
CONTINUOUS
 62
     7
 10
78.694747706400008
 20
149.13
 30
0.0
 11
78.694747706400008
 21
149.0
 31
0.0
  0
LINE
  5
6E9
  8
0
  6
CONTINUOUS
 62
     7
 10
80.105252293600003
 20
149.13
 30
0.0
 11
79.894747706399997
 21
149.13
 31
0.0
  0
ARC
  5
6EA
  8
0
  6
CONTINUOUS
 62
     7
 10
91.309043439400014
 20
149.12493398309999
 30
0.0
 40
11.41429685716769
 50
179.9745703653
 51
180.62713743750001
  0
ARC
  5
6EB
  8
0
  6
CONTINUOUS
 62
     7
 10
92.509043439699994
 20
149.12493398309999
 30
0.0
 40
11.41429685746653
 50
179.9745703653
 51
180.62713743750001
  0
LINE
  5
6EC
  8
0
  6
CONTINUOUS
 62
     7
 10
81.0947477064
 20
149.0
 30
0.0
 11
81.0947477064
 21
149.13
 31
0.0
  0
LINE
  5
6ED
  8
0
  6
CONTINUOUS
 62
     7
 10
78.505252293599995
 20
149.0
 30
0.0
 11
78.505252293599995
 21
149.13
 31
0.0
  0
ARC
  5
6EE
  8
0
  6
CONTINUOUS
 62
     7
 10
67.090956559999995
 20
149.12493398309999
 30
0.0
 40
11.41429685783014
 50
359.37286256250002
 51
0.0254296347
  0
LINE
  5
6EF
  8
0
  6
CONTINUOUS
 62
     7
 10
78.9052522936
 20
151.0
 30
0.0
 11
78.9052522936
 21
150.87
 31
0.0
  0
LINE
  5
6F0
  8
0
  6
CONTINUOUS
 62
     7
 10
80.294747706400003
 20
150.87
 30
0.0
 11
80.505252293599995
 21
150.87
 31
0.0
  0
ARC
  5
6F1
  8
0
  6
CONTINUOUS
 62
     7
 10
69.090956559999995
 20
150.87506601690001
 30
0.0
 40
11.41429685783014
 50
359.97457036529988
 51
0.6271374375
  0
LINE
  5
6F2
  8
0
  6
CONTINUOUS
 62
     7
 10
78.505252293599995
 20
149.13
 30
0.0
 11
78.294747706400003
 21
149.13
 31
0.0
  0
ARC
  5
6F3
  8
0
  6
CONTINUOUS
 62
     7
 10
89.709043438999998
 20
149.12493398309999
 30
0.0
 40
11.414296856804111
 50
179.9745703653
 51
180.62713743750001
  0
LINE
  5
6F4
  8
0
  6
CONTINUOUS
 62
     7
 10
78.9052522936
 20
149.0
 30
0.0
 11
78.9052522936
 21
149.13
 31
0.0
  0
LINE
  5
6F5
  8
0
  6
CONTINUOUS
 62
     7
 10
80.694747706400008
 20
151.0
 30
0.0
 11
80.694747706400008
 21
150.87
 31
0.0
  0
ARC
  5
6F6
  8
0
  6
CONTINUOUS
 62
     7
 10
92.109043438300006
 20
150.87506601690001
 30
0.0
 40
11.41429685614167
 50
179.37286256249999
 51
180.0254296347
  0
LINE
  5
6F7
  8
0
  6
CONTINUOUS
 62
     7
 10
80.505252293599995
 20
150.87
 30
0.0
 11
80.505252293599995
 21
151.0
 31
0.0
  0
LINE
  5
6F8
  8
0
  6
CONTINUOUS
 62
     7
 10
81.494747706400005
 20
149.0
 30
0.0
 11
81.494747706400005
 21
149.13
 31
0.0
  0
LINE
  5
6F9
  8
0
  6
CONTINUOUS
 62
     7
 10
77.894747706399997
 20
150.87
 30
0.0
 11
77.894747706399997
 21
151.0
 31
0.0
  0
ARC
  5
6FA
  8
0
  6
CONTINUOUS
 62
     7
 10
89.309043439399986
 20
150.87506601690001
 30
0.0
 40
11.41429685716769
 50
179.37286256249999
 51
180.0254296347
  0
ARC
  5
6FB
  8
0
  6
CONTINUOUS
 62
     7
 10
90.509043439400003
 20
149.12493398309999
 30
0.0
 40
11.41429685716769
 50
179.9745703653
 51
180.62713743750001
  0
LINE
  5
6FC
  8
0
  6
CONTINUOUS
 62
     7
 10
79.0947477064
 20
149.13
 30
0.0
 11
79.0947477064
 21
149.0
 31
0.0
  0
LINE
  5
6FD
  8
0
  6
CONTINUOUS
 62
     7
 10
77.705252293599997
 20
151.0
 30
0.0
 11
77.705252293599997
 21
150.87
 31
0.0
  0
LINE
  5
6FE
  8
0
  6
CONTINUOUS
 62
     7
 10
80.9052522936
 20
149.13
 30
0.0
 11
80.9052522936
 21
149.0
 31
0.0
  0
ARC
  5
6FF
  8
0
  6
CONTINUOUS
 62
     7
 10
69.490956560599983
 20
149.12493398309999
 30
0.0
 40
11.41429685716769
 50
359.37286256250002
 51
0.0254296347
  0
LINE
  5
700
  8
0
  6
CONTINUOUS
 62
     7
 10
82.105252293599989
 20
150.87
 30
0.0
 11
82.105252293599989
 21
151.0
 31
0.0
  0
ARC
  5
701
  8
0
  6
CONTINUOUS
 62
     7
 10
90.909043439400008
 20
149.12493398309999
 30
0.0
 40
11.41429685716772
 50
179.9745703653
 51
180.62713743750001
  0
LINE
  5
702
  8
0
  6
CONTINUOUS
 62
     7
 10
79.494747706400005
 20
149.13
 30
0.0
 11
79.494747706400005
 21
149.0
 31
0.0
  0
LINE
  5
703
  8
0
  6
CONTINUOUS
 62
     7
 10
82.294747706400017
 20
149.0
 30
0.0
 11
82.294747706400017
 21
149.13
 31
0.0
  0
LINE
  5
704
  8
0
  6
CONTINUOUS
 62
     7
 10
80.694747706400008
 20
149.13
 30
0.0
 11
80.9052522936
 21
149.13
 31
0.0
  0
ARC
  5
705
  8
0
  6
CONTINUOUS
 62
     7
 10
92.109043438300006
 20
149.12493398309999
 30
0.0
 40
11.41429685614167
 50
179.9745703653
 51
180.62713743750001
  0
LINE
  5
706
  8
0
  6
CONTINUOUS
 62
     7
 10
79.705252293599983
 20
149.13
 30
0.0
 11
79.494747706400005
 21
149.13
 31
0.0
  0
ARC
  5
707
  8
0
  6
CONTINUOUS
 62
     7
 10
68.2909565617
 20
149.12493398309999
 30
0.0
 40
11.41429685614167
 50
359.37286256250002
 51
0.0254296347
  0
LINE
  5
708
  8
0
  6
CONTINUOUS
 62
     7
 10
81.494747706400005
 20
150.87
 30
0.0
 11
81.705252293599997
 21
150.87
 31
0.0
  0
ARC
  5
709
  8
0
  6
CONTINUOUS
 62
     7
 10
70.290956561699986
 20
150.87506601690001
 30
0.0
 40
11.41429685614167
 50
359.97457036529988
 51
0.6271374375
  0
LINE
  5
70A
  8
0
  6
CONTINUOUS
 62
     7
 10
81.0947477064
 20
149.13
 30
0.0
 11
81.305252293599992
 21
149.13
 31
0.0
  0
LINE
  5
70B
  8
0
  6
CONTINUOUS
 62
     7
 10
79.305252293599992
 20
149.13
 30
0.0
 11
79.0947477064
 21
149.13
 31
0.0
  0
LINE
  5
70C
  8
0
  6
CONTINUOUS
 62
     7
 10
79.894747706399997
 20
150.87
 30
0.0
 11
79.894747706399997
 21
151.0
 31
0.0
  0
ARC
  5
70D
  8
0
  6
CONTINUOUS
 62
     7
 10
91.309043439400014
 20
150.87506601690001
 30
0.0
 40
11.41429685716769
 50
179.37286256249999
 51
180.0254296347
  0
ARC
  5
70E
  8
0
  6
CONTINUOUS
 62
     7
 10
66.6909565606
 20
150.87506601690001
 30
0.0
 40
11.41429685716769
 50
359.97457036529988
 51
0.6271374375
  0
LINE
  5
70F
  8
0
  6
CONTINUOUS
 62
     7
 10
78.105252293600003
 20
151.0
 30
0.0
 11
78.105252293600003
 21
150.87
 31
0.0
  0
LINE
  5
710
  8
0
  6
CONTINUOUS
 62
     7
 10
81.705252293599997
 20
150.87
 30
0.0
 11
81.705252293599997
 21
151.0
 31
0.0
  0
LINE
  5
711
  8
0
  6
CONTINUOUS
 62
     7
 10
80.505252293599995
 20
149.13
 30
0.0
 11
80.505252293599995
 21
149.0
 31
0.0
  0
LINE
  5
712
  8
0
  6
CONTINUOUS
 62
     7
 10
80.694747706400008
 20
149.0
 30
0.0
 11
80.694747706400008
 21
149.13
 31
0.0
  0
LINE
  5
713
  8
0
  6
CONTINUOUS
 62
     7
 10
78.294747706400003
 20
150.87
 30
0.0
 11
78.294747706400003
 21
151.0
 31
0.0
  0
ARC
  5
714
  8
0
  6
CONTINUOUS
 62
     7
 10
89.709043438999998
 20
150.87506601690001
 30
0.0
 40
11.414296856804111
 50
179.37286256249999
 51
180.0254296347
  0
LINE
  5
715
  8
0
  6
CONTINUOUS
 62
     7
 10
80.694747706400008
 20
150.87
 30
0.0
 11
80.9052522936
 21
150.87
 31
0.0
  0
LINE
  5
716
  8
0
  6
CONTINUOUS
 62
     7
 10
79.705252293599983
 20
150.87
 30
0.0
 11
79.494747706400005
 21
150.87
 31
0.0
  0
ARC
  5
717
  8
0
  6
CONTINUOUS
 62
     7
 10
68.2909565617
 20
150.87506601690001
 30
0.0
 40
11.41429685614167
 50
359.97457036529988
 51
0.6271374375
  0
LINE
  5
718
  8
0
  6
CONTINUOUS
 62
     7
 10
78.505252293599995
 20
150.87
 30
0.0
 11
78.294747706400003
 21
150.87
 31
0.0
  0
ARC
  5
719
  8
0
  6
CONTINUOUS
 62
     7
 10
67.090956559999995
 20
150.87506601690001
 30
0.0
 40
11.41429685783014
 50
359.97457036529988
 51
0.6271374375
  0
LINE
  5
71A
  8
0
  6
CONTINUOUS
 62
     7
 10
81.894747706399997
 20
151.0
 30
0.0
 11
81.894747706399997
 21
150.87
 31
0.0
  0
LINE
  5
71B
  8
0
  6
CONTINUOUS
 62
     7
 10
78.505252293599995
 20
151.0
 30
0.0
 11
78.505252293599995
 21
150.87
 31
0.0
  0
LINE
  5
71C
  8
0
  6
CONTINUOUS
 62
     7
 10
79.705252293599983
 20
149.0
 30
0.0
 11
79.705252293599983
 21
149.13
 31
0.0
  0
LINE
  5
71D
  8
0
  6
CONTINUOUS
 62
     7
 10
82.294747706400017
 20
151.0
 30
0.0
 11
82.294747706400017
 21
150.87
 31
0.0
  0
LINE
  5
71E
  8
0
  6
CONTINUOUS
 62
     7
 10
78.105252293600003
 20
149.0
 30
0.0
 11
78.105252293600003
 21
149.13
 31
0.0
  0
ARC
  5
71F
  8
0
  6
CONTINUOUS
 62
     7
 10
66.6909565606
 20
149.12493398309999
 30
0.0
 40
11.41429685716769
 50
359.37286256250002
 51
0.0254296347
  0
LINE
  5
720
  8
0
  6
CONTINUOUS
 62
     7
 10
78.294747706400003
 20
149.13
 30
0.0
 11
78.294747706400003
 21
149.0
 31
0.0
  0
LINE
  5
721
  8
0
  6
CONTINUOUS
 62
     7
 10
79.894747706399997
 20
149.13
 30
0.0
 11
79.894747706399997
 21
149.0
 31
0.0
  0
LINE
  5
722
  8
0
  6
CONTINUOUS
 62
     7
 10
78.694747706400008
 20
150.87
 30
0.0
 11
78.694747706400008
 21
151.0
 31
0.0
  0
LINE
  5
723
  8
0
  6
CONTINUOUS
 62
     7
 10
78.105252293600003
 20
149.13
 30
0.0
 11
77.894747706399997
 21
149.13
 31
0.0
  0
LINE
  5
724
  8
0
  6
CONTINUOUS
 62
     7
 10
79.705252293599983
 20
151.0
 30
0.0
 11
79.705252293599983
 21
150.87
 31
0.0
  0
LINE
  5
725
  8
0
  6
CONTINUOUS
 62
     7
 10
78.105252293600003
 20
150.87
 30
0.0
 11
77.894747706399997
 21
150.87
 31
0.0
  0
LINE
  5
726
  8
0
  6
CONTINUOUS
 62
     7
 10
80.105252293600003
 20
150.87
 30
0.0
 11
79.894747706399997
 21
150.87
 31
0.0
  0
LINE
  5
727
  8
0
  6
CONTINUOUS
 62
     7
 10
82.105252293599989
 20
149.13
 30
0.0
 11
82.105252293599989
 21
149.0
 31
0.0
  0
LINE
  5
728
  8
0
  6
CONTINUOUS
 62
     7
 10
79.724999999999994
 20
147.92500000000001
 30
0.0
 11
79.875
 21
147.92500000000001
 31
0.0
  0
LINE
  5
729
  8
0
  6
CONTINUOUS
 62
     7
 10
79.724999999999994
 20
147.92500000000001
 30
0.0
 11
79.724999999999994
 21
147.9499999999999
 31
0.0
  0
LINE
  5
72A
  8
0
  6
CONTINUOUS
 62
     7
 10
79.875
 20
147.9499999999999
 30
0.0
 11
79.875
 21
147.92500000000001
 31
0.0
  0
LINE
  5
72B
  8
0
  6
CONTINUOUS
 62
     7
 10
79.724999999999994
 20
152.0749999999999
 30
0.0
 11
79.875
 21
152.0749999999999
 31
0.0
  0
LINE
  5
72C
  8
0
  6
CONTINUOUS
 62
     7
 10
79.875
 20
152.05000000000001
 30
0.0
 11
79.875
 21
152.0749999999999
 31
0.0
  0
LINE
  5
72D
  8
0
  6
CONTINUOUS
 62
     7
 10
79.724999999999994
 20
152.0749999999999
 30
0.0
 11
79.724999999999994
 21
152.05000000000001
 31
0.0
  0
LINE
  5
72E
  8
0
  6
CONTINUOUS
 62
     7
 10
81.875
 20
147.92500000000001
 30
0.0
 11
81.724999999999994
 21
147.92500000000001
 31
0.0
  0
LINE
  5
72F
  8
0
  6
CONTINUOUS
 62
     7
 10
81.724999999999994
 20
147.9499999999999
 30
0.0
 11
81.724999999999994
 21
147.92500000000001
 31
0.0
  0
LINE
  5
730
  8
0
  6
CONTINUOUS
 62
     7
 10
81.875
 20
147.92500000000001
 30
0.0
 11
81.875
 21
147.9499999999999
 31
0.0
  0
LINE
  5
731
  8
0
  6
CONTINUOUS
 62
     7
 10
81.875
 20
152.0749999999999
 30
0.0
 11
81.724999999999994
 21
152.0749999999999
 31
0.0
  0
LINE
  5
732
  8
0
  6
CONTINUOUS
 62
     7
 10
81.875
 20
152.0749999999999
 30
0.0
 11
81.875
 21
152.05000000000001
 31
0.0
  0
LINE
  5
733
  8
0
  6
CONTINUOUS
 62
     7
 10
81.724999999999994
 20
152.05000000000001
 30
0.0
 11
81.724999999999994
 21
152.0749999999999
 31
0.0
  0
LINE
  5
734
  8
0
  6
CONTINUOUS
 62
     7
 10
79.325000000000003
 20
152.0749999999999
 30
0.0
 11
79.474999999999994
 21
152.0749999999999
 31
0.0
  0
LINE
  5
735
  8
0
  6
CONTINUOUS
 62
     7
 10
79.474999999999994
 20
152.05000000000001
 30
0.0
 11
79.474999999999994
 21
152.0749999999999
 31
0.0
  0
LINE
  5
736
  8
0
  6
CONTINUOUS
 62
     7
 10
79.325000000000003
 20
152.0749999999999
 30
0.0
 11
79.325000000000003
 21
152.05000000000001
 31
0.0
  0
LINE
  5
737
  8
0
  6
CONTINUOUS
 62
     7
 10
82.275000000000006
 20
152.0749999999999
 30
0.0
 11
82.125
 21
152.0749999999999
 31
0.0
  0
LINE
  5
738
  8
0
  6
CONTINUOUS
 62
     7
 10
82.275000000000006
 20
152.0749999999999
 30
0.0
 11
82.275000000000006
 21
152.05000000000001
 31
0.0
  0
LINE
  5
739
  8
0
  6
CONTINUOUS
 62
     7
 10
82.125
 20
152.05000000000001
 30
0.0
 11
82.125
 21
152.0749999999999
 31
0.0
  0
LINE
  5
73A
  8
0
  6
CONTINUOUS
 62
     7
 10
81.074999999999989
 20
152.0749999999999
 30
0.0
 11
80.924999999999983
 21
152.0749999999999
 31
0.0
  0
LINE
  5
73B
  8
0
  6
CONTINUOUS
 62
     7
 10
81.074999999999989
 20
152.0749999999999
 30
0.0
 11
81.074999999999989
 21
152.05000000000001
 31
0.0
  0
LINE
  5
73C
  8
0
  6
CONTINUOUS
 62
     7
 10
80.924999999999983
 20
152.05000000000001
 30
0.0
 11
80.924999999999983
 21
152.0749999999999
 31
0.0
  0
LINE
  5
73D
  8
0
  6
CONTINUOUS
 62
     7
 10
79.325000000000003
 20
147.92500000000001
 30
0.0
 11
79.474999999999994
 21
147.92500000000001
 31
0.0
  0
LINE
  5
73E
  8
0
  6
CONTINUOUS
 62
     7
 10
79.325000000000003
 20
147.92500000000001
 30
0.0
 11
79.325000000000003
 21
147.9499999999999
 31
0.0
  0
LINE
  5
73F
  8
0
  6
CONTINUOUS
 62
     7
 10
79.474999999999994
 20
147.9499999999999
 30
0.0
 11
79.474999999999994
 21
147.92500000000001
 31
0.0
  0
LINE
  5
740
  8
0
  6
CONTINUOUS
 62
     7
 10
81.074999999999989
 20
147.92500000000001
 30
0.0
 11
80.924999999999983
 21
147.92500000000001
 31
0.0
  0
LINE
  5
741
  8
0
  6
CONTINUOUS
 62
     7
 10
81.074999999999989
 20
147.92500000000001
 30
0.0
 11
81.074999999999989
 21
147.9499999999999
 31
0.0
  0
LINE
  5
742
  8
0
  6
CONTINUOUS
 62
     7
 10
80.924999999999983
 20
147.9499999999999
 30
0.0
 11
80.924999999999983
 21
147.92500000000001
 31
0.0
  0
LINE
  5
743
  8
0
  6
CONTINUOUS
 62
     7
 10
82.275000000000006
 20
147.92500000000001
 30
0.0
 11
82.125
 21
147.92500000000001
 31
0.0
  0
LINE
  5
744
  8
0
  6
CONTINUOUS
 62
     7
 10
82.125
 20
147.9499999999999
 30
0.0
 11
82.125
 21
147.92500000000001
 31
0.0
  0
LINE
  5
745
  8
0
  6
CONTINUOUS
 62
     7
 10
82.275000000000006
 20
147.92500000000001
 30
0.0
 11
82.275000000000006
 21
147.9499999999999
 31
0.0
  0
LINE
  5
746
  8
0
  6
CONTINUOUS
 62
     7
 10
81.474999999999994
 20
152.0749999999999
 30
0.0
 11
81.325000000000003
 21
152.0749999999999
 31
0.0
  0
LINE
  5
747
  8
0
  6
CONTINUOUS
 62
     7
 10
81.325000000000003
 20
152.05000000000001
 30
0.0
 11
81.325000000000003
 21
152.0749999999999
 31
0.0
  0
LINE
  5
748
  8
0
  6
CONTINUOUS
 62
     7
 10
81.474999999999994
 20
152.0749999999999
 30
0.0
 11
81.474999999999994
 21
152.05000000000001
 31
0.0
  0
LINE
  5
749
  8
0
  6
CONTINUOUS
 62
     7
 10
78.924999999999997
 20
152.0749999999999
 30
0.0
 11
79.075000000000003
 21
152.0749999999999
 31
0.0
  0
LINE
  5
74A
  8
0
  6
CONTINUOUS
 62
     7
 10
79.075000000000003
 20
152.05000000000001
 30
0.0
 11
79.075000000000003
 21
152.0749999999999
 31
0.0
  0
LINE
  5
74B
  8
0
  6
CONTINUOUS
 62
     7
 10
78.924999999999997
 20
152.0749999999999
 30
0.0
 11
78.924999999999997
 21
152.05000000000001
 31
0.0
  0
LINE
  5
74C
  8
0
  6
CONTINUOUS
 62
     7
 10
81.474999999999994
 20
147.92500000000001
 30
0.0
 11
81.325000000000003
 21
147.92500000000001
 31
0.0
  0
LINE
  5
74D
  8
0
  6
CONTINUOUS
 62
     7
 10
81.325000000000003
 20
147.9499999999999
 30
0.0
 11
81.325000000000003
 21
147.92500000000001
 31
0.0
  0
LINE
  5
74E
  8
0
  6
CONTINUOUS
 62
     7
 10
81.474999999999994
 20
147.92500000000001
 30
0.0
 11
81.474999999999994
 21
147.9499999999999
 31
0.0
  0
LINE
  5
74F
  8
0
  6
CONTINUOUS
 62
     7
 10
78.924999999999997
 20
147.92500000000001
 30
0.0
 11
79.075000000000003
 21
147.92500000000001
 31
0.0
  0
LINE
  5
750
  8
0
  6
CONTINUOUS
 62
     7
 10
79.075000000000003
 20
147.9499999999999
 30
0.0
 11
79.075000000000003
 21
147.92500000000001
 31
0.0
  0
LINE
  5
751
  8
0
  6
CONTINUOUS
 62
     7
 10
78.924999999999997
 20
147.92500000000001
 30
0.0
 11
78.924999999999997
 21
147.9499999999999
 31
0.0
  0
LINE
  5
752
  8
0
  6
CONTINUOUS
 62
     7
 10
78.525000000000006
 20
152.0749999999999
 30
0.0
 11
78.674999999999983
 21
152.0749999999999
 31
0.0
  0
LINE
  5
753
  8
0
  6
CONTINUOUS
 62
     7
 10
78.525000000000006
 20
152.0749999999999
 30
0.0
 11
78.525000000000006
 21
152.05000000000001
 31
0.0
  0
LINE
  5
754
  8
0
  6
CONTINUOUS
 62
     7
 10
78.674999999999983
 20
152.05000000000001
 30
0.0
 11
78.674999999999983
 21
152.0749999999999
 31
0.0
  0
LINE
  5
755
  8
0
  6
CONTINUOUS
 62
     7
 10
78.125
 20
147.92500000000001
 30
0.0
 11
78.275000000000006
 21
147.92500000000001
 31
0.0
  0
LINE
  5
756
  8
0
  6
CONTINUOUS
 62
     7
 10
78.125
 20
147.92500000000001
 30
0.0
 11
78.125
 21
147.9499999999999
 31
0.0
  0
LINE
  5
757
  8
0
  6
CONTINUOUS
 62
     7
 10
78.275000000000006
 20
147.9499999999999
 30
0.0
 11
78.275000000000006
 21
147.92500000000001
 31
0.0
  0
LINE
  5
758
  8
0
  6
CONTINUOUS
 62
     7
 10
80.275000000000006
 20
147.92500000000001
 30
0.0
 11
80.125000000000014
 21
147.92500000000001
 31
0.0
  0
LINE
  5
759
  8
0
  6
CONTINUOUS
 62
     7
 10
80.125000000000014
 20
147.9499999999999
 30
0.0
 11
80.125000000000014
 21
147.92500000000001
 31
0.0
  0
LINE
  5
75A
  8
0
  6
CONTINUOUS
 62
     7
 10
80.275000000000006
 20
147.92500000000001
 30
0.0
 11
80.275000000000006
 21
147.9499999999999
 31
0.0
  0
LINE
  5
75B
  8
0
  6
CONTINUOUS
 62
     7
 10
78.525000000000006
 20
147.92500000000001
 30
0.0
 11
78.674999999999983
 21
147.92500000000001
 31
0.0
  0
LINE
  5
75C
  8
0
  6
CONTINUOUS
 62
     7
 10
78.674999999999983
 20
147.9499999999999
 30
0.0
 11
78.674999999999983
 21
147.92500000000001
 31
0.0
  0
LINE
  5
75D
  8
0
  6
CONTINUOUS
 62
     7
 10
78.525000000000006
 20
147.92500000000001
 30
0.0
 11
78.525000000000006
 21
147.9499999999999
 31
0.0
  0
LINE
  5
75E
  8
0
  6
CONTINUOUS
 62
     7
 10
77.724999999999994
 20
152.0749999999999
 30
0.0
 11
77.875
 21
152.0749999999999
 31
0.0
  0
LINE
  5
75F
  8
0
  6
CONTINUOUS
 62
     7
 10
77.875
 20
152.05000000000001
 30
0.0
 11
77.875
 21
152.0749999999999
 31
0.0
  0
LINE
  5
760
  8
0
  6
CONTINUOUS
 62
     7
 10
77.724999999999994
 20
152.0749999999999
 30
0.0
 11
77.724999999999994
 21
152.05000000000001
 31
0.0
  0
LINE
  5
761
  8
0
  6
CONTINUOUS
 62
     7
 10
78.125
 20
152.0749999999999
 30
0.0
 11
78.275000000000006
 21
152.0749999999999
 31
0.0
  0
LINE
  5
762
  8
0
  6
CONTINUOUS
 62
     7
 10
78.275000000000006
 20
152.05000000000001
 30
0.0
 11
78.275000000000006
 21
152.0749999999999
 31
0.0
  0
LINE
  5
763
  8
0
  6
CONTINUOUS
 62
     7
 10
78.125
 20
152.0749999999999
 30
0.0
 11
78.125
 21
152.05000000000001
 31
0.0
  0
LINE
  5
764
  8
0
  6
CONTINUOUS
 62
     7
 10
80.275000000000006
 20
152.0749999999999
 30
0.0
 11
80.125000000000014
 21
152.0749999999999
 31
0.0
  0
LINE
  5
765
  8
0
  6
CONTINUOUS
 62
     7
 10
80.125000000000014
 20
152.05000000000001
 30
0.0
 11
80.125000000000014
 21
152.0749999999999
 31
0.0
  0
LINE
  5
766
  8
0
  6
CONTINUOUS
 62
     7
 10
80.275000000000006
 20
152.0749999999999
 30
0.0
 11
80.275000000000006
 21
152.05000000000001
 31
0.0
  0
LINE
  5
767
  8
0
  6
CONTINUOUS
 62
     7
 10
80.674999999999997
 20
147.92500000000001
 30
0.0
 11
80.525000000000006
 21
147.92500000000001
 31
0.0
  0
LINE
  5
768
  8
0
  6
CONTINUOUS
 62
     7
 10
80.525000000000006
 20
147.9499999999999
 30
0.0
 11
80.525000000000006
 21
147.92500000000001
 31
0.0
  0
LINE
  5
769
  8
0
  6
CONTINUOUS
 62
     7
 10
80.674999999999997
 20
147.92500000000001
 30
0.0
 11
80.674999999999997
 21
147.9499999999999
 31
0.0
  0
LINE
  5
76A
  8
0
  6
CONTINUOUS
 62
     7
 10
77.724999999999994
 20
147.92500000000001
 30
0.0
 11
77.875
 21
147.92500000000001
 31
0.0
  0
LINE
  5
76B
  8
0
  6
CONTINUOUS
 62
     7
 10
77.724999999999994
 20
147.92500000000001
 30
0.0
 11
77.724999999999994
 21
147.9499999999999
 31
0.0
  0
LINE
  5
76C
  8
0
  6
CONTINUOUS
 62
     7
 10
77.875
 20
147.9499999999999
 30
0.0
 11
77.875
 21
147.92500000000001
 31
0.0
  0
LINE
  5
76D
  8
0
  6
CONTINUOUS
 62
     7
 10
80.674999999999997
 20
152.0749999999999
 30
0.0
 11
80.525000000000006
 21
152.0749999999999
 31
0.0
  0
LINE
  5
76E
  8
0
  6
CONTINUOUS
 62
     7
 10
80.525000000000006
 20
152.05000000000001
 30
0.0
 11
80.525000000000006
 21
152.0749999999999
 31
0.0
  0
LINE
  5
76F
  8
0
  6
CONTINUOUS
 62
     7
 10
80.674999999999997
 20
152.0749999999999
 30
0.0
 11
80.674999999999997
 21
152.05000000000001
 31
0.0
  0
LINE
  5
770
  8
0
  6
CONTINUOUS
 62
     7
 10
81.875
 20
152.39586187139989
 30
0.0
 11
81.724999999999994
 21
152.39586187139989
 31
0.0
  0
LINE
  5
771
  8
0
  6
CONTINUOUS
 62
     7
 10
81.724999999999994
 20
152.0749999999999
 30
0.0
 11
81.724999999999994
 21
152.39586187139989
 31
0.0
  0
LINE
  5
772
  8
0
  6
CONTINUOUS
 62
     7
 10
81.875
 20
152.39586187139989
 30
0.0
 11
81.875
 21
152.0749999999999
 31
0.0
  0
LINE
  5
773
  8
0
  6
CONTINUOUS
 62
     7
 10
81.875
 20
147.6041381286
 30
0.0
 11
81.724999999999994
 21
147.6041381286
 31
0.0
  0
LINE
  5
774
  8
0
  6
CONTINUOUS
 62
     7
 10
81.724999999999994
 20
147.92500000000001
 30
0.0
 11
81.724999999999994
 21
147.6041381286
 31
0.0
  0
LINE
  5
775
  8
0
  6
CONTINUOUS
 62
     7
 10
81.875
 20
147.6041381286
 30
0.0
 11
81.875
 21
147.92500000000001
 31
0.0
  0
LINE
  5
776
  8
0
  6
CONTINUOUS
 62
     7
 10
80.674999999999997
 20
152.39586187139989
 30
0.0
 11
80.525000000000006
 21
152.39586187139989
 31
0.0
  0
LINE
  5
777
  8
0
  6
CONTINUOUS
 62
     7
 10
80.525000000000006
 20
152.0749999999999
 30
0.0
 11
80.525000000000006
 21
152.39586187139989
 31
0.0
  0
LINE
  5
778
  8
0
  6
CONTINUOUS
 62
     7
 10
80.674999999999997
 20
152.39586187139989
 30
0.0
 11
80.674999999999997
 21
152.0749999999999
 31
0.0
  0
LINE
  5
779
  8
0
  6
CONTINUOUS
 62
     7
 10
80.674999999999997
 20
147.6041381286
 30
0.0
 11
80.525000000000006
 21
147.6041381286
 31
0.0
  0
LINE
  5
77A
  8
0
  6
CONTINUOUS
 62
     7
 10
80.525000000000006
 20
147.92500000000001
 30
0.0
 11
80.525000000000006
 21
147.6041381286
 31
0.0
  0
LINE
  5
77B
  8
0
  6
CONTINUOUS
 62
     7
 10
80.674999999999997
 20
147.6041381286
 30
0.0
 11
80.674999999999997
 21
147.92500000000001
 31
0.0
  0
LINE
  5
77C
  8
0
  6
CONTINUOUS
 62
     7
 10
78.924999999999997
 20
152.39586187139989
 30
0.0
 11
79.075000000000003
 21
152.39586187139989
 31
0.0
  0
LINE
  5
77D
  8
0
  6
CONTINUOUS
 62
     7
 10
79.075000000000003
 20
152.0749999999999
 30
0.0
 11
79.075000000000003
 21
152.39586187139989
 31
0.0
  0
LINE
  5
77E
  8
0
  6
CONTINUOUS
 62
     7
 10
78.924999999999997
 20
152.39586187139989
 30
0.0
 11
78.924999999999997
 21
152.0749999999999
 31
0.0
  0
LINE
  5
77F
  8
0
  6
CONTINUOUS
 62
     7
 10
80.275000000000006
 20
147.6041381286
 30
0.0
 11
80.125000000000014
 21
147.6041381286
 31
0.0
  0
LINE
  5
780
  8
0
  6
CONTINUOUS
 62
     7
 10
80.125000000000014
 20
147.92500000000001
 30
0.0
 11
80.125000000000014
 21
147.6041381286
 31
0.0
  0
LINE
  5
781
  8
0
  6
CONTINUOUS
 62
     7
 10
80.275000000000006
 20
147.6041381286
 30
0.0
 11
80.275000000000006
 21
147.92500000000001
 31
0.0
  0
LINE
  5
782
  8
0
  6
CONTINUOUS
 62
     7
 10
80.674999999999997
 20
152.55000000000001
 30
0.0
 11
80.525000000000006
 21
152.55000000000001
 31
0.0
  0
LINE
  5
783
  8
0
  6
CONTINUOUS
 62
     7
 10
80.525000000000006
 20
152.39586187139989
 30
0.0
 11
80.525000000000006
 21
152.55000000000001
 31
0.0
  0
LINE
  5
784
  8
0
  6
CONTINUOUS
 62
     7
 10
80.674999999999997
 20
152.55000000000001
 30
0.0
 11
80.674999999999997
 21
152.39586187139989
 31
0.0
  0
LINE
  5
785
  8
0
  6
CONTINUOUS
 62
     7
 10
80.674999999999997
 20
147.4499999999999
 30
0.0
 11
80.525000000000006
 21
147.4499999999999
 31
0.0
  0
LINE
  5
786
  8
0
  6
CONTINUOUS
 62
     7
 10
80.525000000000006
 20
147.6041381286
 30
0.0
 11
80.525000000000006
 21
147.4499999999999
 31
0.0
  0
LINE
  5
787
  8
0
  6
CONTINUOUS
 62
     7
 10
80.674999999999997
 20
147.4499999999999
 30
0.0
 11
80.674999999999997
 21
147.6041381286
 31
0.0
  0
LINE
  5
788
  8
0
  6
CONTINUOUS
 62
     7
 10
81.074999999999989
 20
152.55000000000001
 30
0.0
 11
80.924999999999983
 21
152.55000000000001
 31
0.0
  0
LINE
  5
789
  8
0
  6
CONTINUOUS
 62
     7
 10
81.074999999999989
 20
152.39586187139989
 30
0.0
 11
80.924999999999983
 21
152.39586187139989
 31
0.0
  0
LINE
  5
78A
  8
0
  6
CONTINUOUS
 62
     7
 10
80.924999999999983
 20
152.39586187139989
 30
0.0
 11
80.924999999999983
 21
152.55000000000001
 31
0.0
  0
LINE
  5
78B
  8
0
  6
CONTINUOUS
 62
     7
 10
81.074999999999989
 20
152.55000000000001
 30
0.0
 11
81.074999999999989
 21
152.39586187139989
 31
0.0
  0
LINE
  5
78C
  8
0
  6
CONTINUOUS
 62
     7
 10
80.924999999999983
 20
152.0749999999999
 30
0.0
 11
80.924999999999983
 21
152.39586187139989
 31
0.0
  0
LINE
  5
78D
  8
0
  6
CONTINUOUS
 62
     7
 10
81.074999999999989
 20
152.39586187139989
 30
0.0
 11
81.074999999999989
 21
152.0749999999999
 31
0.0
  0
LINE
  5
78E
  8
0
  6
CONTINUOUS
 62
     7
 10
81.074999999999989
 20
147.6041381286
 30
0.0
 11
80.924999999999983
 21
147.6041381286
 31
0.0
  0
LINE
  5
78F
  8
0
  6
CONTINUOUS
 62
     7
 10
81.074999999999989
 20
147.6041381286
 30
0.0
 11
81.074999999999989
 21
147.92500000000001
 31
0.0
  0
LINE
  5
790
  8
0
  6
CONTINUOUS
 62
     7
 10
80.924999999999983
 20
147.92500000000001
 30
0.0
 11
80.924999999999983
 21
147.6041381286
 31
0.0
  0
LINE
  5
791
  8
0
  6
CONTINUOUS
 62
     7
 10
81.474999999999994
 20
152.39586187139989
 30
0.0
 11
81.325000000000003
 21
152.39586187139989
 31
0.0
  0
LINE
  5
792
  8
0
  6
CONTINUOUS
 62
     7
 10
81.325000000000003
 20
152.0749999999999
 30
0.0
 11
81.325000000000003
 21
152.39586187139989
 31
0.0
  0
LINE
  5
793
  8
0
  6
CONTINUOUS
 62
     7
 10
81.474999999999994
 20
152.39586187139989
 30
0.0
 11
81.474999999999994
 21
152.0749999999999
 31
0.0
  0
LINE
  5
794
  8
0
  6
CONTINUOUS
 62
     7
 10
81.474999999999994
 20
147.6041381286
 30
0.0
 11
81.325000000000003
 21
147.6041381286
 31
0.0
  0
LINE
  5
795
  8
0
  6
CONTINUOUS
 62
     7
 10
81.325000000000003
 20
147.92500000000001
 30
0.0
 11
81.325000000000003
 21
147.6041381286
 31
0.0
  0
LINE
  5
796
  8
0
  6
CONTINUOUS
 62
     7
 10
81.474999999999994
 20
147.6041381286
 30
0.0
 11
81.474999999999994
 21
147.92500000000001
 31
0.0
  0
LINE
  5
797
  8
0
  6
CONTINUOUS
 62
     7
 10
79.724999999999994
 20
152.39586187139989
 30
0.0
 11
79.875
 21
152.39586187139989
 31
0.0
  0
LINE
  5
798
  8
0
  6
CONTINUOUS
 62
     7
 10
79.875
 20
152.0749999999999
 30
0.0
 11
79.875
 21
152.39586187139989
 31
0.0
  0
LINE
  5
799
  8
0
  6
CONTINUOUS
 62
     7
 10
79.724999999999994
 20
152.39586187139989
 30
0.0
 11
79.724999999999994
 21
152.0749999999999
 31
0.0
  0
LINE
  5
79A
  8
0
  6
CONTINUOUS
 62
     7
 10
81.074999999999989
 20
147.4499999999999
 30
0.0
 11
80.924999999999983
 21
147.4499999999999
 31
0.0
  0
LINE
  5
79B
  8
0
  6
CONTINUOUS
 62
     7
 10
81.074999999999989
 20
147.4499999999999
 30
0.0
 11
81.074999999999989
 21
147.6041381286
 31
0.0
  0
LINE
  5
79C
  8
0
  6
CONTINUOUS
 62
     7
 10
80.924999999999983
 20
147.6041381286
 30
0.0
 11
80.924999999999983
 21
147.4499999999999
 31
0.0
  0
LINE
  5
79D
  8
0
  6
CONTINUOUS
 62
     7
 10
81.474999999999994
 20
152.55000000000001
 30
0.0
 11
81.325000000000003
 21
152.55000000000001
 31
0.0
  0
LINE
  5
79E
  8
0
  6
CONTINUOUS
 62
     7
 10
81.325000000000003
 20
152.39586187139989
 30
0.0
 11
81.325000000000003
 21
152.55000000000001
 31
0.0
  0
LINE
  5
79F
  8
0
  6
CONTINUOUS
 62
     7
 10
81.474999999999994
 20
152.55000000000001
 30
0.0
 11
81.474999999999994
 21
152.39586187139989
 31
0.0
  0
LINE
  5
7A0
  8
0
  6
CONTINUOUS
 62
     7
 10
81.474999999999994
 20
147.4499999999999
 30
0.0
 11
81.325000000000003
 21
147.4499999999999
 31
0.0
  0
LINE
  5
7A1
  8
0
  6
CONTINUOUS
 62
     7
 10
81.325000000000003
 20
147.6041381286
 30
0.0
 11
81.325000000000003
 21
147.4499999999999
 31
0.0
  0
LINE
  5
7A2
  8
0
  6
CONTINUOUS
 62
     7
 10
81.474999999999994
 20
147.4499999999999
 30
0.0
 11
81.474999999999994
 21
147.6041381286
 31
0.0
  0
LINE
  5
7A3
  8
0
  6
CONTINUOUS
 62
     7
 10
78.924999999999997
 20
152.55000000000001
 30
0.0
 11
79.075000000000003
 21
152.55000000000001
 31
0.0
  0
LINE
  5
7A4
  8
0
  6
CONTINUOUS
 62
     7
 10
79.075000000000003
 20
152.39586187139989
 30
0.0
 11
79.075000000000003
 21
152.55000000000001
 31
0.0
  0
LINE
  5
7A5
  8
0
  6
CONTINUOUS
 62
     7
 10
78.924999999999997
 20
152.55000000000001
 30
0.0
 11
78.924999999999997
 21
152.39586187139989
 31
0.0
  0
LINE
  5
7A6
  8
0
  6
CONTINUOUS
 62
     7
 10
81.875
 20
152.55000000000001
 30
0.0
 11
81.724999999999994
 21
152.55000000000001
 31
0.0
  0
LINE
  5
7A7
  8
0
  6
CONTINUOUS
 62
     7
 10
81.724999999999994
 20
152.39586187139989
 30
0.0
 11
81.724999999999994
 21
152.55000000000001
 31
0.0
  0
LINE
  5
7A8
  8
0
  6
CONTINUOUS
 62
     7
 10
81.875
 20
152.55000000000001
 30
0.0
 11
81.875
 21
152.39586187139989
 31
0.0
  0
LINE
  5
7A9
  8
0
  6
CONTINUOUS
 62
     7
 10
79.724999999999994
 20
147.4499999999999
 30
0.0
 11
79.875
 21
147.4499999999999
 31
0.0
  0
LINE
  5
7AA
  8
0
  6
CONTINUOUS
 62
     7
 10
79.724999999999994
 20
147.6041381286
 30
0.0
 11
79.875
 21
147.6041381286
 31
0.0
  0
LINE
  5
7AB
  8
0
  6
CONTINUOUS
 62
     7
 10
79.724999999999994
 20
147.4499999999999
 30
0.0
 11
79.724999999999994
 21
147.6041381286
 31
0.0
  0
LINE
  5
7AC
  8
0
  6
CONTINUOUS
 62
     7
 10
79.875
 20
147.6041381286
 30
0.0
 11
79.875
 21
147.4499999999999
 31
0.0
  0
LINE
  5
7AD
  8
0
  6
CONTINUOUS
 62
     7
 10
79.325000000000003
 20
152.39586187139989
 30
0.0
 11
79.474999999999994
 21
152.39586187139989
 31
0.0
  0
LINE
  5
7AE
  8
0
  6
CONTINUOUS
 62
     7
 10
79.325000000000003
 20
152.39586187139989
 30
0.0
 11
79.325000000000003
 21
152.0749999999999
 31
0.0
  0
LINE
  5
7AF
  8
0
  6
CONTINUOUS
 62
     7
 10
79.474999999999994
 20
152.0749999999999
 30
0.0
 11
79.474999999999994
 21
152.39586187139989
 31
0.0
  0
LINE
  5
7B0
  8
0
  6
CONTINUOUS
 62
     7
 10
79.724999999999994
 20
147.6041381286
 30
0.0
 11
79.724999999999994
 21
147.92500000000001
 31
0.0
  0
LINE
  5
7B1
  8
0
  6
CONTINUOUS
 62
     7
 10
79.875
 20
147.92500000000001
 30
0.0
 11
79.875
 21
147.6041381286
 31
0.0
  0
LINE
  5
7B2
  8
0
  6
CONTINUOUS
 62
     7
 10
79.325000000000003
 20
147.6041381286
 30
0.0
 11
79.474999999999994
 21
147.6041381286
 31
0.0
  0
LINE
  5
7B3
  8
0
  6
CONTINUOUS
 62
     7
 10
79.325000000000003
 20
147.6041381286
 30
0.0
 11
79.325000000000003
 21
147.92500000000001
 31
0.0
  0
LINE
  5
7B4
  8
0
  6
CONTINUOUS
 62
     7
 10
79.474999999999994
 20
147.92500000000001
 30
0.0
 11
79.474999999999994
 21
147.6041381286
 31
0.0
  0
LINE
  5
7B5
  8
0
  6
CONTINUOUS
 62
     7
 10
78.924999999999997
 20
147.4499999999999
 30
0.0
 11
79.075000000000003
 21
147.4499999999999
 31
0.0
  0
LINE
  5
7B6
  8
0
  6
CONTINUOUS
 62
     7
 10
78.924999999999997
 20
147.6041381286
 30
0.0
 11
79.075000000000003
 21
147.6041381286
 31
0.0
  0
LINE
  5
7B7
  8
0
  6
CONTINUOUS
 62
     7
 10
79.075000000000003
 20
147.6041381286
 30
0.0
 11
79.075000000000003
 21
147.4499999999999
 31
0.0
  0
LINE
  5
7B8
  8
0
  6
CONTINUOUS
 62
     7
 10
78.924999999999997
 20
147.4499999999999
 30
0.0
 11
78.924999999999997
 21
147.6041381286
 31
0.0
  0
LINE
  5
7B9
  8
0
  6
CONTINUOUS
 62
     7
 10
79.075000000000003
 20
147.92500000000001
 30
0.0
 11
79.075000000000003
 21
147.6041381286
 31
0.0
  0
LINE
  5
7BA
  8
0
  6
CONTINUOUS
 62
     7
 10
78.924999999999997
 20
147.6041381286
 30
0.0
 11
78.924999999999997
 21
147.92500000000001
 31
0.0
  0
LINE
  5
7BB
  8
0
  6
CONTINUOUS
 62
     7
 10
82.275000000000006
 20
152.39586187139989
 30
0.0
 11
82.125
 21
152.39586187139989
 31
0.0
  0
LINE
  5
7BC
  8
0
  6
CONTINUOUS
 62
     7
 10
82.125
 20
152.0749999999999
 30
0.0
 11
82.125
 21
152.39586187139989
 31
0.0
  0
LINE
  5
7BD
  8
0
  6
CONTINUOUS
 62
     7
 10
82.275000000000006
 20
152.39586187139989
 30
0.0
 11
82.275000000000006
 21
152.0749999999999
 31
0.0
  0
LINE
  5
7BE
  8
0
  6
CONTINUOUS
 62
     7
 10
82.275000000000006
 20
147.6041381286
 30
0.0
 11
82.125
 21
147.6041381286
 31
0.0
  0
LINE
  5
7BF
  8
0
  6
CONTINUOUS
 62
     7
 10
82.125
 20
147.92500000000001
 30
0.0
 11
82.125
 21
147.6041381286
 31
0.0
  0
LINE
  5
7C0
  8
0
  6
CONTINUOUS
 62
     7
 10
82.275000000000006
 20
147.6041381286
 30
0.0
 11
82.275000000000006
 21
147.92500000000001
 31
0.0
  0
LINE
  5
7C1
  8
0
  6
CONTINUOUS
 62
     7
 10
79.724999999999994
 20
152.55000000000001
 30
0.0
 11
79.875
 21
152.55000000000001
 31
0.0
  0
LINE
  5
7C2
  8
0
  6
CONTINUOUS
 62
     7
 10
79.875
 20
152.39586187139989
 30
0.0
 11
79.875
 21
152.55000000000001
 31
0.0
  0
LINE
  5
7C3
  8
0
  6
CONTINUOUS
 62
     7
 10
79.724999999999994
 20
152.55000000000001
 30
0.0
 11
79.724999999999994
 21
152.39586187139989
 31
0.0
  0
LINE
  5
7C4
  8
0
  6
CONTINUOUS
 62
     7
 10
81.875
 20
147.4499999999999
 30
0.0
 11
81.724999999999994
 21
147.4499999999999
 31
0.0
  0
LINE
  5
7C5
  8
0
  6
CONTINUOUS
 62
     7
 10
81.724999999999994
 20
147.6041381286
 30
0.0
 11
81.724999999999994
 21
147.4499999999999
 31
0.0
  0
LINE
  5
7C6
  8
0
  6
CONTINUOUS
 62
     7
 10
81.875
 20
147.4499999999999
 30
0.0
 11
81.875
 21
147.6041381286
 31
0.0
  0
LINE
  5
7C7
  8
0
  6
CONTINUOUS
 62
     7
 10
78.525000000000006
 20
152.39586187139989
 30
0.0
 11
78.674999999999983
 21
152.39586187139989
 31
0.0
  0
LINE
  5
7C8
  8
0
  6
CONTINUOUS
 62
     7
 10
78.525000000000006
 20
152.55000000000001
 30
0.0
 11
78.674999999999983
 21
152.55000000000001
 31
0.0
  0
LINE
  5
7C9
  8
0
  6
CONTINUOUS
 62
     7
 10
78.525000000000006
 20
152.55000000000001
 30
0.0
 11
78.525000000000006
 21
152.39586187139989
 31
0.0
  0
LINE
  5
7CA
  8
0
  6
CONTINUOUS
 62
     7
 10
78.674999999999983
 20
152.39586187139989
 30
0.0
 11
78.674999999999983
 21
152.55000000000001
 31
0.0
  0
LINE
  5
7CB
  8
0
  6
CONTINUOUS
 62
     7
 10
78.525000000000006
 20
152.39586187139989
 30
0.0
 11
78.525000000000006
 21
152.0749999999999
 31
0.0
  0
LINE
  5
7CC
  8
0
  6
CONTINUOUS
 62
     7
 10
78.674999999999983
 20
152.0749999999999
 30
0.0
 11
78.674999999999983
 21
152.39586187139989
 31
0.0
  0
LINE
  5
7CD
  8
0
  6
CONTINUOUS
 62
     7
 10
78.525000000000006
 20
147.6041381286
 30
0.0
 11
78.674999999999983
 21
147.6041381286
 31
0.0
  0
LINE
  5
7CE
  8
0
  6
CONTINUOUS
 62
     7
 10
78.674999999999983
 20
147.92500000000001
 30
0.0
 11
78.674999999999983
 21
147.6041381286
 31
0.0
  0
LINE
  5
7CF
  8
0
  6
CONTINUOUS
 62
     7
 10
78.525000000000006
 20
147.6041381286
 30
0.0
 11
78.525000000000006
 21
147.92500000000001
 31
0.0
  0
LINE
  5
7D0
  8
0
  6
CONTINUOUS
 62
     7
 10
78.125
 20
152.39586187139989
 30
0.0
 11
78.275000000000006
 21
152.39586187139989
 31
0.0
  0
LINE
  5
7D1
  8
0
  6
CONTINUOUS
 62
     7
 10
78.275000000000006
 20
152.0749999999999
 30
0.0
 11
78.275000000000006
 21
152.39586187139989
 31
0.0
  0
LINE
  5
7D2
  8
0
  6
CONTINUOUS
 62
     7
 10
78.125
 20
152.39586187139989
 30
0.0
 11
78.125
 21
152.0749999999999
 31
0.0
  0
LINE
  5
7D3
  8
0
  6
CONTINUOUS
 62
     7
 10
78.125
 20
147.6041381286
 30
0.0
 11
78.275000000000006
 21
147.6041381286
 31
0.0
  0
LINE
  5
7D4
  8
0
  6
CONTINUOUS
 62
     7
 10
78.125
 20
147.6041381286
 30
0.0
 11
78.125
 21
147.92500000000001
 31
0.0
  0
LINE
  5
7D5
  8
0
  6
CONTINUOUS
 62
     7
 10
78.275000000000006
 20
147.92500000000001
 30
0.0
 11
78.275000000000006
 21
147.6041381286
 31
0.0
  0
LINE
  5
7D6
  8
0
  6
CONTINUOUS
 62
     7
 10
79.325000000000003
 20
152.55000000000001
 30
0.0
 11
79.474999999999994
 21
152.55000000000001
 31
0.0
  0
LINE
  5
7D7
  8
0
  6
CONTINUOUS
 62
     7
 10
79.325000000000003
 20
152.55000000000001
 30
0.0
 11
79.325000000000003
 21
152.39586187139989
 31
0.0
  0
LINE
  5
7D8
  8
0
  6
CONTINUOUS
 62
     7
 10
79.474999999999994
 20
152.39586187139989
 30
0.0
 11
79.474999999999994
 21
152.55000000000001
 31
0.0
  0
LINE
  5
7D9
  8
0
  6
CONTINUOUS
 62
     7
 10
78.525000000000006
 20
147.4499999999999
 30
0.0
 11
78.674999999999983
 21
147.4499999999999
 31
0.0
  0
LINE
  5
7DA
  8
0
  6
CONTINUOUS
 62
     7
 10
78.674999999999983
 20
147.6041381286
 30
0.0
 11
78.674999999999983
 21
147.4499999999999
 31
0.0
  0
LINE
  5
7DB
  8
0
  6
CONTINUOUS
 62
     7
 10
78.525000000000006
 20
147.4499999999999
 30
0.0
 11
78.525000000000006
 21
147.6041381286
 31
0.0
  0
LINE
  5
7DC
  8
0
  6
CONTINUOUS
 62
     7
 10
78.125
 20
152.55000000000001
 30
0.0
 11
78.275000000000006
 21
152.55000000000001
 31
0.0
  0
LINE
  5
7DD
  8
0
  6
CONTINUOUS
 62
     7
 10
78.275000000000006
 20
152.39586187139989
 30
0.0
 11
78.275000000000006
 21
152.55000000000001
 31
0.0
  0
LINE
  5
7DE
  8
0
  6
CONTINUOUS
 62
     7
 10
78.125
 20
152.55000000000001
 30
0.0
 11
78.125
 21
152.39586187139989
 31
0.0
  0
LINE
  5
7DF
  8
0
  6
CONTINUOUS
 62
     7
 10
77.724999999999994
 20
152.39586187139989
 30
0.0
 11
77.875
 21
152.39586187139989
 31
0.0
  0
LINE
  5
7E0
  8
0
  6
CONTINUOUS
 62
     7
 10
77.875
 20
152.0749999999999
 30
0.0
 11
77.875
 21
152.39586187139989
 31
0.0
  0
LINE
  5
7E1
  8
0
  6
CONTINUOUS
 62
     7
 10
77.724999999999994
 20
152.39586187139989
 30
0.0
 11
77.724999999999994
 21
152.0749999999999
 31
0.0
  0
LINE
  5
7E2
  8
0
  6
CONTINUOUS
 62
     7
 10
79.325000000000003
 20
147.4499999999999
 30
0.0
 11
79.474999999999994
 21
147.4499999999999
 31
0.0
  0
LINE
  5
7E3
  8
0
  6
CONTINUOUS
 62
     7
 10
79.325000000000003
 20
147.4499999999999
 30
0.0
 11
79.325000000000003
 21
147.6041381286
 31
0.0
  0
LINE
  5
7E4
  8
0
  6
CONTINUOUS
 62
     7
 10
79.474999999999994
 20
147.6041381286
 30
0.0
 11
79.474999999999994
 21
147.4499999999999
 31
0.0
  0
LINE
  5
7E5
  8
0
  6
CONTINUOUS
 62
     7
 10
82.275000000000006
 20
152.55000000000001
 30
0.0
 11
82.125
 21
152.55000000000001
 31
0.0
  0
LINE
  5
7E6
  8
0
  6
CONTINUOUS
 62
     7
 10
82.125
 20
152.39586187139989
 30
0.0
 11
82.125
 21
152.55000000000001
 31
0.0
  0
LINE
  5
7E7
  8
0
  6
CONTINUOUS
 62
     7
 10
82.275000000000006
 20
152.55000000000001
 30
0.0
 11
82.275000000000006
 21
152.39586187139989
 31
0.0
  0
LINE
  5
7E8
  8
0
  6
CONTINUOUS
 62
     7
 10
77.724999999999994
 20
147.6041381286
 30
0.0
 11
77.875
 21
147.6041381286
 31
0.0
  0
LINE
  5
7E9
  8
0
  6
CONTINUOUS
 62
     7
 10
77.724999999999994
 20
147.6041381286
 30
0.0
 11
77.724999999999994
 21
147.92500000000001
 31
0.0
  0
LINE
  5
7EA
  8
0
  6
CONTINUOUS
 62
     7
 10
77.875
 20
147.92500000000001
 30
0.0
 11
77.875
 21
147.6041381286
 31
0.0
  0
LINE
  5
7EB
  8
0
  6
CONTINUOUS
 62
     7
 10
80.275000000000006
 20
152.39586187139989
 30
0.0
 11
80.125000000000014
 21
152.39586187139989
 31
0.0
  0
LINE
  5
7EC
  8
0
  6
CONTINUOUS
 62
     7
 10
80.125000000000014
 20
152.0749999999999
 30
0.0
 11
80.125000000000014
 21
152.39586187139989
 31
0.0
  0
LINE
  5
7ED
  8
0
  6
CONTINUOUS
 62
     7
 10
80.275000000000006
 20
152.39586187139989
 30
0.0
 11
80.275000000000006
 21
152.0749999999999
 31
0.0
  0
LINE
  5
7EE
  8
0
  6
CONTINUOUS
 62
     7
 10
82.275000000000006
 20
147.4499999999999
 30
0.0
 11
82.125
 21
147.4499999999999
 31
0.0
  0
LINE
  5
7EF
  8
0
  6
CONTINUOUS
 62
     7
 10
82.125
 20
147.6041381286
 30
0.0
 11
82.125
 21
147.4499999999999
 31
0.0
  0
LINE
  5
7F0
  8
0
  6
CONTINUOUS
 62
     7
 10
82.275000000000006
 20
147.4499999999999
 30
0.0
 11
82.275000000000006
 21
147.6041381286
 31
0.0
  0
LINE
  5
7F1
  8
0
  6
CONTINUOUS
 62
     7
 10
80.275000000000006
 20
152.55000000000001
 30
0.0
 11
80.125000000000014
 21
152.55000000000001
 31
0.0
  0
LINE
  5
7F2
  8
0
  6
CONTINUOUS
 62
     7
 10
80.125000000000014
 20
152.39586187139989
 30
0.0
 11
80.125000000000014
 21
152.55000000000001
 31
0.0
  0
LINE
  5
7F3
  8
0
  6
CONTINUOUS
 62
     7
 10
80.275000000000006
 20
152.55000000000001
 30
0.0
 11
80.275000000000006
 21
152.39586187139989
 31
0.0
  0
LINE
  5
7F4
  8
0
  6
CONTINUOUS
 62
     7
 10
80.275000000000006
 20
147.4499999999999
 30
0.0
 11
80.125000000000014
 21
147.4499999999999
 31
0.0
  0
LINE
  5
7F5
  8
0
  6
CONTINUOUS
 62
     7
 10
80.125000000000014
 20
147.6041381286
 30
0.0
 11
80.125000000000014
 21
147.4499999999999
 31
0.0
  0
LINE
  5
7F6
  8
0
  6
CONTINUOUS
 62
     7
 10
80.275000000000006
 20
147.4499999999999
 30
0.0
 11
80.275000000000006
 21
147.6041381286
 31
0.0
  0
LINE
  5
7F7
  8
0
  6
CONTINUOUS
 62
     7
 10
78.125
 20
147.4499999999999
 30
0.0
 11
78.275000000000006
 21
147.4499999999999
 31
0.0
  0
LINE
  5
7F8
  8
0
  6
CONTINUOUS
 62
     7
 10
78.125
 20
147.4499999999999
 30
0.0
 11
78.125
 21
147.6041381286
 31
0.0
  0
LINE
  5
7F9
  8
0
  6
CONTINUOUS
 62
     7
 10
78.275000000000006
 20
147.6041381286
 30
0.0
 11
78.275000000000006
 21
147.4499999999999
 31
0.0
  0
LINE
  5
7FA
  8
0
  6
CONTINUOUS
 62
     7
 10
77.724999999999994
 20
152.55000000000001
 30
0.0
 11
77.875
 21
152.55000000000001
 31
0.0
  0
LINE
  5
7FB
  8
0
  6
CONTINUOUS
 62
     7
 10
77.875
 20
152.39586187139989
 30
0.0
 11
77.875
 21
152.55000000000001
 31
0.0
  0
LINE
  5
7FC
  8
0
  6
CONTINUOUS
 62
     7
 10
77.724999999999994
 20
152.55000000000001
 30
0.0
 11
77.724999999999994
 21
152.39586187139989
 31
0.0
  0
LINE
  5
7FD
  8
0
  6
CONTINUOUS
 62
     7
 10
77.724999999999994
 20
147.4499999999999
 30
0.0
 11
77.875
 21
147.4499999999999
 31
0.0
  0
LINE
  5
7FE
  8
0
  6
CONTINUOUS
 62
     7
 10
77.724999999999994
 20
147.4499999999999
 30
0.0
 11
77.724999999999994
 21
147.6041381286
 31
0.0
  0
LINE
  5
7FF
  8
0
  6
CONTINUOUS
 62
     7
 10
77.875
 20
147.6041381286
 30
0.0
 11
77.875
 21
147.4499999999999
 31
0.0
  0
LINE
  5
800
  8
0
  6
CONTINUOUS
 62
     7
 10
78.924999999999997
 20
99.25
 30
0.0
 11
78.924999999999997
 21
99.349999999999994
 31
0.0
  0
LINE
  5
801
  8
0
  6
CONTINUOUS
 62
     7
 10
78.924999999999997
 20
99.349999999999994
 30
0.0
 11
79.075000000000003
 21
99.349999999999994
 31
0.0
  0
LINE
  5
802
  8
0
  6
CONTINUOUS
 62
     7
 10
79.075000000000003
 20
99.349999999999994
 30
0.0
 11
79.075000000000003
 21
99.25
 31
0.0
  0
LINE
  5
803
  8
0
  6
CONTINUOUS
 62
     7
 10
78.924999999999997
 20
99.25
 30
0.0
 11
79.075000000000003
 21
99.25
 31
0.0
  0
LINE
  5
804
  8
0
  6
CONTINUOUS
 62
     7
 10
80.275000000000006
 20
99.349999999999994
 30
0.0
 11
80.125000000000014
 21
99.349999999999994
 31
0.0
  0
LINE
  5
805
  8
0
  6
CONTINUOUS
 62
     7
 10
80.275000000000006
 20
99.25
 30
0.0
 11
80.275000000000006
 21
99.349999999999994
 31
0.0
  0
LINE
  5
806
  8
0
  6
CONTINUOUS
 62
     7
 10
80.275000000000006
 20
99.25
 30
0.0
 11
80.125000000000014
 21
99.25
 31
0.0
  0
LINE
  5
807
  8
0
  6
CONTINUOUS
 62
     7
 10
80.125000000000014
 20
99.349999999999994
 30
0.0
 11
80.125000000000014
 21
99.25
 31
0.0
  0
LINE
  5
808
  8
0
  6
CONTINUOUS
 62
     7
 10
78.525000000000006
 20
99.25
 30
0.0
 11
78.525000000000006
 21
99.349999999999994
 31
0.0
  0
LINE
  5
809
  8
0
  6
CONTINUOUS
 62
     7
 10
78.525000000000006
 20
99.349999999999994
 30
0.0
 11
78.674999999999983
 21
99.349999999999994
 31
0.0
  0
LINE
  5
80A
  8
0
  6
CONTINUOUS
 62
     7
 10
78.525000000000006
 20
99.25
 30
0.0
 11
78.674999999999983
 21
99.25
 31
0.0
  0
LINE
  5
80B
  8
0
  6
CONTINUOUS
 62
     7
 10
78.674999999999983
 20
99.349999999999994
 30
0.0
 11
78.674999999999983
 21
99.25
 31
0.0
  0
LINE
  5
80C
  8
0
  6
CONTINUOUS
 62
     7
 10
80.674999999999997
 20
99.25
 30
0.0
 11
80.674999999999997
 21
99.349999999999994
 31
0.0
  0
LINE
  5
80D
  8
0
  6
CONTINUOUS
 62
     7
 10
80.674999999999997
 20
99.25
 30
0.0
 11
80.525000000000006
 21
99.25
 31
0.0
  0
LINE
  5
80E
  8
0
  6
CONTINUOUS
 62
     7
 10
80.674999999999997
 20
99.349999999999994
 30
0.0
 11
80.525000000000006
 21
99.349999999999994
 31
0.0
  0
LINE
  5
80F
  8
0
  6
CONTINUOUS
 62
     7
 10
80.525000000000006
 20
99.349999999999994
 30
0.0
 11
80.525000000000006
 21
99.25
 31
0.0
  0
LINE
  5
810
  8
0
  6
CONTINUOUS
 62
     7
 10
81.074999999999989
 20
99.25
 30
0.0
 11
81.074999999999989
 21
99.349999999999994
 31
0.0
  0
LINE
  5
811
  8
0
  6
CONTINUOUS
 62
     7
 10
81.074999999999989
 20
99.25
 30
0.0
 11
80.924999999999983
 21
99.25
 31
0.0
  0
LINE
  5
812
  8
0
  6
CONTINUOUS
 62
     7
 10
80.924999999999983
 20
99.349999999999994
 30
0.0
 11
80.924999999999983
 21
99.25
 31
0.0
  0
LINE
  5
813
  8
0
  6
CONTINUOUS
 62
     7
 10
81.074999999999989
 20
99.349999999999994
 30
0.0
 11
80.924999999999983
 21
99.349999999999994
 31
0.0
  0
LINE
  5
814
  8
0
  6
CONTINUOUS
 62
     7
 10
78.125
 20
99.25
 30
0.0
 11
78.125
 21
99.349999999999994
 31
0.0
  0
LINE
  5
815
  8
0
  6
CONTINUOUS
 62
     7
 10
78.125
 20
99.349999999999994
 30
0.0
 11
78.275000000000006
 21
99.349999999999994
 31
0.0
  0
LINE
  5
816
  8
0
  6
CONTINUOUS
 62
     7
 10
78.275000000000006
 20
99.349999999999994
 30
0.0
 11
78.275000000000006
 21
99.25
 31
0.0
  0
LINE
  5
817
  8
0
  6
CONTINUOUS
 62
     7
 10
78.125
 20
99.25
 30
0.0
 11
78.275000000000006
 21
99.25
 31
0.0
  0
LINE
  5
818
  8
0
  6
CONTINUOUS
 62
     7
 10
81.474999999999994
 20
99.349999999999994
 30
0.0
 11
81.325000000000003
 21
99.349999999999994
 31
0.0
  0
LINE
  5
819
  8
0
  6
CONTINUOUS
 62
     7
 10
81.474999999999994
 20
99.25
 30
0.0
 11
81.474999999999994
 21
99.349999999999994
 31
0.0
  0
LINE
  5
81A
  8
0
  6
CONTINUOUS
 62
     7
 10
81.474999999999994
 20
99.25
 30
0.0
 11
81.325000000000003
 21
99.25
 31
0.0
  0
LINE
  5
81B
  8
0
  6
CONTINUOUS
 62
     7
 10
81.325000000000003
 20
99.349999999999994
 30
0.0
 11
81.325000000000003
 21
99.25
 31
0.0
  0
LINE
  5
81C
  8
0
  6
CONTINUOUS
 62
     7
 10
77.724999999999994
 20
99.25
 30
0.0
 11
77.724999999999994
 21
99.349999999999994
 31
0.0
  0
LINE
  5
81D
  8
0
  6
CONTINUOUS
 62
     7
 10
77.724999999999994
 20
99.25
 30
0.0
 11
77.875
 21
99.25
 31
0.0
  0
LINE
  5
81E
  8
0
  6
CONTINUOUS
 62
     7
 10
77.724999999999994
 20
99.349999999999994
 30
0.0
 11
77.875
 21
99.349999999999994
 31
0.0
  0
LINE
  5
81F
  8
0
  6
CONTINUOUS
 62
     7
 10
77.875
 20
99.349999999999994
 30
0.0
 11
77.875
 21
99.25
 31
0.0
  0
LINE
  5
820
  8
0
  6
CONTINUOUS
 62
     7
 10
81.875
 20
99.25
 30
0.0
 11
81.875
 21
99.349999999999994
 31
0.0
  0
LINE
  5
821
  8
0
  6
CONTINUOUS
 62
     7
 10
81.875
 20
99.25
 30
0.0
 11
81.724999999999994
 21
99.25
 31
0.0
  0
LINE
  5
822
  8
0
  6
CONTINUOUS
 62
     7
 10
81.724999999999994
 20
99.349999999999994
 30
0.0
 11
81.724999999999994
 21
99.25
 31
0.0
  0
LINE
  5
823
  8
0
  6
CONTINUOUS
 62
     7
 10
81.875
 20
99.349999999999994
 30
0.0
 11
81.724999999999994
 21
99.349999999999994
 31
0.0
  0
LINE
  5
824
  8
0
  6
CONTINUOUS
 62
     7
 10
79.724999999999994
 20
99.25
 30
0.0
 11
79.875
 21
99.25
 31
0.0
  0
LINE
  5
825
  8
0
  6
CONTINUOUS
 62
     7
 10
79.724999999999994
 20
99.25
 30
0.0
 11
79.724999999999994
 21
99.349999999999994
 31
0.0
  0
LINE
  5
826
  8
0
  6
CONTINUOUS
 62
     7
 10
79.724999999999994
 20
99.349999999999994
 30
0.0
 11
79.875
 21
99.349999999999994
 31
0.0
  0
LINE
  5
827
  8
0
  6
CONTINUOUS
 62
     7
 10
79.875
 20
99.349999999999994
 30
0.0
 11
79.875
 21
99.25
 31
0.0
  0
LINE
  5
828
  8
0
  6
CONTINUOUS
 62
     7
 10
79.325000000000003
 20
99.25
 30
0.0
 11
79.474999999999994
 21
99.25
 31
0.0
  0
LINE
  5
829
  8
0
  6
CONTINUOUS
 62
     7
 10
79.325000000000003
 20
99.349999999999994
 30
0.0
 11
79.474999999999994
 21
99.349999999999994
 31
0.0
  0
LINE
  5
82A
  8
0
  6
CONTINUOUS
 62
     7
 10
79.325000000000003
 20
99.25
 30
0.0
 11
79.325000000000003
 21
99.349999999999994
 31
0.0
  0
LINE
  5
82B
  8
0
  6
CONTINUOUS
 62
     7
 10
79.474999999999994
 20
99.349999999999994
 30
0.0
 11
79.474999999999994
 21
99.25
 31
0.0
  0
LINE
  5
82C
  8
0
  6
CONTINUOUS
 62
     7
 10
82.275000000000006
 20
99.25
 30
0.0
 11
82.275000000000006
 21
99.349999999999994
 31
0.0
  0
LINE
  5
82D
  8
0
  6
CONTINUOUS
 62
     7
 10
82.275000000000006
 20
99.25
 30
0.0
 11
82.125
 21
99.25
 31
0.0
  0
LINE
  5
82E
  8
0
  6
CONTINUOUS
 62
     7
 10
82.275000000000006
 20
99.349999999999994
 30
0.0
 11
82.125
 21
99.349999999999994
 31
0.0
  0
LINE
  5
82F
  8
0
  6
CONTINUOUS
 62
     7
 10
82.125
 20
99.349999999999994
 30
0.0
 11
82.125
 21
99.25
 31
0.0
  0
LINE
  5
830
  8
0
  6
CONTINUOUS
 62
     7
 10
80.125000000000014
 20
99.379999999999995
 30
0.0
 11
80.125000000000014
 21
99.349999999999994
 31
0.0
  0
LINE
  5
831
  8
0
  6
CONTINUOUS
 62
     7
 10
80.275000000000006
 20
99.349999999999994
 30
0.0
 11
80.275000000000006
 21
99.379999999999995
 31
0.0
  0
LINE
  5
832
  8
0
  6
CONTINUOUS
 62
     7
 10
78.924999999999997
 20
99.349999999999994
 30
0.0
 11
78.924999999999997
 21
99.379999999999995
 31
0.0
  0
LINE
  5
833
  8
0
  6
CONTINUOUS
 62
     7
 10
79.075000000000003
 20
99.379999999999995
 30
0.0
 11
79.075000000000003
 21
99.349999999999994
 31
0.0
  0
LINE
  5
834
  8
0
  6
CONTINUOUS
 62
     7
 10
81.875
 20
99.349999999999994
 30
0.0
 11
81.875
 21
99.379999999999995
 31
0.0
  0
LINE
  5
835
  8
0
  6
CONTINUOUS
 62
     7
 10
81.724999999999994
 20
99.379999999999995
 30
0.0
 11
81.724999999999994
 21
99.349999999999994
 31
0.0
  0
LINE
  5
836
  8
0
  6
CONTINUOUS
 62
     7
 10
78.525000000000006
 20
99.349999999999994
 30
0.0
 11
78.525000000000006
 21
99.379999999999995
 31
0.0
  0
LINE
  5
837
  8
0
  6
CONTINUOUS
 62
     7
 10
78.674999999999983
 20
99.379999999999995
 30
0.0
 11
78.674999999999983
 21
99.349999999999994
 31
0.0
  0
LINE
  5
838
  8
0
  6
CONTINUOUS
 62
     7
 10
79.325000000000003
 20
99.349999999999994
 30
0.0
 11
79.325000000000003
 21
99.379999999999995
 31
0.0
  0
LINE
  5
839
  8
0
  6
CONTINUOUS
 62
     7
 10
79.474999999999994
 20
99.379999999999995
 30
0.0
 11
79.474999999999994
 21
99.349999999999994
 31
0.0
  0
LINE
  5
83A
  8
0
  6
CONTINUOUS
 62
     7
 10
82.275000000000006
 20
99.349999999999994
 30
0.0
 11
82.275000000000006
 21
99.379999999999995
 31
0.0
  0
LINE
  5
83B
  8
0
  6
CONTINUOUS
 62
     7
 10
82.125
 20
99.379999999999995
 30
0.0
 11
82.125
 21
99.349999999999994
 31
0.0
  0
LINE
  5
83C
  8
0
  6
CONTINUOUS
 62
     7
 10
79.724999999999994
 20
99.349999999999994
 30
0.0
 11
79.724999999999994
 21
99.379999999999995
 31
0.0
  0
LINE
  5
83D
  8
0
  6
CONTINUOUS
 62
     7
 10
79.875
 20
99.379999999999995
 30
0.0
 11
79.875
 21
99.349999999999994
 31
0.0
  0
LINE
  5
83E
  8
0
  6
CONTINUOUS
 62
     7
 10
78.275000000000006
 20
99.379999999999995
 30
0.0
 11
78.275000000000006
 21
99.349999999999994
 31
0.0
  0
LINE
  5
83F
  8
0
  6
CONTINUOUS
 62
     7
 10
78.125
 20
99.349999999999994
 30
0.0
 11
78.125
 21
99.379999999999995
 31
0.0
  0
LINE
  5
840
  8
0
  6
CONTINUOUS
 62
     7
 10
77.724999999999994
 20
99.349999999999994
 30
0.0
 11
77.724999999999994
 21
99.379999999999995
 31
0.0
  0
LINE
  5
841
  8
0
  6
CONTINUOUS
 62
     7
 10
77.875
 20
99.379999999999995
 30
0.0
 11
77.875
 21
99.349999999999994
 31
0.0
  0
LINE
  5
842
  8
0
  6
CONTINUOUS
 62
     7
 10
80.674999999999997
 20
99.349999999999994
 30
0.0
 11
80.674999999999997
 21
99.379999999999995
 31
0.0
  0
LINE
  5
843
  8
0
  6
CONTINUOUS
 62
     7
 10
80.525000000000006
 20
99.379999999999995
 30
0.0
 11
80.525000000000006
 21
99.349999999999994
 31
0.0
  0
LINE
  5
844
  8
0
  6
CONTINUOUS
 62
     7
 10
81.074999999999989
 20
99.349999999999994
 30
0.0
 11
81.074999999999989
 21
99.379999999999995
 31
0.0
  0
LINE
  5
845
  8
0
  6
CONTINUOUS
 62
     7
 10
80.924999999999983
 20
99.379999999999995
 30
0.0
 11
80.924999999999983
 21
99.349999999999994
 31
0.0
  0
LINE
  5
846
  8
0
  6
CONTINUOUS
 62
     7
 10
81.474999999999994
 20
99.349999999999994
 30
0.0
 11
81.474999999999994
 21
99.379999999999995
 31
0.0
  0
LINE
  5
847
  8
0
  6
CONTINUOUS
 62
     7
 10
81.325000000000003
 20
99.379999999999995
 30
0.0
 11
81.325000000000003
 21
99.349999999999994
 31
0.0
  0
LINE
  5
848
  8
0
  6
CONTINUOUS
 62
     7
 10
76.620000000000005
 20
99.359999999999985
 30
0.0
 11
77.450000000000003
 21
99.359999999999985
 31
0.0
  0
LINE
  5
849
  8
0
  6
CONTINUOUS
 62
     7
 10
77.450000000000003
 20
99.280000000000001
 30
0.0
 11
77.450000000000003
 21
99.359999999999985
 31
0.0
  0
LINE
  5
84A
  8
0
  6
CONTINUOUS
 62
     7
 10
77.450000000000003
 20
99.280000000000001
 30
0.0
 11
76.700000000000003
 21
99.280000000000001
 31
0.0
  0
LINE
  5
84B
  8
0
  6
CONTINUOUS
 62
     7
 10
76.700000000000003
 20
99.280000000000001
 30
0.0
 11
76.620000000000005
 21
99.359999999999985
 31
0.0
  0
LINE
  5
84C
  8
0
  6
CONTINUOUS
 62
     7
 10
77.599999999999994
 20
100.5
 30
0.0
 11
77.599999999999994
 21
100.4499999999999
 31
0.0
  0
LINE
  5
84D
  8
0
  6
CONTINUOUS
 62
     7
 10
82.400000000000006
 20
100.5
 30
0.0
 11
77.599999999999994
 21
100.5
 31
0.0
  0
LINE
  5
84E
  8
0
  6
CONTINUOUS
 62
     7
 10
82.400000000000006
 20
100.4499999999999
 30
0.0
 11
83.549999999999997
 21
100.4499999999999
 31
0.0
  0
LINE
  5
84F
  8
0
  6
CONTINUOUS
 62
     7
 10
83.549999999999997
 20
100.4499999999999
 30
0.0
 11
83.549999999999997
 21
99.379999999999995
 31
0.0
  0
LINE
  5
850
  8
0
  6
CONTINUOUS
 62
     7
 10
83.379999999999995
 20
99.359999999999985
 30
0.0
 11
82.549999999999997
 21
99.359999999999985
 31
0.0
  0
LINE
  5
851
  8
0
  6
CONTINUOUS
 62
     7
 10
82.549999999999997
 20
99.379999999999995
 30
0.0
 11
82.549999999999997
 21
99.359999999999985
 31
0.0
  0
LINE
  5
852
  8
0
  6
CONTINUOUS
 62
     7
 10
77.450000000000003
 20
99.379999999999995
 30
0.0
 11
77.450000000000003
 21
99.359999999999985
 31
0.0
  0
LINE
  5
853
  8
0
  6
CONTINUOUS
 62
     7
 10
76.599999999999994
 20
99.379999999999995
 30
0.0
 11
76.450000000000003
 21
99.379999999999995
 31
0.0
  0
LINE
  5
854
  8
0
  6
CONTINUOUS
 62
     7
 10
77.599999999999994
 20
100.4499999999999
 30
0.0
 11
76.450000000000003
 21
100.4499999999999
 31
0.0
  0
LINE
  5
855
  8
0
  6
CONTINUOUS
 62
     7
 10
83.379999999999995
 20
99.359999999999985
 30
0.0
 11
83.400000000000006
 21
99.379999999999995
 31
0.0
  0
LINE
  5
856
  8
0
  6
CONTINUOUS
 62
     7
 10
76.620000000000005
 20
99.359999999999985
 30
0.0
 11
76.599999999999994
 21
99.379999999999995
 31
0.0
  0
LINE
  5
857
  8
0
  6
CONTINUOUS
 62
     7
 10
83.400000000000006
 20
99.379999999999995
 30
0.0
 11
83.549999999999997
 21
99.379999999999995
 31
0.0
  0
LINE
  5
858
  8
0
  6
CONTINUOUS
 62
     7
 10
76.450000000000003
 20
100.4499999999999
 30
0.0
 11
76.450000000000003
 21
99.379999999999995
 31
0.0
  0
LINE
  5
859
  8
0
  6
CONTINUOUS
 62
     7
 10
77.450000000000003
 20
99.379999999999995
 30
0.0
 11
82.549999999999997
 21
99.379999999999995
 31
0.0
  0
LINE
  5
85A
  8
0
  6
CONTINUOUS
 62
     7
 10
82.400000000000006
 20
100.5
 30
0.0
 11
82.400000000000006
 21
100.4499999999999
 31
0.0
  0
LINE
  5
85B
  8
0
  6
CONTINUOUS
 62
     7
 10
82.549999999999997
 20
99.280000000000001
 30
0.0
 11
83.299999999999997
 21
99.280000000000001
 31
0.0
  0
LINE
  5
85C
  8
0
  6
CONTINUOUS
 62
     7
 10
82.549999999999997
 20
99.280000000000001
 30
0.0
 11
82.549999999999997
 21
99.359999999999985
 31
0.0
  0
LINE
  5
85D
  8
0
  6
CONTINUOUS
 62
     7
 10
83.299999999999997
 20
99.280000000000001
 30
0.0
 11
83.379999999999995
 21
99.359999999999985
 31
0.0
  0
LINE
  5
85E
  8
0
  6
CONTINUOUS
 62
     7
 10
78.5
 20
100.5
 30
0.0
 11
78.5
 21
100.5199999999999
 31
0.0
  0
LINE
  5
85F
  8
0
  6
CONTINUOUS
 62
     7
 10
78.5
 20
100.5199999999999
 30
0.0
 11
78.700000000000003
 21
100.5199999999999
 31
0.0
  0
LINE
  5
860
  8
0
  6
CONTINUOUS
 62
     7
 10
78.700000000000003
 20
100.5199999999999
 30
0.0
 11
78.700000000000003
 21
100.5
 31
0.0
  0
LINE
  5
861
  8
0
  6
CONTINUOUS
 62
     7
 10
78.099999999999994
 20
100.5
 30
0.0
 11
78.099999999999994
 21
100.5199999999999
 31
0.0
  0
LINE
  5
862
  8
0
  6
CONTINUOUS
 62
     7
 10
78.099999999999994
 20
100.5199999999999
 30
0.0
 11
78.299999999999997
 21
100.5199999999999
 31
0.0
  0
LINE
  5
863
  8
0
  6
CONTINUOUS
 62
     7
 10
78.299999999999997
 20
100.5199999999999
 30
0.0
 11
78.299999999999997
 21
100.5
 31
0.0
  0
LINE
  5
864
  8
0
  6
CONTINUOUS
 62
     7
 10
77.700000000000003
 20
100.5199999999999
 30
0.0
 11
77.900000000000006
 21
100.5199999999999
 31
0.0
  0
LINE
  5
865
  8
0
  6
CONTINUOUS
 62
     7
 10
77.900000000000006
 20
100.5199999999999
 30
0.0
 11
77.900000000000006
 21
100.5
 31
0.0
  0
LINE
  5
866
  8
0
  6
CONTINUOUS
 62
     7
 10
77.700000000000003
 20
100.5
 30
0.0
 11
77.700000000000003
 21
100.5199999999999
 31
0.0
  0
LINE
  5
867
  8
0
  6
CONTINUOUS
 62
     7
 10
81.900000000000006
 20
100.5199999999999
 30
0.0
 11
81.699999999999989
 21
100.5199999999999
 31
0.0
  0
LINE
  5
868
  8
0
  6
CONTINUOUS
 62
     7
 10
81.900000000000006
 20
100.5
 30
0.0
 11
81.900000000000006
 21
100.5199999999999
 31
0.0
  0
LINE
  5
869
  8
0
  6
CONTINUOUS
 62
     7
 10
81.699999999999989
 20
100.5199999999999
 30
0.0
 11
81.699999999999989
 21
100.5
 31
0.0
  0
LINE
  5
86A
  8
0
  6
CONTINUOUS
 62
     7
 10
80.700000000000003
 20
100.5199999999999
 30
0.0
 11
80.5
 21
100.5199999999999
 31
0.0
  0
LINE
  5
86B
  8
0
  6
CONTINUOUS
 62
     7
 10
80.700000000000003
 20
100.5
 30
0.0
 11
80.700000000000003
 21
100.5199999999999
 31
0.0
  0
LINE
  5
86C
  8
0
  6
CONTINUOUS
 62
     7
 10
80.5
 20
100.5199999999999
 30
0.0
 11
80.5
 21
100.5
 31
0.0
  0
LINE
  5
86D
  8
0
  6
CONTINUOUS
 62
     7
 10
81.099999999999994
 20
100.5199999999999
 30
0.0
 11
80.900000000000006
 21
100.5199999999999
 31
0.0
  0
LINE
  5
86E
  8
0
  6
CONTINUOUS
 62
     7
 10
81.099999999999994
 20
100.5
 30
0.0
 11
81.099999999999994
 21
100.5199999999999
 31
0.0
  0
LINE
  5
86F
  8
0
  6
CONTINUOUS
 62
     7
 10
80.900000000000006
 20
100.5199999999999
 30
0.0
 11
80.900000000000006
 21
100.5
 31
0.0
  0
LINE
  5
870
  8
0
  6
CONTINUOUS
 62
     7
 10
81.5
 20
100.5199999999999
 30
0.0
 11
81.299999999999997
 21
100.5199999999999
 31
0.0
  0
LINE
  5
871
  8
0
  6
CONTINUOUS
 62
     7
 10
81.5
 20
100.5
 30
0.0
 11
81.5
 21
100.5199999999999
 31
0.0
  0
LINE
  5
872
  8
0
  6
CONTINUOUS
 62
     7
 10
81.299999999999997
 20
100.5199999999999
 30
0.0
 11
81.299999999999997
 21
100.5
 31
0.0
  0
LINE
  5
873
  8
0
  6
CONTINUOUS
 62
     7
 10
79.299999999999983
 20
100.5199999999999
 30
0.0
 11
79.5
 21
100.5199999999999
 31
0.0
  0
LINE
  5
874
  8
0
  6
CONTINUOUS
 62
     7
 10
79.5
 20
100.5199999999999
 30
0.0
 11
79.5
 21
100.5
 31
0.0
  0
LINE
  5
875
  8
0
  6
CONTINUOUS
 62
     7
 10
79.299999999999983
 20
100.5
 30
0.0
 11
79.299999999999983
 21
100.5199999999999
 31
0.0
  0
LINE
  5
876
  8
0
  6
CONTINUOUS
 62
     7
 10
80.299999999999983
 20
100.5199999999999
 30
0.0
 11
80.099999999999994
 21
100.5199999999999
 31
0.0
  0
LINE
  5
877
  8
0
  6
CONTINUOUS
 62
     7
 10
80.299999999999983
 20
100.5
 30
0.0
 11
80.299999999999983
 21
100.5199999999999
 31
0.0
  0
LINE
  5
878
  8
0
  6
CONTINUOUS
 62
     7
 10
80.099999999999994
 20
100.5199999999999
 30
0.0
 11
80.099999999999994
 21
100.5
 31
0.0
  0
LINE
  5
879
  8
0
  6
CONTINUOUS
 62
     7
 10
78.900000000000006
 20
100.5199999999999
 30
0.0
 11
79.099999999999994
 21
100.5199999999999
 31
0.0
  0
LINE
  5
87A
  8
0
  6
CONTINUOUS
 62
     7
 10
78.900000000000006
 20
100.5
 30
0.0
 11
78.900000000000006
 21
100.5199999999999
 31
0.0
  0
LINE
  5
87B
  8
0
  6
CONTINUOUS
 62
     7
 10
79.099999999999994
 20
100.5199999999999
 30
0.0
 11
79.099999999999994
 21
100.5
 31
0.0
  0
LINE
  5
87C
  8
0
  6
CONTINUOUS
 62
     7
 10
79.700000000000003
 20
100.5199999999999
 30
0.0
 11
79.900000000000006
 21
100.5199999999999
 31
0.0
  0
LINE
  5
87D
  8
0
  6
CONTINUOUS
 62
     7
 10
79.900000000000006
 20
100.5199999999999
 30
0.0
 11
79.900000000000006
 21
100.5
 31
0.0
  0
LINE
  5
87E
  8
0
  6
CONTINUOUS
 62
     7
 10
79.700000000000003
 20
100.5
 30
0.0
 11
79.700000000000003
 21
100.5199999999999
 31
0.0
  0
LINE
  5
87F
  8
0
  6
CONTINUOUS
 62
     7
 10
82.299999999999997
 20
100.5199999999999
 30
0.0
 11
82.099999999999994
 21
100.5199999999999
 31
0.0
  0
LINE
  5
880
  8
0
  6
CONTINUOUS
 62
     7
 10
82.299999999999997
 20
100.5
 30
0.0
 11
82.299999999999997
 21
100.5199999999999
 31
0.0
  0
LINE
  5
881
  8
0
  6
CONTINUOUS
 62
     7
 10
82.099999999999994
 20
100.5199999999999
 30
0.0
 11
82.099999999999994
 21
100.5
 31
0.0
  0
LINE
  5
882
  8
0
  6
CONTINUOUS
 62
     7
 10
77.450000000000003
 20
99.280000000000001
 30
0.0
 11
77.724999999999994
 21
99.280000000000001
 31
0.0
  0
LINE
  5
883
  8
0
  6
CONTINUOUS
 62
     7
 10
77.875
 20
99.280000000000001
 30
0.0
 11
78.125
 21
99.280000000000001
 31
0.0
  0
LINE
  5
884
  8
0
  6
CONTINUOUS
 62
     7
 10
78.275000000000006
 20
99.280000000000001
 30
0.0
 11
78.525000000000006
 21
99.280000000000001
 31
0.0
  0
LINE
  5
885
  8
0
  6
CONTINUOUS
 62
     7
 10
78.674999999999983
 20
99.280000000000001
 30
0.0
 11
78.924999999999997
 21
99.280000000000001
 31
0.0
  0
LINE
  5
886
  8
0
  6
CONTINUOUS
 62
     7
 10
79.075000000000003
 20
99.280000000000001
 30
0.0
 11
79.325000000000003
 21
99.280000000000001
 31
0.0
  0
LINE
  5
887
  8
0
  6
CONTINUOUS
 62
     7
 10
79.474999999999994
 20
99.280000000000001
 30
0.0
 11
79.724999999999994
 21
99.280000000000001
 31
0.0
  0
LINE
  5
888
  8
0
  6
CONTINUOUS
 62
     7
 10
79.875
 20
99.280000000000001
 30
0.0
 11
80.125000000000014
 21
99.280000000000001
 31
0.0
  0
LINE
  5
889
  8
0
  6
CONTINUOUS
 62
     7
 10
80.275000000000006
 20
99.280000000000001
 30
0.0
 11
80.525000000000006
 21
99.280000000000001
 31
0.0
  0
LINE
  5
88A
  8
0
  6
CONTINUOUS
 62
     7
 10
80.674999999999997
 20
99.280000000000001
 30
0.0
 11
80.924999999999983
 21
99.280000000000001
 31
0.0
  0
LINE
  5
88B
  8
0
  6
CONTINUOUS
 62
     7
 10
81.074999999999989
 20
99.280000000000001
 30
0.0
 11
81.325000000000003
 21
99.280000000000001
 31
0.0
  0
LINE
  5
88C
  8
0
  6
CONTINUOUS
 62
     7
 10
81.474999999999994
 20
99.280000000000001
 30
0.0
 11
81.724999999999994
 21
99.280000000000001
 31
0.0
  0
LINE
  5
88D
  8
0
  6
CONTINUOUS
 62
     7
 10
81.875
 20
99.280000000000001
 30
0.0
 11
82.125
 21
99.280000000000001
 31
0.0
  0
LINE
  5
88E
  8
0
  6
CONTINUOUS
 62
     7
 10
82.275000000000006
 20
99.280000000000001
 30
0.0
 11
82.549999999999997
 21
99.280000000000001
 31
0.0
  0
LINE
  5
88F
  8
0
  6
CONTINUOUS
 62
     7
 10
76.450000000000003
 20
100.75
 30
0.0
 11
77.400000000000006
 21
100.75
 31
0.0
  0
LINE
  5
890
  8
0
  6
CONTINUOUS
 62
     7
 10
77.400000000000006
 20
100.4499999999999
 30
0.0
 11
77.400000000000006
 21
100.75
 31
0.0
  0
LINE
  5
891
  8
0
  6
CONTINUOUS
 62
     7
 10
76.450000000000003
 20
100.75
 30
0.0
 11
76.450000000000003
 21
100.4499999999999
 31
0.0
  0
LINE
  5
892
  8
0
  6
CONTINUOUS
 62
     7
 10
83.549999999999997
 20
100.75
 30
0.0
 11
82.599999999999994
 21
100.75
 31
0.0
  0
LINE
  5
893
  8
0
  6
CONTINUOUS
 62
     7
 10
82.599999999999994
 20
100.4499999999999
 30
0.0
 11
82.599999999999994
 21
100.75
 31
0.0
  0
LINE
  5
894
  8
0
  6
CONTINUOUS
 62
     7
 10
83.549999999999997
 20
100.75
 30
0.0
 11
83.549999999999997
 21
100.4499999999999
 31
0.0
  0
LINE
  5
895
  8
0
  6
CONTINUOUS
 62
     7
 10
77.599999999999994
 20
100.5
 30
0.0
 11
77.400000000000006
 21
100.5
 31
0.0
  0
LINE
  5
896
  8
0
  6
CONTINUOUS
 62
     7
 10
82.400000000000006
 20
100.5
 30
0.0
 11
82.599999999999994
 21
100.5
 31
0.0
  0
LINE
  5
897
  8
0
  6
CONTINUOUS
 62
     7
 10
139.25
 20
151.47499999999999
 30
0.0
 11
139.25
 21
148.52500000000001
 31
0.0
  0
LINE
  5
898
  8
0
  6
CONTINUOUS
 62
     7
 10
139.25
 20
151.47499999999999
 30
0.0
 11
139.55000000000001
 21
151.47499999999999
 31
0.0
  0
LINE
  5
899
  8
0
  6
CONTINUOUS
 62
     7
 10
139.55000000000001
 20
147.9499999999999
 30
0.0
 11
140.62
 21
147.9499999999999
 31
0.0
  0
LINE
  5
89A
  8
0
  6
CONTINUOUS
 62
     7
 10
139.55000000000001
 20
147.9499999999999
 30
0.0
 11
139.55000000000001
 21
148.52500000000001
 31
0.0
  0
LINE
  5
89B
  8
0
  6
CONTINUOUS
 62
     7
 10
139.25
 20
148.52500000000001
 30
0.0
 11
139.55000000000001
 21
148.52500000000001
 31
0.0
  0
LINE
  5
89C
  8
0
  6
CONTINUOUS
 62
     7
 10
140.62
 20
147.9499999999999
 30
0.0
 11
140.62
 21
152.05000000000001
 31
0.0
  0
LINE
  5
89D
  8
0
  6
CONTINUOUS
 62
     7
 10
139.55000000000001
 20
152.05000000000001
 30
0.0
 11
140.62
 21
152.05000000000001
 31
0.0
  0
LINE
  5
89E
  8
0
  6
CONTINUOUS
 62
     7
 10
139.55000000000001
 20
152.05000000000001
 30
0.0
 11
139.55000000000001
 21
151.47499999999999
 31
0.0
  0
ARC
  5
89F
  8
0
  6
CONTINUOUS
 62
     7
 10
140.6399999999999
 20
148.02999999999989
 30
0.0
 40
0.0799999999999841
 50
270.0
 51
0.0
  0
ARC
  5
8A0
  8
0
  6
CONTINUOUS
 62
     7
 10
140.6399999999999
 20
151.97
 30
0.0
 40
0.0799999999999272
 50
0.0
 51
90.0
  0
LINE
  5
8A1
  8
0
  6
CONTINUOUS
 62
     7
 10
140.72
 20
148.02999999999989
 30
0.0
 11
140.72
 21
151.97
 31
0.0
  0
LINE
  5
8A2
  8
0
  6
CONTINUOUS
 62
     7
 10
140.6399999999999
 20
147.9499999999999
 30
0.0
 11
140.62
 21
147.9499999999999
 31
0.0
  0
LINE
  5
8A3
  8
0
  6
CONTINUOUS
 62
     7
 10
140.6399999999999
 20
152.05000000000001
 30
0.0
 11
140.62
 21
152.05000000000001
 31
0.0
  0
LINE
  5
8A4
  8
0
  6
CONTINUOUS
 62
     7
 10
139.5
 20
151.47499999999999
 30
0.0
 11
139.5
 21
152.05000000000001
 31
0.0
  0
LINE
  5
8A5
  8
0
  6
CONTINUOUS
 62
     7
 10
139.5
 20
152.05000000000001
 30
0.0
 11
139.55000000000001
 21
152.05000000000001
 31
0.0
  0
LINE
  5
8A6
  8
0
  6
CONTINUOUS
 62
     7
 10
139.5
 20
148.52500000000001
 30
0.0
 11
139.5
 21
147.9499999999999
 31
0.0
  0
LINE
  5
8A7
  8
0
  6
CONTINUOUS
 62
     7
 10
139.5
 20
147.9499999999999
 30
0.0
 11
139.55000000000001
 21
147.9499999999999
 31
0.0
  0
LINE
  5
8A8
  8
0
  6
CONTINUOUS
 62
     7
 10
139.4799999999999
 20
148.27500000000001
 30
0.0
 11
139.4799999999999
 21
148.3249999999999
 31
0.0
  0
ARC
  5
8A9
  8
0
  6
CONTINUOUS
 62
     7
 10
139.68000000000001
 20
148.3249999999999
 30
0.0
 40
0.2000000000000313
 50
154.15806723680001
 51
180.0
  0
LINE
  5
8AA
  8
0
  6
CONTINUOUS
 62
     7
 10
139.4799999999999
 20
148.27500000000001
 30
0.0
 11
139.5
 21
148.27500000000001
 31
0.0
  0
ARC
  5
8AB
  8
0
  6
CONTINUOUS
 62
     7
 10
139.68000000000001
 20
148.22499999999999
 30
0.0
 40
0.2000000000000313
 50
180.0
 51
205.84193276319991
  0
LINE
  5
8AC
  8
0
  6
CONTINUOUS
 62
     7
 10
139.4799999999999
 20
148.22499999999999
 30
0.0
 11
139.4799999999999
 21
148.27500000000001
 31
0.0
  0
LINE
  5
8AD
  8
0
  6
CONTINUOUS
 62
     7
 10
139.4799999999999
 20
151.72499999999991
 30
0.0
 11
139.4799999999999
 21
151.67500000000001
 31
0.0
  0
LINE
  5
8AE
  8
0
  6
CONTINUOUS
 62
     7
 10
139.4799999999999
 20
151.72499999999991
 30
0.0
 11
139.5
 21
151.72499999999991
 31
0.0
  0
ARC
  5
8AF
  8
0
  6
CONTINUOUS
 62
     7
 10
139.68000000000001
 20
151.67500000000001
 30
0.0
 40
0.2000000000000313
 50
180.0
 51
205.84193276319991
  0
LINE
  5
8B0
  8
0
  6
CONTINUOUS
 62
     7
 10
139.4799999999999
 20
151.77500000000001
 30
0.0
 11
139.4799999999999
 21
151.72499999999991
 31
0.0
  0
ARC
  5
8B1
  8
0
  6
CONTINUOUS
 62
     7
 10
139.68000000000001
 20
151.77500000000001
 30
0.0
 40
0.2000000000000313
 50
154.15806723680001
 51
180.0
  0
LINE
  5
8B2
  8
0
  6
CONTINUOUS
 62
     7
 10
140.74999999999989
 20
147.6041381286
 30
0.0
 11
140.74999999999989
 21
147.4499999999999
 31
0.0
  0
LINE
  5
8B3
  8
0
  6
CONTINUOUS
 62
     7
 10
140.65000000000001
 20
147.6041381286
 30
0.0
 11
140.65000000000001
 21
147.92500000000001
 31
0.0
  0
LINE
  5
8B4
  8
0
  6
CONTINUOUS
 62
     7
 10
140.74999999999989
 20
147.92500000000001
 30
0.0
 11
140.74999999999989
 21
147.6041381286
 31
0.0
  0
ARC
  5
8B5
  8
0
  6
CONTINUOUS
 62
     7
 10
140.55000000000001
 20
147.92500000000001
 30
0.0
 40
0.1999999999999886
 50
0.0
 51
31.788330617
  0
LINE
  5
8B6
  8
0
  6
CONTINUOUS
 62
     7
 10
140.65000000000001
 20
147.4499999999999
 30
0.0
 11
140.65000000000001
 21
147.6041381286
 31
0.0
  0
LINE
  5
8B7
  8
0
  6
CONTINUOUS
 62
     7
 10
140.74999999999989
 20
147.4499999999999
 30
0.0
 11
140.65000000000001
 21
147.4499999999999
 31
0.0
  0
ARC
  5
8B8
  8
0
  6
CONTINUOUS
 62
     7
 10
140.55000000000001
 20
147.92500000000001
 30
0.0
 40
0.1000000000000227
 50
0.0
 51
14.6464106666
  0
LINE
  5
8B9
  8
0
  6
CONTINUOUS
 62
     7
 10
140.74999999999989
 20
152.39586187139989
 30
0.0
 11
140.74999999999989
 21
152.55000000000001
 31
0.0
  0
LINE
  5
8BA
  8
0
  6
CONTINUOUS
 62
     7
 10
140.65000000000001
 20
152.39586187139989
 30
0.0
 11
140.65000000000001
 21
152.0749999999999
 31
0.0
  0
LINE
  5
8BB
  8
0
  6
CONTINUOUS
 62
     7
 10
140.65000000000001
 20
152.55000000000001
 30
0.0
 11
140.65000000000001
 21
152.39586187139989
 31
0.0
  0
LINE
  5
8BC
  8
0
  6
CONTINUOUS
 62
     7
 10
140.74999999999989
 20
152.55000000000001
 30
0.0
 11
140.65000000000001
 21
152.55000000000001
 31
0.0
  0
ARC
  5
8BD
  8
0
  6
CONTINUOUS
 62
     7
 10
140.55000000000001
 20
152.0749999999999
 30
0.0
 40
0.1999999999999938
 50
328.21166938290003
 51
0.0
  0
LINE
  5
8BE
  8
0
  6
CONTINUOUS
 62
     7
 10
140.74999999999989
 20
152.0749999999999
 30
0.0
 11
140.74999999999989
 21
152.39586187139989
 31
0.0
  0
ARC
  5
8BF
  8
0
  6
CONTINUOUS
 62
     7
 10
140.55000000000001
 20
152.0749999999999
 30
0.0
 40
0.1000000000000227
 50
345.3535893333999
 51
0.0
  0
TEXT
  5
8C0
  8
0
  6
CONTINUOUS
 62
     7
 10
80.0
 20
67.142500067499995
 30
0.0
 40
2.3812500000000001
  1
(C)Panasonic Corporation 2012  Jan.,2012  AXK724147.DXF
 41
0.6591666667000001
 11
80.0
 21
66.8250000675
 31
0.0
 73
     1
  0
ENDSEC
  0
EOF
