0
SECTION
2
HEADER
9
$INSUNITS
70
4
9
$ACADVER
1
AC1014
9
$HANDSEED
5
FFFF
0
ENDSEC
0
SECTION
2
TABLES
0
TABLE
2
VPORT
5
8
100
AcDbSymbolTable
0
ENDTAB
0
TABLE
2
LTYPE
5
5
100
AcDbSymbolTable
0
LTYPE
5
14
100
AcDbSymbolTableRecord
100
AcDbLinetypeTableRecord
2
BYBLOCK
70
0
0
LTYPE
5
15
100
AcDbSymbolTableRecord
100
AcDbLinetypeTableRecord
2
BYLAYER
70
0
0
ENDTAB
0
TABLE
2
LAYER
5
2
100
AcDbSymbolTable
70
2
0
LAYER
5
50
100
AcDbSymbolTableRecord
100
AcDbLayerTableRecord
2
0
70
0
6
CONTINUOUS
0
ENDTAB
0
TABLE
2
STYLE
5
3
100
AcDbSymbolTable
70
1
0
STYLE
5
11
100
AcDbSymbolTableRecord
100
AcDbTextStyleTableRecord
2
STANDARD
70
0
0
ENDTAB
0
TABLE
2
VIEW
5
6
100
AcDbSymbolTable
70
0
0
ENDTAB
0
TABLE
2
UCS
5
7
100
AcDbSymbolTable
70
0
0
ENDTAB
0
TABLE
2
APPID
5
9
100
AcDbSymbolTable
70
2
0
APPID
5
12
100
AcDbSymbolTableRecord
100
AcDbRegAppTableRecord
2
ACAD
70
0
0
ENDTAB
0
TABLE
2
DIMSTYLE
5
A
100
AcDbSymbolTable
70
1
0
ENDTAB
0
TABLE
2
BLOCK_RECORD
5
1
100
AcDbSymbolTable
70
1
0
BLOCK_RECORD
5
1F
100
AcDbSymbolTableRecord
100
AcDbBlockTableRecord
2
*MODEL_SPACE
0
BLOCK_RECORD
5
1B
100
AcDbSymbolTableRecord
100
AcDbBlockTableRecord
2
*PAPER_SPACE
0
ENDTAB
0
ENDSEC
0
SECTION
2
BLOCKS
0
BLOCK
5
20
100
AcDbEntity
100
AcDbBlockBegin
2
*MODEL_SPACE
0
ENDBLK
5
21
100
AcDbEntity
100
AcDbBlockEnd
0
BLOCK
5
1C
100
AcDbEntity
100
AcDbBlockBegin
2
*PAPER_SPACE
0
ENDBLK
5
1D
100
AcDbEntity
100
AcDbBlockEnd
0
ENDSEC
0
SECTION
2
ENTITIES
0
LINE
5
100
100
AcDbEntity
8
0
100
AcDbLine
10
-2.2999999999998977
20
3.9999999999999991
30
0
11
-1.2999999999998968
21
3.9999999999999969
31
0
0
LINE
5
101
100
AcDbEntity
8
0
100
AcDbLine
10
-1.2999999999998968
20
3.9999999999999969
30
0
11
-1.2999999999999012
21
0
31
0
0
LINE
5
102
100
AcDbEntity
8
0
100
AcDbLine
10
-1.2999999999999012
20
0
30
0
11
1.3000000000001011
21
-2.2204460492503131e-15
31
0
0
LINE
5
103
100
AcDbEntity
8
0
100
AcDbLine
10
1.3000000000001011
20
-2.2204460492503131e-15
30
0
11
1.3000000000001011
21
3.9999999999999991
31
0
0
LINE
5
104
100
AcDbEntity
8
0
100
AcDbLine
10
1.3000000000001011
20
3.9999999999999991
30
0
11
2.300000000000102
21
3.9999999999999969
31
0
0
LINE
5
105
100
AcDbEntity
8
0
100
AcDbLine
10
2.300000000000102
20
3.9999999999999969
30
0
11
2.300000000000102
21
-2.2204460492503131e-15
31
0
0
LINE
5
106
100
AcDbEntity
8
0
100
AcDbLine
10
2.300000000000102
20
-2.2204460492503131e-15
30
0
11
3.9500000000001001
21
-2.2204460492503131e-15
31
0
0
LINE
5
107
100
AcDbEntity
8
0
100
AcDbLine
10
3.9500000000001001
20
-2.2204460492503131e-15
30
0
11
3.9500000000001023
21
5.2000000000000002
31
0
0
LINE
5
108
100
AcDbEntity
8
0
100
AcDbLine
10
3.9500000000001023
20
5.2000000000000002
30
0
11
3.0500000000001037
21
5.2000000000000002
31
0
0
LINE
5
109
100
AcDbEntity
8
0
100
AcDbLine
10
3.0500000000001037
20
5.2000000000000002
30
0
11
3.0500000000001037
21
6.0000000000000009
31
0
0
LINE
5
110
100
AcDbEntity
8
0
100
AcDbLine
10
3.0500000000001037
20
6.0000000000000009
30
0
11
-3.0499999999998995
21
6.0000000000000053
31
0
0
LINE
5
111
100
AcDbEntity
8
0
100
AcDbLine
10
-3.0499999999998995
20
6.0000000000000053
30
0
11
-3.0499999999998995
21
5.2000000000000046
31
0
0
LINE
5
112
100
AcDbEntity
8
0
100
AcDbLine
10
-3.0499999999998995
20
5.2000000000000046
30
0
11
-3.9499999999999025
21
5.2000000000000046
31
0
0
LINE
5
113
100
AcDbEntity
8
0
100
AcDbLine
10
-3.9499999999999025
20
5.2000000000000046
30
0
11
-3.9499999999999025
21
0
31
0
0
LINE
5
114
100
AcDbEntity
8
0
100
AcDbLine
10
-3.9499999999999025
20
0
30
0
11
-2.2999999999998999
21
0
31
0
0
LINE
5
115
100
AcDbEntity
8
0
100
AcDbLine
10
-2.2999999999998999
20
0
30
0
11
-2.2999999999998977
21
3.9999999999999991
31
0
0
LINE
5
116
100
AcDbEntity
8
0
100
AcDbLine
10
3.9500000000001001
20
-2.2204460492503131e-15
30
0
11
3.1500000000000661
21
-2.2204460492503131e-15
31
0
0
LINE
5
117
100
AcDbEntity
8
0
100
AcDbLine
10
3.1500000000000661
20
-2.2204460492503131e-15
30
0
11
3.1500000000000483
21
-1.6000000000000014
31
0
0
LINE
5
118
100
AcDbEntity
8
0
100
AcDbLine
10
3.1500000000000483
20
-1.6000000000000014
30
0
11
3.950000000000049
21
-1.6000000000000014
31
0
0
LINE
5
119
100
AcDbEntity
8
0
100
AcDbLine
10
3.950000000000049
20
-1.6000000000000014
30
0
11
3.9500000000001001
21
-2.2204460492503131e-15
31
0
0
LINE
5
120
100
AcDbEntity
8
0
100
AcDbLine
10
-3.9499999999999491
20
-1.599999999999997
30
0
11
-3.1499999999999506
21
-1.5999999999999948
31
0
0
LINE
5
121
100
AcDbEntity
8
0
100
AcDbLine
10
-3.1499999999999506
20
-1.5999999999999948
30
0
11
-3.1499999999999329
21
0
31
0
0
LINE
5
122
100
AcDbEntity
8
0
100
AcDbLine
10
-3.1499999999999329
20
0
30
0
11
-3.9499999999999025
21
0
31
0
0
LINE
5
123
100
AcDbEntity
8
0
100
AcDbLine
10
-3.9499999999999025
20
0
30
0
11
-3.9499999999999491
21
-1.599999999999997
31
0
0
LWPOLYLINE
5
124
100
AcDbEntity
8
0
100
AcDbPolyline
90
8
70
1
43
0.0
10
-1.2499999999999956
20
-2.5999999999999934
10
-1.2499999999999911
20
-0.59999999999998943
10
-1.2499999999999494
20
-0.499999999999997
10
-1.2499999999999378
20
2.2204460492503131e-15
10
-0.74999999999994016
20
-2.9143354396410359e-15
10
-0.74999999999995115
20
-0.50000000000000377
10
-0.74999999999999289
20
-0.59999999999999165
10
-0.74999999999999512
20
-2.5999999999999956
0
LWPOLYLINE
5
125
100
AcDbEntity
8
0
100
AcDbPolyline
90
8
70
1
43
0.0
10
0.75000000000000622
20
-2.5999999999999979
10
0.75000000000000622
20
-0.59999999999999387
10
0.75000000000001066
20
-0.50000000000000044
10
0.75000000000005951
20
-4.4408920985006262e-15
10
1.2500000000000595
20
-2.8449465006019636e-15
10
1.2500000000000089
20
-0.50000000000000044
10
1.2500000000000089
20
-0.59999999999999387
10
1.2500000000000044
20
-2.5999999999999979
0
LINE
5
126
100
AcDbEntity
8
0
100
AcDbLine
10
3.0500000000001037
20
6.0000000000000009
30
0
11
3.0500000000001037
21
5.2000000000000002
31
0
0
LINE
5
127
100
AcDbEntity
8
0
100
AcDbLine
10
3.0500000000001037
20
5.2000000000000002
30
0
11
3.4500000000000419
21
5.2000000000000002
31
0
0
LINE
5
128
100
AcDbEntity
8
0
100
AcDbLine
10
3.4500000000000419
20
5.2000000000000002
30
0
11
3.4500000000000419
21
6.0000000000000009
31
0
0
LINE
5
129
100
AcDbEntity
8
0
100
AcDbLine
10
3.4500000000000419
20
6.0000000000000009
30
0
11
3.0500000000001037
21
6.0000000000000009
31
0
0
LINE
5
130
100
AcDbEntity
8
0
100
AcDbLine
10
-3.449999999999962
20
5.2000000000000046
30
0
11
-3.0499999999998995
21
5.2000000000000046
31
0
0
LINE
5
131
100
AcDbEntity
8
0
100
AcDbLine
10
-3.0499999999998995
20
5.2000000000000046
30
0
11
-3.0499999999998995
21
6.0000000000000053
31
0
0
LINE
5
132
100
AcDbEntity
8
0
100
AcDbLine
10
-3.0499999999998995
20
6.0000000000000053
30
0
11
-3.4499999999999575
21
6.0000000000000098
31
0
0
LINE
5
133
100
AcDbEntity
8
0
100
AcDbLine
10
-3.4499999999999575
20
6.0000000000000098
30
0
11
-3.449999999999962
21
5.2000000000000046
31
0
0
ENDSEC
0
SECTION
2
OBJECTS
0
DICTIONARY
5
C
100
AcDbDictionary
3
ACAD_GROUP
350
D
3
ACAD_MLINESTYLE
350
17
0
DICTIONARY
5
D
100
AcDbDictionary
0
DICTIONARY
5
1A
330
C
100
AcDbDictionary
0
DICTIONARY
5
17
100
AcDbDictionary
0
ENDSEC
0
EOF
